<?xml version="1.0" standalone="no"?>
<!DOCTYPE svg PUBLIC "-//W3C//DTD SVG 1.1//EN" "http://www.w3.org/Graphics/SVG/1.1/DTD/svg11.dtd" >
<svg xmlns="http://www.w3.org/2000/svg">
<metadata></metadata>
<defs>
<font id="ac_brodieregular" horiz-adv-x="923" >
<font-face units-per-em="2048" ascent="1561" descent="-487" />
<missing-glyph horiz-adv-x="440" />
<glyph horiz-adv-x="0" />
<glyph horiz-adv-x="682" />
<glyph horiz-adv-x="1056" />
<glyph horiz-adv-x="1056" />
<glyph horiz-adv-x="1056" />
<glyph unicode="&#x9;" horiz-adv-x="1056" />
<glyph unicode="&#xa;" horiz-adv-x="1056" />
<glyph unicode="&#xd;" horiz-adv-x="1056" />
<glyph unicode=" "  horiz-adv-x="440" />
<glyph unicode="&#x09;" horiz-adv-x="440" />
<glyph unicode="&#xa0;" horiz-adv-x="440" />
<glyph unicode="!" horiz-adv-x="434" d="M131 86q0 35 24.5 59.5t59.5 24.5q37 0 61.5 -24.5t24.5 -59.5t-25.5 -60.5t-60.5 -25.5t-59.5 25.5t-24.5 60.5zM131 575v977q0 35 25 60.5t59 25.5q35 0 60.5 -25.5t25.5 -60.5v-977q0 -35 -25.5 -60.5t-60.5 -25.5q-34 0 -59 25.5t-25 60.5z" />
<glyph unicode="&#x22;" horiz-adv-x="1056" />
<glyph unicode="#" horiz-adv-x="1056" />
<glyph unicode="$" horiz-adv-x="1056" />
<glyph unicode="%" horiz-adv-x="1056" />
<glyph unicode="&#x26;" horiz-adv-x="1056" />
<glyph unicode="'" horiz-adv-x="1056" />
<glyph unicode="(" horiz-adv-x="1056" />
<glyph unicode=")" horiz-adv-x="1056" />
<glyph unicode="*" horiz-adv-x="1056" />
<glyph unicode="+" horiz-adv-x="1056" />
<glyph unicode="," horiz-adv-x="1056" />
<glyph unicode="-" horiz-adv-x="1056" />
<glyph unicode="." horiz-adv-x="434" d="M131 86q0 35 24.5 59.5t59.5 24.5q37 0 61.5 -24.5t24.5 -59.5t-25.5 -60.5t-60.5 -25.5t-59.5 25.5t-24.5 60.5z" />
<glyph unicode="/" horiz-adv-x="1056" />
<glyph unicode="0" d="M131 90v1462q0 35 25 60.5t59 25.5h487q35 0 60.5 -21.5t28.5 -55.5q-3 34 -28.5 55.5t-60.5 21.5l89 -77v-1475q0 -35 -25.5 -60.5t-60.5 -25.5h-490q-23 0 -47 14q-37 27 -37 76zM301 608q188 559 287 858h-287v-858zM334 172h287v854z" />
<glyph unicode="1" horiz-adv-x="677" d="M131 1552q0 35 24.5 60.5t59.5 25.5h246q35 0 60.5 -25.5t25.5 -60.5v-1466q0 -35 -25.5 -60.5t-60.5 -25.5t-60.5 25.5t-25.5 60.5v1380h-160q-35 0 -59.5 25.5t-24.5 60.5z" />
<glyph unicode="2" d="M131 86v977q0 35 24.5 60.5t59.5 25.5h406v317h-406q-35 0 -59.5 25.5t-24.5 60.5t24.5 60.5t59.5 25.5h490q35 0 60.5 -25.5t25.5 -60.5v-489q0 -35 -25.5 -59.5t-60.5 -24.5h-404v-807h404q35 0 60.5 -25.5t25.5 -60.5t-25.5 -60.5t-60.5 -25.5h-490q-35 0 -59.5 25.5 t-24.5 60.5z" />
<glyph unicode="3" d="M131 86q0 35 24.5 60.5t59.5 25.5h406v807h-406q-35 0 -59.5 24.5t-24.5 59.5t24.5 60.5t59.5 25.5h406v317h-406q-35 0 -59.5 25.5t-24.5 60.5t24.5 60.5t59.5 25.5h490q35 0 60.5 -25.5t25.5 -60.5v-1466q0 -35 -25.5 -60.5t-60.5 -25.5h-490q-35 0 -59.5 25.5 t-24.5 60.5z" />
<glyph unicode="4" d="M131 1063v489q0 35 24.5 60.5t59.5 25.5q36 0 61 -25t25 -61v-403h320v403q0 35 24.5 60.5t59.5 25.5t60.5 -25.5t25.5 -60.5v-1466q0 -35 -25.5 -60.5t-60.5 -25.5t-59.5 25.5t-24.5 60.5v893h-406q-35 0 -59.5 24.5t-24.5 59.5z" />
<glyph unicode="5" d="M131 86q0 35 24.5 60.5t59.5 25.5h406v807h-406q-35 0 -59.5 24.5t-24.5 59.5v489q0 35 24.5 60.5t59.5 25.5h490q35 0 60.5 -25.5t25.5 -60.5t-25.5 -60.5t-60.5 -25.5h-404v-317h404q35 0 60.5 -25.5t25.5 -60.5v-977q0 -35 -25.5 -60.5t-60.5 -25.5h-490 q-35 0 -59.5 25.5t-24.5 60.5z" />
<glyph unicode="6" d="M131 86v1466q0 35 24.5 60.5t59.5 25.5h490q35 0 60.5 -25.5t25.5 -60.5t-25.5 -60.5t-60.5 -25.5h-404v-317h404q35 0 60.5 -25.5t25.5 -60.5v-977q0 -35 -25.5 -60.5t-60.5 -25.5h-490q-35 0 -59.5 25.5t-24.5 60.5zM301 172h320v807h-320v-807z" />
<glyph unicode="7" d="M131 86q0 19 4 27l451 1353h-371q-34 0 -59 25.5t-25 60.5t25 60.5t59 25.5h487q37 0 63 -25t26 -61q0 -3 -5 -28l-489 -1465q-9 -26 -31.5 -42.5t-48.5 -16.5q-35 0 -60.5 25.5t-25.5 60.5z" />
<glyph unicode="8" d="M131 86v977v489q0 35 24.5 60.5t59.5 25.5h490q35 0 60.5 -25.5t25.5 -60.5v-489v-977q0 -35 -25.5 -60.5t-60.5 -25.5h-490q-35 0 -59.5 25.5t-24.5 60.5zM301 172h320v807h-320v-807zM301 1149h320v317h-320v-317z" />
<glyph unicode="9" d="M131 1063v489q0 35 24.5 60.5t59.5 25.5h490q35 0 60.5 -25.5t25.5 -60.5v-489v-977q0 -35 -25.5 -60.5t-60.5 -25.5t-59.5 25.5t-24.5 60.5v893h-406q-35 0 -59.5 24.5t-24.5 59.5zM301 1149h320v317h-320v-317z" />
<glyph unicode=":" horiz-adv-x="1056" />
<glyph unicode=";" horiz-adv-x="1056" />
<glyph unicode="&#x3c;" horiz-adv-x="1056" />
<glyph unicode="=" horiz-adv-x="1056" />
<glyph unicode="&#x3e;" horiz-adv-x="1056" />
<glyph unicode="?" horiz-adv-x="919" d="M131 86q0 34 25 59q24 24 59.5 24t60.5 -24q25 -29 25 -59q0 -32 -25 -61q-25 -25 -61 -25q-34 0 -59 25t-25 61zM131 580v487q0 35 24.5 59.5t59.5 24.5h401v317h-401q-35 0 -59.5 24.5t-24.5 59.5t24.5 60.5t59.5 25.5h487q35 0 60.5 -25.5t25.5 -60.5v-485 q0 -35 -25.5 -60.5t-60.5 -25.5h-401v-401q0 -35 -25.5 -59.5t-60.5 -24.5t-59.5 24.5t-24.5 59.5z" />
<glyph unicode="@" horiz-adv-x="1056" />
<glyph unicode="A" d="M131 86v1466q0 35 24.5 60.5t59.5 25.5h490q35 0 60.5 -25.5t25.5 -60.5v-1466q0 -35 -25.5 -60.5t-60.5 -25.5t-59.5 25.5t-24.5 60.5v893h-320v-893q0 -36 -25 -61t-61 -25q-35 0 -59.5 25.5t-24.5 60.5zM301 1149h320v317h-320v-317z" />
<glyph unicode="B" d="M131 86v977v489q0 35 24.5 60.5t59.5 25.5q137 0 234.5 -96.5t97.5 -232.5q0 -122 -82 -217q147 -70 236.5 -209.5t89.5 -307.5q0 -156 -77.5 -288.5t-210 -209.5t-288.5 -77q-35 0 -59.5 25.5t-24.5 60.5zM301 180q138 30 229 140t91 255q0 143 -91 253.5t-229 140.5 v-789zM301 1174q74 48 74 135q0 85 -74 133v-268z" />
<glyph unicode="C" d="M131 86v1466q0 35 24.5 60.5t59.5 25.5h490q35 0 60.5 -25.5t25.5 -60.5t-25.5 -60.5t-60.5 -25.5h-404v-1294h404q35 0 60.5 -25.5t25.5 -60.5t-25.5 -60.5t-60.5 -25.5h-490q-35 0 -59.5 25.5t-24.5 60.5z" />
<glyph unicode="D" d="M131 84v1466q0 35 24.5 60.5t59.5 25.5q168 0 299.5 -104t204 -290.5t72.5 -424.5q0 -239 -72.5 -425t-204 -289t-299.5 -103q-36 0 -60 24t-24 60zM301 180q101 30 175 128.5t109.5 230t35.5 278.5q0 145 -33 275t-107.5 231t-179.5 131v-1274z" />
<glyph unicode="E" d="M131 86v977v489q0 35 24.5 60.5t59.5 25.5h490q35 0 60.5 -25.5t25.5 -60.5t-25.5 -60.5t-60.5 -25.5h-404v-317h404q35 0 60.5 -25.5t25.5 -60.5t-25.5 -59.5t-60.5 -24.5h-404v-807h404q35 0 60.5 -25.5t25.5 -60.5t-25.5 -60.5t-60.5 -25.5h-490q-35 0 -59.5 25.5 t-24.5 60.5z" />
<glyph unicode="F" d="M131 86v977v489q0 35 24.5 60.5t59.5 25.5h490q35 0 60.5 -25.5t25.5 -60.5t-25.5 -60.5t-60.5 -25.5h-404v-317h404q35 0 60.5 -25.5t25.5 -60.5t-25.5 -59.5t-60.5 -24.5h-404v-893q0 -36 -25 -61t-61 -25q-35 0 -59.5 25.5t-24.5 60.5z" />
<glyph unicode="G" d="M131 86v1466q0 35 24.5 60.5t59.5 25.5h490q35 0 60.5 -25.5t25.5 -60.5t-25.5 -60.5t-60.5 -25.5h-404v-1294h320v891q0 35 24.5 60.5t59.5 25.5t60.5 -25.5t25.5 -60.5v-977q0 -35 -25.5 -60.5t-60.5 -25.5h-490q-35 0 -59.5 25.5t-24.5 60.5z" />
<glyph unicode="H" d="M131 86v1466q0 35 25 60.5t59 25.5q35 0 60.5 -25.5t25.5 -60.5v-403h320v403q0 35 24.5 60.5t59.5 25.5t60.5 -25.5t25.5 -60.5v-1466q0 -35 -25.5 -60.5t-60.5 -25.5t-59.5 25.5t-24.5 60.5v893h-320v-893q0 -35 -25.5 -60.5t-60.5 -25.5q-34 0 -59 25.5t-25 60.5z" />
<glyph unicode="I" horiz-adv-x="436" d="M131 86v1466q0 35 25.5 60.5t60.5 25.5t60.5 -25.5t25.5 -60.5v-1466q0 -35 -25.5 -60.5t-60.5 -25.5t-60.5 25.5t-25.5 60.5z" />
<glyph unicode="J" d="M131 86v489q0 35 24.5 59.5t59.5 24.5q37 0 61.5 -24.5t24.5 -59.5v-403h320v1380q0 35 24.5 60.5t59.5 25.5t60.5 -25.5t25.5 -60.5v-1466q0 -35 -25.5 -60.5t-60.5 -25.5h-490q-35 0 -59.5 25.5t-24.5 60.5z" />
<glyph unicode="K" d="M131 86v1466q0 35 25 60.5t59 25.5q35 0 60.5 -25.5t25.5 -60.5v-450l334 497q22 39 70 39q35 0 60.5 -25.5t25.5 -60.5q0 -26 -15 -47l-223 -336l235 -1065q3 -9 3 -18q0 -35 -25.5 -60.5t-60.5 -25.5q-29 0 -52.5 19.5t-31.5 48.5l-201 903l-119 -178v-707 q0 -35 -25.5 -60.5t-60.5 -25.5q-34 0 -59 25.5t-25 60.5zM131 817v4v-4z" />
<glyph unicode="L" d="M131 86v1466q0 35 24.5 60.5t59.5 25.5q36 0 61 -25t25 -61v-1380h404q35 0 60.5 -25.5t25.5 -60.5t-25.5 -60.5t-60.5 -25.5h-490q-35 0 -59.5 25.5t-24.5 60.5z" />
<glyph unicode="M" horiz-adv-x="1413" d="M131 86v1466q0 35 25 60.5t59 25.5q37 0 61 -24l429 -428l430 428q21 24 59 24q35 0 60.5 -25.5t25.5 -60.5v-1466q0 -35 -25.5 -60.5t-60.5 -25.5t-60.5 25.5t-25.5 60.5v1260l-342 -342q-25 -25 -61 -25q-35 0 -60 25l-344 342v-1260q0 -35 -25.5 -60.5t-60.5 -25.5 q-34 0 -59 25.5t-25 60.5z" />
<glyph unicode="N" d="M131 86v1466q0 35 25 60.5t59 25.5q28 0 51.5 -16.5t30.5 -42.5l324 -967v940q-1 35 24 60.5t60 25.5t60.5 -25.5t25.5 -60.5v-1466q0 -35 -25.5 -60.5t-60.5 -25.5q-27 0 -50 17t-32 44l-322 965v-940q0 -35 -25.5 -60.5t-60.5 -25.5q-34 0 -59 25.5t-25 60.5z" />
<glyph unicode="O" d="M131 86v1466q0 35 24.5 60.5t59.5 25.5h490q35 0 60.5 -25.5t25.5 -60.5v-1466q0 -35 -25.5 -60.5t-60.5 -25.5h-490q-35 0 -59.5 25.5t-24.5 60.5zM301 172h320v1294h-320v-1294z" />
<glyph unicode="P" d="M131 86v1466q0 35 25 60.5t59 25.5q156 0 288.5 -77t210 -209.5t77.5 -288.5q0 -212 -139.5 -374t-350.5 -193v-410q0 -35 -25.5 -60.5t-60.5 -25.5q-34 0 -59 25.5t-25 60.5zM301 670q139 29 229.5 140.5t90.5 252.5q0 142 -90 253t-230 142v-788z" />
<glyph unicode="Q" d="M131 86v1466q0 35 24.5 60.5t59.5 25.5h490q35 0 60.5 -25.5t25.5 -60.5v-1466q0 -35 -25.5 -60.5t-60.5 -25.5h-115l180 -176q25 -29 25 -60q0 -35 -26.5 -60.5t-61.5 -25.5t-60 25l-297 297h-135q-35 0 -59.5 25.5t-24.5 60.5zM301 172h320v1294h-320v-1294z" />
<glyph unicode="R" d="M131 86v1466q0 35 25 60.5t59 25.5q156 0 288.5 -77t210 -209.5t77.5 -288.5q0 -186 -110.5 -337t-289.5 -210l375 -371q25 -25 25 -59q0 -35 -25.5 -60.5t-60.5 -25.5t-62 27l-342 338v-279q0 -35 -25.5 -60.5t-60.5 -25.5q-34 0 -59 25.5t-25 60.5zM301 670 q139 29 229.5 140.5t90.5 252.5q0 142 -90 253t-230 142v-788z" />
<glyph unicode="S" d="M131 86q0 35 25 60.5t59 25.5q168 0 287 118t119 285q0 83 -27 149.5t-70 112t-95.5 85t-105 77t-95.5 78.5t-70 100t-27 132q0 136 96.5 232.5t233.5 96.5q35 0 60.5 -25.5t25.5 -60.5t-25.5 -60.5t-60.5 -25.5q-66 0 -113 -46t-47 -111q0 -43 27 -81.5t70 -72.5 t95.5 -70.5t105 -84t95.5 -104t70 -139.5t27 -182q0 -156 -77.5 -288.5t-210 -209.5t-288.5 -77q-34 0 -59 25.5t-25 60.5z" />
<glyph unicode="T" d="M131 1552q0 35 25 60.5t59 25.5h490q35 0 60.5 -25.5t25.5 -60.5t-25.5 -60.5t-60.5 -25.5h-158v-1380q0 -35 -25.5 -60.5t-60.5 -25.5t-60.5 25.5t-25.5 60.5v1380h-160q-34 0 -59 25.5t-25 60.5z" />
<glyph unicode="U" d="M131 86v1466q0 35 24.5 60.5t59.5 25.5q36 0 61 -25t25 -61v-1380h320v1380q0 35 24.5 60.5t59.5 25.5t60.5 -25.5t25.5 -60.5v-1466q0 -35 -25.5 -60.5t-60.5 -25.5h-490q-35 0 -59.5 25.5t-24.5 60.5z" />
<glyph unicode="V" d="M131 1538v14q0 35 25.5 60.5t60.5 25.5q31 0 54.5 -20t29.5 -51l160 -961l160 961q4 30 28.5 50.5t55.5 20.5q35 0 60.5 -25.5t25.5 -60.5v-14l-246 -1466q-4 -31 -28.5 -51.5t-55.5 -20.5t-55.5 20.5t-28.5 51.5z" />
<glyph unicode="W" horiz-adv-x="1413" d="M131 1538v14q0 35 25.5 60.5t60.5 25.5q31 0 54.5 -20t29.5 -51l160 -961l160 961q4 30 28.5 50.5t55.5 20.5q32 0 56 -20t30 -51l159 -961l160 961q4 30 28.5 50.5t55.5 20.5q35 0 60.5 -25.5t25.5 -60.5q0 -8 -2 -14l-244 -1466q-4 -31 -28.5 -51.5t-55.5 -20.5 q-32 0 -56 20.5t-30 51.5l-159 960l-160 -960q-4 -31 -28.5 -51.5t-55.5 -20.5t-55.5 20.5t-28.5 51.5z" />
<glyph unicode="X" d="M131 86q0 19 4 27l236 706l-236 707q-4 8 -4 26q0 35 25.5 60.5t60.5 25.5q26 0 48.5 -16.5t31.5 -42.5l164 -489l164 489q7 26 29.5 42.5t50.5 16.5q35 0 60.5 -25.5t25.5 -60.5q0 -6 -5 -26l-235 -707l235 -706q5 -20 5 -27q0 -35 -25.5 -60.5t-60.5 -25.5 q-28 0 -50.5 16.5t-29.5 42.5l-164 490l-164 -490q-9 -26 -31.5 -42.5t-48.5 -16.5q-35 0 -60.5 25.5t-25.5 60.5z" />
<glyph unicode="Y" d="M135 1526q-5 14 -5 28q0 19 10 38q16 31 50 42q14 4 27 4q20 0 39 -9q33 -16 43 -50l164 -489l164 489q10 33 41 49q19 10 39 10q13 0 26 -4q33 -10 49 -42q9 -19 9 -38q0 -14 -5 -28l-241 -721v-719q0 -35 -25.5 -60.5t-60.5 -25.5t-60.5 25.5t-25.5 60.5v719z" />
<glyph unicode="Z" d="M131 86q0 9 4 29l451 1351h-371q-34 0 -59 25.5t-25 60.5t25 60.5t59 25.5h490q35 0 60.5 -25.5t25.5 -60.5q0 -8 -5 -28l-452 -1352h371q35 0 60.5 -25.5t25.5 -60.5t-25.5 -60.5t-60.5 -25.5h-496q-32 0 -55 26.5t-23 59.5z" />
<glyph unicode="[" horiz-adv-x="1056" />
<glyph unicode="\" horiz-adv-x="1056" />
<glyph unicode="]" horiz-adv-x="1056" />
<glyph unicode="^" horiz-adv-x="1056" />
<glyph unicode="_" horiz-adv-x="1056" />
<glyph unicode="`" horiz-adv-x="1056" />
<glyph unicode="a" d="M131 86v489q0 35 24.5 59.5t59.5 24.5h406v320h-406q-35 0 -59.5 24.5t-24.5 59.5t24.5 60.5t59.5 25.5h490q35 0 60.5 -25.5t25.5 -60.5v-488v-489q0 -35 -25.5 -60.5t-60.5 -25.5h-490q-35 0 -59.5 25.5t-24.5 60.5zM301 172h320v317h-320v-317z" />
<glyph unicode="b" d="M131 86v977v489q0 35 24.5 60.5t59.5 25.5q36 0 61 -25t25 -61v-403h404q35 0 60.5 -25.5t25.5 -60.5v-977q0 -35 -25.5 -60.5t-60.5 -25.5h-490q-35 0 -59.5 25.5t-24.5 60.5zM301 172h320v807h-320v-807z" />
<glyph unicode="c" d="M131 86v977q0 35 24.5 60.5t59.5 25.5h490q35 0 60.5 -25.5t25.5 -60.5t-25.5 -59.5t-60.5 -24.5h-404v-807h404q35 0 60.5 -25.5t25.5 -60.5t-25.5 -60.5t-60.5 -25.5h-490q-35 0 -59.5 25.5t-24.5 60.5z" />
<glyph unicode="d" d="M131 86v977q0 35 24.5 60.5t59.5 25.5h406v403q0 35 24.5 60.5t59.5 25.5t60.5 -25.5t25.5 -60.5v-489v-977q0 -35 -25.5 -60.5t-60.5 -25.5h-490q-35 0 -59.5 25.5t-24.5 60.5zM301 172h320v807h-320v-807z" />
<glyph unicode="e" d="M131 86v489v488q0 35 24.5 60.5t59.5 25.5h490q35 0 60.5 -25.5t25.5 -60.5v-488q0 -35 -25.5 -60.5t-60.5 -25.5h-404v-317h404q35 0 60.5 -25.5t25.5 -60.5t-25.5 -60.5t-60.5 -25.5h-490q-35 0 -59.5 25.5t-24.5 60.5zM301 659h320v320h-320v-320z" />
<glyph unicode="f" horiz-adv-x="940" d="M131 86v1466q0 35 25.5 60.5t60.5 25.5h504q37 0 62.5 -25.5t25.5 -60.5v-493q0 -35 -25.5 -60.5t-62.5 -25.5q-35 0 -60.5 25.5t-25.5 60.5v407h-332v-800h406q37 0 62.5 -25.5t25.5 -60.5q0 -37 -25.5 -61.5t-62.5 -24.5h-406v-408q0 -35 -25.5 -60.5t-60.5 -25.5 t-60.5 25.5t-25.5 60.5z" />
<glyph unicode="g" d="M131 88v977q0 35 24.5 60.5t59.5 25.5h490q35 0 60.5 -25.5t25.5 -60.5v-977v-487q0 -35 -25.5 -60.5t-60.5 -25.5h-490q-35 0 -59.5 25.5t-24.5 60.5t24.5 60.5t59.5 25.5h406v315h-406q-35 0 -59.5 25.5t-24.5 60.5zM301 172h320v807h-320v-807z" />
<glyph unicode="h" d="M131 86v1466q0 35 24.5 60.5t59.5 25.5q36 0 61 -25t25 -61v-403h404q35 0 60.5 -25.5t25.5 -60.5v-977q0 -35 -25.5 -60.5t-60.5 -25.5t-59.5 25.5t-24.5 60.5v893h-320v-893q0 -36 -25 -61t-61 -25q-35 0 -59.5 25.5t-24.5 60.5z" />
<glyph unicode="i" horiz-adv-x="434" d="M131 86v979q0 35 25.5 60.5t60.5 25.5t59.5 -25.5t24.5 -60.5v-979q0 -35 -24.5 -60.5t-59.5 -25.5t-60.5 25.5t-25.5 60.5zM131 1554q0 35 24.5 59.5t61.5 24.5q35 0 59.5 -24.5t24.5 -59.5t-25 -60.5t-59 -25.5q-35 0 -60.5 25.5t-25.5 60.5z" />
<glyph unicode="j" d="M131 -399q0 -35 24.5 -60.5t59.5 -25.5h490q35 0 60.5 25.5t25.5 60.5v1464q0 35 -25.5 60.5t-60.5 25.5t-59.5 -25.5t-24.5 -60.5v-1378h-406q-35 0 -59.5 -25.5t-24.5 -60.5zM618 1554q0 36 25.5 60t61.5 24q37 0 61.5 -23.5t24.5 -60.5q0 -35 -25.5 -60.5t-60.5 -25.5 t-61 25.5t-26 60.5z" />
<glyph unicode="k" horiz-adv-x="927" d="M131 86v1466q0 35 25.5 60.5t60.5 25.5t60.5 -25.5t25.5 -60.5v-766l346 347q25 26 60.5 26t60.5 -26q26 -25 26 -60.5t-26 -60.5l-432 -432l432 -433q26 -26 26 -61t-26 -61q-25 -25 -61 -25q-35 0 -60 25l-346 346v-285q0 -35 -25.5 -60.5t-60.5 -25.5t-60.5 25.5 t-25.5 60.5z" />
<glyph unicode="l" horiz-adv-x="436" d="M131 86v1466q0 35 25.5 60.5t60.5 25.5t60.5 -25.5t25.5 -60.5v-1466q0 -35 -25.5 -60.5t-60.5 -25.5t-60.5 25.5t-25.5 60.5z" />
<glyph unicode="m" horiz-adv-x="1413" d="M131 86v979q0 36 25 61t61 25h977q36 0 61 -25t25 -61v-979q0 -36 -25 -61t-61 -25q-35 0 -59.5 25.5t-24.5 60.5v893h-319v-893q0 -36 -25 -61t-61 -25q-35 0 -59.5 25.5t-24.5 60.5v893h-320v-893q0 -35 -24.5 -60.5t-59.5 -25.5q-36 0 -61 25t-25 61z" />
<glyph unicode="n" d="M131 86v979q0 36 25 61t61 25h488q36 0 61 -25t25 -61v-979q0 -36 -25 -61t-61 -25q-35 0 -59.5 25.5t-24.5 60.5v893h-320v-893q0 -35 -24.5 -60.5t-59.5 -25.5q-36 0 -61 25t-25 61z" />
<glyph unicode="o" d="M131 86v979q0 36 25 61t61 25h488q36 0 61 -25t25 -61v-979q0 -36 -25 -61t-61 -25h-488q-36 0 -61 25t-25 61zM301 172h320v807h-320v-807z" />
<glyph unicode="p" d="M131 88v977q0 35 24.5 60.5t59.5 25.5h490q35 0 60.5 -25.5t25.5 -60.5v-977q0 -35 -25.5 -60.5t-60.5 -25.5h-404v-401q0 -36 -25 -61t-61 -25q-35 0 -59.5 25.5t-24.5 60.5v487zM301 172h320v807h-320v-807z" />
<glyph unicode="q" d="M131 88v977q0 35 24.5 60.5t59.5 25.5h490q35 0 60.5 -25.5t25.5 -60.5v-977v-487q0 -35 -25.5 -60.5t-60.5 -25.5t-59.5 25.5t-24.5 60.5v401h-406q-35 0 -59.5 25.5t-24.5 60.5zM301 172h320v807h-320v-807z" />
<glyph unicode="r" d="M131 86v979q0 36 25 61t61 25h488q36 0 61 -25t25 -61t-25 -61t-61 -25h-404v-893q0 -35 -24.5 -60.5t-59.5 -25.5q-36 0 -61 25t-25 61z" />
<glyph unicode="s" d="M131 86q0 36 25 61t61 25h404v317h-404q-36 0 -61 25t-25 61v490q0 36 25 61t61 25h488q36 0 61 -25t25 -61t-25 -61t-61 -25h-404v-317h404q36 0 61 -25.5t25 -61.5v-489q0 -36 -25 -61t-61 -25h-488q-36 0 -61 25t-25 61z" />
<glyph unicode="t" d="M131 1063q0 35 24.5 60.5t59.5 25.5h160v403q0 35 25.5 60.5t60.5 25.5t60.5 -25.5t25.5 -60.5v-403h158q35 0 60.5 -25.5t25.5 -60.5t-25.5 -59.5t-60.5 -24.5h-158v-893q0 -35 -25.5 -60.5t-60.5 -25.5t-60.5 25.5t-25.5 60.5v893h-160q-35 0 -59.5 24.5t-24.5 59.5z " />
<glyph unicode="u" d="M131 86v979q0 36 25 61t61 25q35 0 59.5 -25.5t24.5 -60.5v-893h320v893q0 35 24.5 60.5t59.5 25.5q36 0 61 -25t25 -61v-979q0 -36 -25 -61t-61 -25h-488q-36 0 -61 25t-25 61z" />
<glyph unicode="v" d="M131 1065q0 35 25.5 60.5t60.5 25.5q29 0 51.5 -19t30.5 -47l162 -647l162 647q8 28 30.5 47t51.5 19q35 0 60.5 -25.5t25.5 -60.5q0 -12 -3 -21l-243 -978q-7 -29 -31 -47.5t-53 -18.5t-53 18.5t-31 47.5l-244 978q-2 6 -2 21z" />
<glyph unicode="w" horiz-adv-x="1413" d="M131 1065q0 35 25.5 60.5t60.5 25.5q29 0 51.5 -19t30.5 -47l162 -647l162 647q8 28 31 47t53 19q29 0 51 -19t30 -47l162 -647l162 647q8 28 30.5 47t51.5 19q35 0 60.5 -25.5t25.5 -60.5q0 -15 -2 -21l-244 -978q-7 -29 -31 -47.5t-53 -18.5t-53 18.5t-31 47.5 l-159 645l-162 -645q-7 -29 -31 -47.5t-53 -18.5t-53 18.5t-31 47.5l-244 978q-2 6 -2 21z" />
<glyph unicode="x" d="M131 86q0 23 8 39l226 450l-226 451q-8 16 -8 39q0 35 25.5 60.5t60.5 25.5q24 0 45 -13t31 -36l168 -336l168 336q10 23 31.5 36t46.5 13q35 0 59.5 -25.5t24.5 -60.5q0 -21 -9 -39l-225 -451l225 -450q9 -18 9 -39q0 -35 -24.5 -60.5t-59.5 -25.5q-55 0 -78 47 l-168 336l-168 -336q-23 -47 -78 -47q-34 0 -59 25.5t-25 60.5z" />
<glyph unicode="y" d="M131 88v977q0 35 24.5 60.5t59.5 25.5q36 0 61 -25t25 -61v-893h320v893q0 35 24.5 60.5t59.5 25.5t60.5 -25.5t25.5 -60.5v-977v-487q0 -35 -25.5 -60.5t-60.5 -25.5h-490q-35 0 -59.5 25.5t-24.5 60.5t24.5 60.5t59.5 25.5h406v315h-406q-35 0 -59.5 25.5t-24.5 60.5z " />
<glyph unicode="z" d="M131 1065q0 36 25 61t61 25h488q47 0 73 -41q13 -22 13 -45q0 -19 -9 -39l-428 -854h351q36 0 61 -25t25 -61t-25 -61t-61 -25h-488q-48 0 -74 41q-13 21 -13 44q0 19 9 40l428 854h-350q-36 0 -61 25t-25 61z" />
<glyph unicode="{" horiz-adv-x="1056" />
<glyph unicode="|" horiz-adv-x="1056" />
<glyph unicode="}" horiz-adv-x="1056" />
<glyph unicode="~" horiz-adv-x="1056" />
<glyph unicode="&#xa1;" horiz-adv-x="1056" />
<glyph unicode="&#xa2;" horiz-adv-x="1056" />
<glyph unicode="&#xa3;" horiz-adv-x="1056" />
<glyph unicode="&#xa4;" horiz-adv-x="1056" />
<glyph unicode="&#xa5;" horiz-adv-x="1056" />
<glyph unicode="&#xa6;" horiz-adv-x="1056" />
<glyph unicode="&#xa7;" horiz-adv-x="1056" />
<glyph unicode="&#xa8;" horiz-adv-x="1056" />
<glyph unicode="&#xa9;" horiz-adv-x="1056" />
<glyph unicode="&#xaa;" horiz-adv-x="1056" />
<glyph unicode="&#xab;" horiz-adv-x="1056" />
<glyph unicode="&#xac;" horiz-adv-x="1056" />
<glyph unicode="&#xad;" horiz-adv-x="1056" />
<glyph unicode="&#xae;" horiz-adv-x="1056" />
<glyph unicode="&#xaf;" horiz-adv-x="1056" />
<glyph unicode="&#xb0;" horiz-adv-x="1056" />
<glyph unicode="&#xb1;" horiz-adv-x="1056" />
<glyph unicode="&#xb2;" horiz-adv-x="1056" />
<glyph unicode="&#xb3;" horiz-adv-x="1056" />
<glyph unicode="&#xb4;" horiz-adv-x="1056" />
<glyph unicode="&#xb5;" horiz-adv-x="1056" />
<glyph unicode="&#xb6;" horiz-adv-x="1056" />
<glyph unicode="&#xb7;" horiz-adv-x="1056" />
<glyph unicode="&#xb8;" horiz-adv-x="1056" />
<glyph unicode="&#xb9;" horiz-adv-x="1056" />
<glyph unicode="&#xba;" horiz-adv-x="1056" />
<glyph unicode="&#xbb;" horiz-adv-x="1056" />
<glyph unicode="&#xbc;" horiz-adv-x="1056" />
<glyph unicode="&#xbd;" horiz-adv-x="1056" />
<glyph unicode="&#xbe;" horiz-adv-x="1056" />
<glyph unicode="&#xbf;" horiz-adv-x="1056" />
<glyph unicode="&#xc0;" d="M131 86v1466q0 35 24.5 60.5t59.5 25.5h490q35 0 60.5 -25.5t25.5 -60.5v-1466q0 -35 -25.5 -60.5t-60.5 -25.5t-59.5 25.5t-24.5 60.5v893h-320v-893q0 -36 -25 -61t-61 -25q-35 0 -59.5 25.5t-24.5 60.5zM252 2101q0 35 26.5 60.5t61.5 25.5q36 0 57 -24l140 -138 q24 -24 24 -59t-25.5 -61.5t-60.5 -26.5t-59 27l-140 137q-24 27 -24 59zM301 1149h320v317h-320v-317z" />
<glyph unicode="&#xc1;" d="M131 86q0 -35 24.5 -60.5t59.5 -25.5q36 0 61 25t25 61v893h320v-893q0 -35 24.5 -60.5t59.5 -25.5t60.5 25.5t25.5 60.5v1466q0 35 -25.5 60.5t-60.5 25.5h-490q-35 0 -59.5 -25.5t-24.5 -60.5v-1466zM301 1149v317h320v-317h-320zM354 1966q0 30 25 59l139 138 q21 24 60 24q35 0 60.5 -25.5t25.5 -60.5q0 -34 -25 -59l-139 -137q-24 -27 -58 -27q-35 0 -61.5 26.5t-26.5 61.5z" />
<glyph unicode="&#xc2;" d="M131 86v1466q0 35 24.5 60.5t59.5 25.5h490q35 0 60.5 -25.5t25.5 -60.5v-1466q0 -35 -25.5 -60.5t-60.5 -25.5t-59.5 25.5t-24.5 60.5v893h-320v-893q0 -36 -25 -61t-61 -25q-35 0 -59.5 25.5t-24.5 60.5zM238 1966q0 32 24 59l131 129q30 33 68 33q35 0 65 -33 l131 -129q25 -29 25 -59q0 -35 -26 -61.5t-60 -26.5q-35 0 -59 27l-78 75l-76 -75q-24 -27 -59 -27q-34 0 -60 26.5t-26 61.5zM301 1149h320v317h-320v-317z" />
<glyph unicode="&#xc3;" d="M131 86v1466q0 35 24.5 60.5t59.5 25.5h490q35 0 60.5 -25.5t25.5 -60.5v-1466q0 -35 -25.5 -60.5t-60.5 -25.5t-59.5 25.5t-24.5 60.5v893h-320v-893q0 -36 -25 -61t-61 -25q-35 0 -59.5 25.5t-24.5 60.5zM301 1149h320v317h-320v-317z" />
<glyph unicode="&#xc4;" d="M131 86v1466q0 35 24.5 60.5t59.5 25.5h490q35 0 60.5 -25.5t25.5 -60.5v-1466q0 -35 -25.5 -60.5t-60.5 -25.5t-59.5 25.5t-24.5 60.5v893h-320v-893q0 -36 -25 -61t-61 -25q-35 0 -59.5 25.5t-24.5 60.5zM184 1964q0 35 25.5 59.5t60.5 24.5t60.5 -24.5t25.5 -59.5 t-25.5 -60.5t-60.5 -25.5t-60.5 25.5t-25.5 60.5zM301 1149h320v317h-320v-317zM571 1964q0 35 24.5 59.5t59.5 24.5q37 0 61.5 -24.5t24.5 -59.5t-25.5 -60.5t-60.5 -25.5t-59.5 25.5t-24.5 60.5z" />
<glyph unicode="&#xc5;" d="M131 86v1466q0 35 24.5 60.5t59.5 25.5h490q35 0 60.5 -25.5t25.5 -60.5v-1466q0 -35 -25.5 -60.5t-60.5 -25.5t-59.5 25.5t-24.5 60.5v893h-320v-893q0 -36 -25 -61t-61 -25q-35 0 -59.5 25.5t-24.5 60.5zM301 1149h320v317h-320v-317z" />
<glyph unicode="&#xc6;" d="M131 86v1466q0 35 24.5 60.5t59.5 25.5h490h489q35 0 60.5 -25.5t25.5 -60.5t-25.5 -60.5t-60.5 -25.5h-403v-317h403q35 0 60.5 -25.5t25.5 -60.5t-25.5 -59.5t-60.5 -24.5h-403v-807h403q35 0 60.5 -25.5t25.5 -60.5t-25.5 -60.5t-60.5 -25.5h-489q-35 0 -59.5 25.5 t-24.5 60.5v893h-320v-893q0 -36 -25 -61t-61 -25q-35 0 -59.5 25.5t-24.5 60.5zM301 1149h320v317h-320v-317z" />
<glyph unicode="&#xc7;" d="M131 86v1466q0 35 24.5 60.5t59.5 25.5h490q35 0 60.5 -25.5t25.5 -60.5t-25.5 -60.5t-60.5 -25.5h-404v-1294h404q35 0 60.5 -25.5t25.5 -60.5t-25.5 -60.5t-60.5 -25.5h-115l-297 -297q-24 -27 -60 -27q-35 0 -60.5 26.5t-25.5 61.5q0 31 25 60l178 176h-135 q-35 0 -59.5 25.5t-24.5 60.5z" />
<glyph unicode="&#xc8;" d="M131 86v977v489q0 35 24.5 60.5t59.5 25.5h490q35 0 60.5 -25.5t25.5 -60.5t-25.5 -60.5t-60.5 -25.5h-404v-317h404q35 0 60.5 -25.5t25.5 -60.5t-25.5 -59.5t-60.5 -24.5h-404v-807h404q35 0 60.5 -25.5t25.5 -60.5t-25.5 -60.5t-60.5 -25.5h-490q-35 0 -59.5 25.5 t-24.5 60.5zM252 2101q0 35 26.5 60.5t61.5 25.5q36 0 57 -24l140 -138q24 -24 24 -59t-25.5 -61.5t-60.5 -26.5t-59 27l-140 137q-24 27 -24 59z" />
<glyph unicode="&#xc9;" d="M131 86q0 -35 24.5 -60.5t59.5 -25.5h490q35 0 60.5 25.5t25.5 60.5t-25.5 60.5t-60.5 25.5h-404v807h404q35 0 60.5 24.5t25.5 59.5t-25.5 60.5t-60.5 25.5h-404v317h404q35 0 60.5 25.5t25.5 60.5t-25.5 60.5t-60.5 25.5h-490q-35 0 -59.5 -25.5t-24.5 -60.5v-489v-977 zM354 1966q0 30 25 59l139 138q21 24 60 24q35 0 60.5 -25.5t25.5 -60.5q0 -34 -25 -59l-139 -137q-24 -27 -58 -27q-35 0 -61.5 26.5t-26.5 61.5z" />
<glyph unicode="&#xca;" d="M131 86v977v489q0 35 24.5 60.5t59.5 25.5h490q35 0 60.5 -25.5t25.5 -60.5t-25.5 -60.5t-60.5 -25.5h-404v-317h404q35 0 60.5 -25.5t25.5 -60.5t-25.5 -59.5t-60.5 -24.5h-404v-807h404q35 0 60.5 -25.5t25.5 -60.5t-25.5 -60.5t-60.5 -25.5h-490q-35 0 -59.5 25.5 t-24.5 60.5zM238 1966q0 32 24 59l131 129q30 33 68 33q35 0 65 -33l131 -129q25 -29 25 -59q0 -35 -26 -61.5t-60 -26.5q-35 0 -59 27l-78 75l-76 -75q-24 -27 -59 -27q-34 0 -60 26.5t-26 61.5z" />
<glyph unicode="&#xcb;" d="M131 86v977v489q0 35 24.5 60.5t59.5 25.5h490q35 0 60.5 -25.5t25.5 -60.5t-25.5 -60.5t-60.5 -25.5h-404v-317h404q35 0 60.5 -25.5t25.5 -60.5t-25.5 -59.5t-60.5 -24.5h-404v-807h404q35 0 60.5 -25.5t25.5 -60.5t-25.5 -60.5t-60.5 -25.5h-490q-35 0 -59.5 25.5 t-24.5 60.5zM184 1964q0 35 25.5 59.5t60.5 24.5t60.5 -24.5t25.5 -59.5t-25.5 -60.5t-60.5 -25.5t-60.5 25.5t-25.5 60.5zM571 1964q0 35 24.5 59.5t59.5 24.5q37 0 61.5 -24.5t24.5 -59.5t-25.5 -60.5t-60.5 -25.5t-59.5 25.5t-24.5 60.5z" />
<glyph unicode="&#xcc;" d="M131 86q0 35 25 60.5t59 25.5h160v1294h-160q-34 0 -59 25.5t-25 60.5t25 60.5t59 25.5h490q35 0 60.5 -25.5t25.5 -60.5t-25.5 -60.5t-60.5 -25.5h-158v-1294h158q35 0 60.5 -25.5t25.5 -60.5t-25.5 -60.5t-60.5 -25.5h-490q-34 0 -59 25.5t-25 60.5zM252 2101 q0 35 26.5 60.5t61.5 25.5q36 0 57 -24l140 -138q24 -24 24 -59t-25.5 -61.5t-60.5 -26.5t-59 27l-140 137q-24 27 -24 59z" />
<glyph unicode="&#xcd;" d="M131 86q0 -35 25 -60.5t59 -25.5h490q35 0 60.5 25.5t25.5 60.5t-25.5 60.5t-60.5 25.5h-158v1294h158q35 0 60.5 25.5t25.5 60.5t-25.5 60.5t-60.5 25.5h-490q-34 0 -59 -25.5t-25 -60.5t25 -60.5t59 -25.5h160v-1294h-160q-34 0 -59 -25.5t-25 -60.5zM375 1966 q0 32 24 59l140 138q21 24 59 24q35 0 60.5 -25.5t25.5 -60.5q0 -34 -25 -59l-139 -137q-24 -27 -57 -27q-35 0 -61.5 26.5t-26.5 61.5z" />
<glyph unicode="&#xce;" d="M131 86q0 35 25 60.5t59 25.5h160v1294h-160q-34 0 -59 25.5t-25 60.5t25 60.5t59 25.5h490q35 0 60.5 -25.5t25.5 -60.5t-25.5 -60.5t-60.5 -25.5h-158v-1294h158q35 0 60.5 -25.5t25.5 -60.5t-25.5 -60.5t-60.5 -25.5h-490q-34 0 -59 25.5t-25 60.5zM238 1966 q0 32 24 59l131 129q30 33 68 33q35 0 65 -33l131 -129q25 -29 25 -59q0 -35 -26 -61.5t-60 -26.5q-35 0 -59 27l-78 75l-76 -75q-24 -27 -59 -27q-34 0 -60 26.5t-26 61.5z" />
<glyph unicode="&#xcf;" d="M131 86q0 35 25 60.5t59 25.5h160v1294h-160q-34 0 -59 25.5t-25 60.5t25 60.5t59 25.5h490q35 0 60.5 -25.5t25.5 -60.5t-25.5 -60.5t-60.5 -25.5h-158v-1294h158q35 0 60.5 -25.5t25.5 -60.5t-25.5 -60.5t-60.5 -25.5h-490q-34 0 -59 25.5t-25 60.5zM184 1964 q0 35 25.5 59.5t60.5 24.5t60.5 -24.5t25.5 -59.5t-25.5 -60.5t-60.5 -25.5t-60.5 25.5t-25.5 60.5zM571 1964q0 35 24.5 59.5t59.5 24.5q37 0 61.5 -24.5t24.5 -59.5t-25.5 -60.5t-60.5 -25.5t-59.5 25.5t-24.5 60.5z" />
<glyph unicode="&#xd0;" horiz-adv-x="1056" />
<glyph unicode="&#xd1;" d="M131 86v1466q0 35 25 60.5t59 25.5q28 0 51.5 -16.5t30.5 -42.5l324 -967v940q-1 35 24 60.5t60 25.5t60.5 -25.5t25.5 -60.5v-1466q0 -35 -25.5 -60.5t-60.5 -25.5q-27 0 -50 17t-32 44l-322 965v-940q0 -35 -25.5 -60.5t-60.5 -25.5q-34 0 -59 25.5t-25 60.5zM197 1962 q0 35 25.5 60.5t60.5 25.5h364q35 0 60.5 -25.5t25.5 -60.5t-25.5 -60.5t-60.5 -25.5h-364q-35 0 -60.5 25.5t-25.5 60.5z" />
<glyph unicode="&#xd2;" d="M131 86v1466q0 35 24.5 60.5t59.5 25.5h490q35 0 60.5 -25.5t25.5 -60.5v-1466q0 -35 -25.5 -60.5t-60.5 -25.5h-490q-35 0 -59.5 25.5t-24.5 60.5zM252 2101q0 35 26.5 60.5t61.5 25.5q36 0 57 -24l140 -138q24 -24 24 -59t-25.5 -61.5t-60.5 -26.5t-59 27l-140 137 q-24 27 -24 59zM301 172h320v1294h-320v-1294z" />
<glyph unicode="&#xd3;" d="M131 86q0 -35 24.5 -60.5t59.5 -25.5h490q35 0 60.5 25.5t25.5 60.5v1466q0 35 -25.5 60.5t-60.5 25.5h-490q-35 0 -59.5 -25.5t-24.5 -60.5v-1466zM301 172v1294h320v-1294h-320zM375 1966q0 32 24 59l140 138q21 24 59 24q35 0 60.5 -25.5t25.5 -60.5q0 -34 -25 -59 l-139 -137q-24 -27 -57 -27q-35 0 -61.5 26.5t-26.5 61.5z" />
<glyph unicode="&#xd4;" d="M131 86v1466q0 35 24.5 60.5t59.5 25.5h490q35 0 60.5 -25.5t25.5 -60.5v-1466q0 -35 -25.5 -60.5t-60.5 -25.5h-490q-35 0 -59.5 25.5t-24.5 60.5zM238 1966q0 32 24 59l131 129q30 33 68 33q35 0 65 -33l131 -129q25 -29 25 -59q0 -35 -26 -61.5t-60 -26.5 q-35 0 -59 27l-78 75l-76 -75q-24 -27 -59 -27q-34 0 -60 26.5t-26 61.5zM301 172h320v1294h-320v-1294z" />
<glyph unicode="&#xd5;" d="M131 86v1466q0 35 24.5 60.5t59.5 25.5h490q35 0 60.5 -25.5t25.5 -60.5v-1466q0 -35 -25.5 -60.5t-60.5 -25.5h-490q-35 0 -59.5 25.5t-24.5 60.5zM301 172h320v1294h-320v-1294z" />
<glyph unicode="&#xd6;" d="M131 86v1466q0 35 24.5 60.5t59.5 25.5h490q35 0 60.5 -25.5t25.5 -60.5v-1466q0 -35 -25.5 -60.5t-60.5 -25.5h-490q-35 0 -59.5 25.5t-24.5 60.5zM184 1964q0 35 25.5 59.5t60.5 24.5t60.5 -24.5t25.5 -59.5t-25.5 -60.5t-60.5 -25.5t-60.5 25.5t-25.5 60.5zM301 172 h320v1294h-320v-1294zM571 1964q0 35 24.5 59.5t59.5 24.5q37 0 61.5 -24.5t24.5 -59.5t-25.5 -60.5t-60.5 -25.5t-59.5 25.5t-24.5 60.5z" />
<glyph unicode="&#xd7;" horiz-adv-x="1056" />
<glyph unicode="&#xd8;" horiz-adv-x="1056" />
<glyph unicode="&#xd9;" d="M131 86v1466q0 35 24.5 60.5t59.5 25.5q36 0 61 -25t25 -61v-1380h320v1380q0 35 24.5 60.5t59.5 25.5t60.5 -25.5t25.5 -60.5v-1466q0 -35 -25.5 -60.5t-60.5 -25.5h-490q-35 0 -59.5 25.5t-24.5 60.5zM252 2101q0 35 26.5 60.5t61.5 25.5q36 0 57 -24l140 -138 q24 -24 24 -59t-25.5 -61.5t-60.5 -26.5t-59 27l-140 137q-24 27 -24 59z" />
<glyph unicode="&#xda;" d="M131 86q0 -35 24.5 -60.5t59.5 -25.5h490q35 0 60.5 25.5t25.5 60.5v1466q0 35 -25.5 60.5t-60.5 25.5t-59.5 -25.5t-24.5 -60.5v-1380h-320v1380q0 36 -25 61t-61 25q-35 0 -59.5 -25.5t-24.5 -60.5v-1466zM375 1966q0 32 24 59l140 138q21 24 59 24q35 0 60.5 -25.5 t25.5 -60.5q0 -34 -25 -59l-139 -137q-24 -27 -57 -27q-35 0 -61.5 26.5t-26.5 61.5z" />
<glyph unicode="&#xdb;" d="M131 86v1466q0 35 24.5 60.5t59.5 25.5q36 0 61 -25t25 -61v-1380h320v1380q0 35 24.5 60.5t59.5 25.5t60.5 -25.5t25.5 -60.5v-1466q0 -35 -25.5 -60.5t-60.5 -25.5h-490q-35 0 -59.5 25.5t-24.5 60.5zM238 1966q0 32 24 59l131 129q30 33 68 33q35 0 65 -33l131 -129 q25 -29 25 -59q0 -35 -26 -61.5t-60 -26.5q-35 0 -59 27l-78 75l-76 -75q-24 -27 -59 -27q-34 0 -60 26.5t-26 61.5z" />
<glyph unicode="&#xdc;" d="M131 86v1466q0 35 24.5 60.5t59.5 25.5q36 0 61 -25t25 -61v-1380h320v1380q0 35 24.5 60.5t59.5 25.5t60.5 -25.5t25.5 -60.5v-1466q0 -35 -25.5 -60.5t-60.5 -25.5h-490q-35 0 -59.5 25.5t-24.5 60.5zM184 1964q0 35 25.5 59.5t60.5 24.5t60.5 -24.5t25.5 -59.5 t-25.5 -60.5t-60.5 -25.5t-60.5 25.5t-25.5 60.5zM571 1964q0 35 24.5 59.5t59.5 24.5q37 0 61.5 -24.5t24.5 -59.5t-25.5 -60.5t-60.5 -25.5t-59.5 25.5t-24.5 60.5z" />
<glyph unicode="&#xdd;" horiz-adv-x="1056" />
<glyph unicode="&#xde;" horiz-adv-x="1056" />
<glyph unicode="&#xdf;" horiz-adv-x="1056" />
<glyph unicode="&#xe0;" d="M131 86v489q0 35 24.5 59.5t59.5 24.5h406v320h-406q-35 0 -59.5 24.5t-24.5 59.5t24.5 60.5t59.5 25.5h490q35 0 60.5 -25.5t25.5 -60.5v-488v-489q0 -35 -25.5 -60.5t-60.5 -25.5h-490q-35 0 -59.5 25.5t-24.5 60.5zM293 1692q0 35 26.5 60.5t61.5 25.5t57 -25 l140 -137q24 -24 24 -60q0 -35 -25.5 -61.5t-60.5 -26.5t-59 27l-140 137q-24 27 -24 60zM301 172h320v317h-320v-317z" />
<glyph unicode="&#xe1;" d="M131 86q0 -35 24.5 -60.5t59.5 -25.5h490q35 0 60.5 25.5t25.5 60.5v489v488q0 35 -25.5 60.5t-60.5 25.5h-490q-35 0 -59.5 -25.5t-24.5 -60.5t24.5 -59.5t59.5 -24.5h406v-320h-406q-35 0 -59.5 -24.5t-24.5 -59.5v-489zM301 172v317h320v-317h-320zM354 1556 q0 31 25 60l139 137q22 25 60 25q35 0 60.5 -25.5t25.5 -60.5t-25 -60l-139 -137q-24 -27 -58 -27q-35 0 -61.5 26.5t-26.5 61.5z" />
<glyph unicode="&#xe2;" d="M131 86v489q0 35 24.5 59.5t59.5 24.5h406v320h-406q-35 0 -59.5 24.5t-24.5 59.5t24.5 60.5t59.5 25.5h490q35 0 60.5 -25.5t25.5 -60.5v-488v-489q0 -35 -25.5 -60.5t-60.5 -25.5h-490q-35 0 -59.5 25.5t-24.5 60.5zM238 1556q0 33 24 60l131 129q30 33 68 33 q35 0 65 -33l131 -129q25 -29 25 -60q0 -35 -26 -61.5t-60 -26.5q-35 0 -59 27l-78 76l-76 -76q-24 -27 -59 -27q-34 0 -60 26.5t-26 61.5zM301 172h320v317h-320v-317z" />
<glyph unicode="&#xe3;" d="M131 86v489q0 35 24.5 59.5t59.5 24.5h406v320h-406q-35 0 -59.5 24.5t-24.5 59.5t24.5 60.5t59.5 25.5h490q35 0 60.5 -25.5t25.5 -60.5v-488v-489q0 -35 -25.5 -60.5t-60.5 -25.5h-490q-35 0 -59.5 25.5t-24.5 60.5zM197 1552q0 35 25.5 60.5t60.5 25.5h364 q35 0 60.5 -25.5t25.5 -60.5t-25.5 -60.5t-60.5 -25.5h-364q-35 0 -60.5 25.5t-25.5 60.5zM301 172h320v317h-320v-317z" />
<glyph unicode="&#xe4;" d="M131 86v489q0 35 24.5 59.5t59.5 24.5h406v320h-406q-35 0 -59.5 24.5t-24.5 59.5t24.5 60.5t59.5 25.5h490q35 0 60.5 -25.5t25.5 -60.5v-488v-489q0 -35 -25.5 -60.5t-60.5 -25.5h-490q-35 0 -59.5 25.5t-24.5 60.5zM184 1554q0 35 25.5 59.5t60.5 24.5t60.5 -24.5 t25.5 -59.5t-25.5 -60.5t-60.5 -25.5t-60.5 25.5t-25.5 60.5zM301 172h320v317h-320v-317zM571 1554q0 35 24.5 59.5t59.5 24.5q37 0 61.5 -24.5t24.5 -59.5t-25.5 -60.5t-60.5 -25.5t-59.5 25.5t-24.5 60.5z" />
<glyph unicode="&#xe5;" d="M131 86v489q0 35 24.5 59.5t59.5 24.5h406v320h-406q-35 0 -59.5 24.5t-24.5 59.5t24.5 60.5t59.5 25.5h490q35 0 60.5 -25.5t25.5 -60.5v-488v-489q0 -35 -25.5 -60.5t-60.5 -25.5h-490q-35 0 -59.5 25.5t-24.5 60.5zM301 172h320v317h-320v-317z" />
<glyph unicode="&#xe6;" d="M131 86v489q0 35 24.5 59.5t59.5 24.5h406v320h-406q-35 0 -59.5 24.5t-24.5 59.5t24.5 60.5t59.5 25.5h490h489q35 0 60.5 -25.5t25.5 -60.5v-488q0 -35 -25.5 -60.5t-60.5 -25.5h-403v-317h403q35 0 60.5 -25.5t25.5 -60.5t-25.5 -60.5t-60.5 -25.5h-489h-490 q-35 0 -59.5 25.5t-24.5 60.5zM301 172h320v317h-320v-317zM791 659h317v320h-317v-320z" />
<glyph unicode="&#xe7;" d="M131 86v979q0 35 24.5 60.5t59.5 25.5h490q35 0 60.5 -25.5t25.5 -60.5t-25.5 -60.5t-60.5 -25.5h-404v-807h404q35 0 60.5 -25.5t25.5 -60.5t-25.5 -60.5t-60.5 -25.5h-115l-297 -297q-24 -27 -60 -27q-35 0 -60.5 26.5t-25.5 61.5q0 31 25 60l178 176h-135 q-35 0 -59.5 25.5t-24.5 60.5z" />
<glyph unicode="&#xe8;" d="M131 86v489v488q0 35 24.5 60.5t59.5 25.5h490q35 0 60.5 -25.5t25.5 -60.5v-488q0 -35 -25.5 -60.5t-60.5 -25.5h-404v-317h404q35 0 60.5 -25.5t25.5 -60.5t-25.5 -60.5t-60.5 -25.5h-490q-35 0 -59.5 25.5t-24.5 60.5zM293 1692q0 35 26.5 60.5t61.5 25.5t57 -25 l140 -137q24 -24 24 -60q0 -35 -25.5 -61.5t-60.5 -26.5t-59 27l-140 137q-24 27 -24 60zM301 659h320v320h-320v-320z" />
<glyph unicode="&#xe9;" d="M131 86q0 -35 24.5 -60.5t59.5 -25.5h490q35 0 60.5 25.5t25.5 60.5t-25.5 60.5t-60.5 25.5h-404v317h404q35 0 60.5 25.5t25.5 60.5v488q0 35 -25.5 60.5t-60.5 25.5h-490q-35 0 -59.5 -25.5t-24.5 -60.5v-488v-489zM301 659v320h320v-320h-320zM354 1556q0 31 25 60 l139 137q22 25 60 25q35 0 60.5 -25.5t25.5 -60.5t-25 -60l-139 -137q-24 -27 -58 -27q-35 0 -61.5 26.5t-26.5 61.5z" />
<glyph unicode="&#xea;" d="M131 86v489v488q0 35 24.5 60.5t59.5 25.5h490q35 0 60.5 -25.5t25.5 -60.5v-488q0 -35 -25.5 -60.5t-60.5 -25.5h-404v-317h404q35 0 60.5 -25.5t25.5 -60.5t-25.5 -60.5t-60.5 -25.5h-490q-35 0 -59.5 25.5t-24.5 60.5zM217 1556q0 31 25 60l131 129q30 33 67 33 q36 0 66 -33l131 -129q25 -29 25 -60q0 -35 -26.5 -61.5t-60.5 -26.5q-35 0 -59 27l-78 76l-76 -76q-24 -27 -59 -27q-34 0 -60 26.5t-26 61.5zM301 659h320v320h-320v-320z" />
<glyph unicode="&#xeb;" d="M131 86v489v488q0 35 24.5 60.5t59.5 25.5h490q35 0 60.5 -25.5t25.5 -60.5v-488q0 -35 -25.5 -60.5t-60.5 -25.5h-404v-317h404q35 0 60.5 -25.5t25.5 -60.5t-25.5 -60.5t-60.5 -25.5h-490q-35 0 -59.5 25.5t-24.5 60.5zM184 1554q0 35 25.5 59.5t60.5 24.5t60.5 -24.5 t25.5 -59.5t-25.5 -60.5t-60.5 -25.5t-60.5 25.5t-25.5 60.5zM301 659h320v320h-320v-320zM571 1554q0 35 24.5 59.5t59.5 24.5q37 0 61.5 -24.5t24.5 -59.5t-25.5 -60.5t-60.5 -25.5t-59.5 25.5t-24.5 60.5z" />
<glyph unicode="&#xec;" horiz-adv-x="434" d="M-2 1556q0 35 22 60l132 129q26 33 67 33q42 0 68 -33l129 -129q24 -24 24 -60q0 -35 -25.5 -61.5t-60.5 -26.5q-32 0 -59 27l-76 76l-78 -76q-24 -27 -59 -27q-34 0 -59 26.5t-25 61.5zM131 86v979q0 35 25.5 60.5t60.5 25.5t59.5 -25.5t24.5 -60.5v-979 q0 -35 -24.5 -60.5t-59.5 -25.5t-60.5 25.5t-25.5 60.5z" />
<glyph unicode="&#xed;" horiz-adv-x="434" d="M129 1556q0 31 25 60l139 137q22 25 59 25q35 0 60.5 -25.5t25.5 -60.5q0 -36 -24 -60l-140 -137q-24 -27 -57 -27q-35 0 -61.5 26.5t-26.5 61.5zM131 86q0 -35 25.5 -60.5t60.5 -25.5t59.5 25.5t24.5 60.5v979q0 35 -24.5 60.5t-59.5 25.5t-60.5 -25.5t-25.5 -60.5v-979 z" />
<glyph unicode="&#xee;" horiz-adv-x="434" d="M-6 1556q0 35 22 60l131 129q30 33 68 33q36 0 66 -33l131 -129q24 -27 24 -60q0 -35 -26 -61.5t-60 -26.5q-35 0 -59 27l-78 76l-76 -76q-24 -27 -59 -27q-34 0 -59 26.5t-25 61.5zM131 86v979q0 35 25.5 60.5t60.5 25.5t59.5 -25.5t24.5 -60.5v-979q0 -35 -24.5 -60.5 t-59.5 -25.5t-60.5 25.5t-25.5 60.5z" />
<glyph unicode="&#xef;" horiz-adv-x="434" d="M0 1554q0 35 25.5 59.5t60.5 24.5t60.5 -24.5t25.5 -59.5t-25.5 -60.5t-60.5 -25.5t-60.5 25.5t-25.5 60.5zM131 86v979q0 35 25.5 60.5t60.5 25.5t59.5 -25.5t24.5 -60.5v-979q0 -35 -24.5 -60.5t-59.5 -25.5t-60.5 25.5t-25.5 60.5zM264 1554q0 35 24.5 59.5t59.5 24.5 q37 0 61.5 -24.5t24.5 -59.5t-25.5 -60.5t-60.5 -25.5t-59.5 25.5t-24.5 60.5z" />
<glyph unicode="&#xf0;" horiz-adv-x="1056" />
<glyph unicode="&#xf1;" d="M131 86v979q0 36 25 61t61 25h488q36 0 61 -25t25 -61v-979q0 -36 -25 -61t-61 -25q-35 0 -59.5 25.5t-24.5 60.5v893h-320v-893q0 -35 -24.5 -60.5t-59.5 -25.5q-36 0 -61 25t-25 61zM197 1552q0 35 25.5 60.5t60.5 25.5h364q35 0 60.5 -25.5t25.5 -60.5t-25.5 -60.5 t-60.5 -25.5h-364q-35 0 -60.5 25.5t-25.5 60.5z" />
<glyph unicode="&#xf2;" d="M131 86v979q0 36 25 61t61 25h488q36 0 61 -25t25 -61v-979q0 -36 -25 -61t-61 -25h-488q-36 0 -61 25t-25 61zM293 1692q0 35 26.5 60.5t61.5 25.5t57 -25l140 -137q24 -24 24 -60q0 -35 -25.5 -61.5t-60.5 -26.5t-59 27l-140 137q-24 27 -24 60zM301 172h320v807h-320 v-807z" />
<glyph unicode="&#xf3;" d="M131 86q0 -36 25 -61t61 -25h488q36 0 61 25t25 61v979q0 36 -25 61t-61 25h-488q-36 0 -61 -25t-25 -61v-979zM301 172v807h320v-807h-320zM354 1556q0 31 25 60l139 137q22 25 60 25q35 0 60.5 -25.5t25.5 -60.5t-25 -60l-139 -137q-24 -27 -58 -27q-35 0 -61.5 26.5 t-26.5 61.5z" />
<glyph unicode="&#xf4;" d="M131 86v979q0 36 25 61t61 25h488q36 0 61 -25t25 -61v-979q0 -36 -25 -61t-61 -25h-488q-36 0 -61 25t-25 61zM238 1556q0 33 24 60l131 129q30 33 68 33q35 0 65 -33l131 -129q25 -29 25 -60q0 -35 -26 -61.5t-60 -26.5q-35 0 -59 27l-78 76l-76 -76q-24 -27 -59 -27 q-34 0 -60 26.5t-26 61.5zM301 172h320v807h-320v-807z" />
<glyph unicode="&#xf5;" d="M131 86v979q0 36 25 61t61 25h488q36 0 61 -25t25 -61v-979q0 -36 -25 -61t-61 -25h-488q-36 0 -61 25t-25 61zM197 1552q0 35 25.5 60.5t60.5 25.5h364q35 0 60.5 -25.5t25.5 -60.5t-25.5 -60.5t-60.5 -25.5h-364q-35 0 -60.5 25.5t-25.5 60.5zM301 172h320v807h-320 v-807z" />
<glyph unicode="&#xf6;" d="M131 86v979q0 36 25 61t61 25h488q36 0 61 -25t25 -61v-979q0 -36 -25 -61t-61 -25h-488q-36 0 -61 25t-25 61zM184 1554q0 35 25.5 59.5t60.5 24.5t60.5 -24.5t25.5 -59.5t-25.5 -60.5t-60.5 -25.5t-60.5 25.5t-25.5 60.5zM301 172h320v807h-320v-807zM571 1554 q0 35 24.5 59.5t59.5 24.5q37 0 61.5 -24.5t24.5 -59.5t-25.5 -60.5t-60.5 -25.5t-59.5 25.5t-24.5 60.5z" />
<glyph unicode="&#xf7;" horiz-adv-x="1056" />
<glyph unicode="&#xf8;" horiz-adv-x="1056" />
<glyph unicode="&#xf9;" d="M131 86v979q0 36 25 61t61 25q35 0 59.5 -25.5t24.5 -60.5v-893h320v893q0 35 24.5 60.5t59.5 25.5q36 0 61 -25t25 -61v-979q0 -36 -25 -61t-61 -25h-488q-36 0 -61 25t-25 61zM272 1692q0 35 26.5 60.5t61.5 25.5q36 0 58 -25l139 -137q25 -25 25 -60t-25.5 -61.5 t-60.5 -26.5q-36 0 -60 27l-139 137q-25 29 -25 60z" />
<glyph unicode="&#xfa;" d="M131 86q0 -36 25 -61t61 -25h488q36 0 61 25t25 61v979q0 36 -25 61t-61 25q-35 0 -59.5 -25.5t-24.5 -60.5v-893h-320v893q0 35 -24.5 60.5t-59.5 25.5q-36 0 -61 -25t-25 -61v-979zM354 1556q0 31 25 60l139 137q22 25 60 25q35 0 60.5 -25.5t25.5 -60.5t-25 -60 l-139 -137q-24 -27 -58 -27q-35 0 -61.5 26.5t-26.5 61.5z" />
<glyph unicode="&#xfb;" d="M131 86v979q0 36 25 61t61 25q35 0 59.5 -25.5t24.5 -60.5v-893h320v893q0 35 24.5 60.5t59.5 25.5q36 0 61 -25t25 -61v-979q0 -36 -25 -61t-61 -25h-488q-36 0 -61 25t-25 61zM238 1556q0 33 24 60l131 129q30 33 68 33q35 0 65 -33l131 -129q25 -29 25 -60 q0 -35 -26 -61.5t-60 -26.5q-35 0 -59 27l-78 76l-76 -76q-24 -27 -59 -27q-34 0 -60 26.5t-26 61.5z" />
<glyph unicode="&#xfc;" d="M131 86v979q0 36 25 61t61 25q35 0 59.5 -25.5t24.5 -60.5v-893h320v893q0 35 24.5 60.5t59.5 25.5q36 0 61 -25t25 -61v-979q0 -36 -25 -61t-61 -25h-488q-36 0 -61 25t-25 61zM184 1554q0 35 25.5 59.5t60.5 24.5t60.5 -24.5t25.5 -59.5t-25.5 -60.5t-60.5 -25.5 t-60.5 25.5t-25.5 60.5zM571 1554q0 35 24.5 59.5t59.5 24.5q37 0 61.5 -24.5t24.5 -59.5t-25.5 -60.5t-60.5 -25.5t-59.5 25.5t-24.5 60.5z" />
<glyph unicode="&#xfd;" horiz-adv-x="1056" />
<glyph unicode="&#xfe;" horiz-adv-x="1056" />
<glyph unicode="&#xff;" horiz-adv-x="1056" />
<glyph unicode="&#x152;" d="M131 86v1466q0 35 24.5 60.5t59.5 25.5h979q35 0 60.5 -25.5t25.5 -60.5t-25.5 -60.5t-60.5 -25.5h-403v-317h403q35 0 60.5 -25.5t25.5 -60.5t-25.5 -59.5t-60.5 -24.5h-403v-807h403q35 0 60.5 -25.5t25.5 -60.5t-25.5 -60.5t-60.5 -25.5h-979q-35 0 -59.5 25.5 t-24.5 60.5zM301 172h317v1294h-317v-1294z" />
<glyph unicode="&#x153;" d="M131 86v979q0 35 24.5 59.5t61.5 24.5h977q35 0 60.5 -25.5t25.5 -60.5v-488q0 -35 -25.5 -60.5t-60.5 -25.5h-403v-317h403q35 0 60.5 -25.5t25.5 -60.5t-25.5 -60.5t-60.5 -25.5h-977q-36 0 -61 25t-25 61zM301 172h320v807h-320v-807zM791 659h319v320h-319v-320z" />
<glyph unicode="&#x178;" horiz-adv-x="1056" />
<glyph unicode="&#x2c6;" horiz-adv-x="1056" />
<glyph unicode="&#x2dc;" horiz-adv-x="1056" />
<glyph unicode="&#x2000;" horiz-adv-x="1093" />
<glyph unicode="&#x2001;" horiz-adv-x="2187" />
<glyph unicode="&#x2002;" horiz-adv-x="1093" />
<glyph unicode="&#x2003;" horiz-adv-x="2187" />
<glyph unicode="&#x2004;" horiz-adv-x="729" />
<glyph unicode="&#x2005;" horiz-adv-x="546" />
<glyph unicode="&#x2006;" horiz-adv-x="364" />
<glyph unicode="&#x2007;" horiz-adv-x="364" />
<glyph unicode="&#x2008;" horiz-adv-x="273" />
<glyph unicode="&#x2009;" horiz-adv-x="437" />
<glyph unicode="&#x200a;" horiz-adv-x="121" />
<glyph unicode="&#x2010;" horiz-adv-x="1056" />
<glyph unicode="&#x2011;" horiz-adv-x="1056" />
<glyph unicode="&#x2012;" horiz-adv-x="1056" />
<glyph unicode="&#x2013;" horiz-adv-x="1056" />
<glyph unicode="&#x2014;" horiz-adv-x="1056" />
<glyph unicode="&#x2018;" horiz-adv-x="1056" />
<glyph unicode="&#x2019;" horiz-adv-x="1056" />
<glyph unicode="&#x201a;" horiz-adv-x="1056" />
<glyph unicode="&#x201c;" horiz-adv-x="1056" />
<glyph unicode="&#x201d;" horiz-adv-x="1056" />
<glyph unicode="&#x201e;" horiz-adv-x="1056" />
<glyph unicode="&#x2022;" horiz-adv-x="1056" />
<glyph unicode="&#x2026;" horiz-adv-x="1056" />
<glyph unicode="&#x202f;" horiz-adv-x="437" />
<glyph unicode="&#x2039;" horiz-adv-x="1056" />
<glyph unicode="&#x203a;" horiz-adv-x="1056" />
<glyph unicode="&#x205f;" horiz-adv-x="546" />
<glyph unicode="&#x20ac;" horiz-adv-x="1056" />
<glyph unicode="&#x2122;" horiz-adv-x="1056" />
<glyph unicode="&#x25fc;" horiz-adv-x="1146" d="M0 0v1147h1147v-1147h-1147z" />
</font>
</defs>
</svg>
