<?xml version="1.0" standalone="no"?>
<!DOCTYPE svg PUBLIC "-//W3C//DTD SVG 1.1//EN" "http://www.w3.org/Graphics/SVG/1.1/DTD/svg11.dtd" >
<svg xmlns="http://www.w3.org/2000/svg">
<metadata></metadata>
<defs>
<font id="dissonantfractured" horiz-adv-x="1024" >
<font-face units-per-em="2048" ascent="1638" descent="-410" />
<missing-glyph horiz-adv-x="500" />
<glyph horiz-adv-x="0" />
<glyph unicode="&#xd;" />
<glyph unicode=" " />
<glyph unicode="!" horiz-adv-x="573" d="M184 1128v70q0 113 5.5 174.5t25.5 143.5q166 0 206 -30t71 -175q2 -10 21 -23.5t19 -27.5q0 -94 -112.5 -231.5t-112.5 -219.5q0 -55 80 -166q18 -25 64 -80v-123q-63 0 -96 21.5t-58 40.5q-6 -23 -12 -49.5t-19 -63.5l-10 41v563q-49 39 -60.5 60.5t-11.5 74.5z M225 102q0 43 9.5 71t31.5 73q8 -2 13.5 -3t11.5 -1q27 0 37 -4q14 4 30 8q10 0 21.5 -14.5t19.5 -16.5l82 21l41 -21q-10 -68 -24.5 -86t-55.5 -18h-39.5t-44.5 2q2 -10 6.5 -32t4.5 -36q0 -10 -3.5 -29.5t-7.5 -46.5q-68 23 -92 41q-41 31 -41 92z" />
<glyph unicode="&#x22;" horiz-adv-x="829" d="M61 1362q20 123 60.5 158.5t165.5 35.5q14 0 32.5 -8t28.5 -12q-10 -27 -35.5 -41t-36.5 -41l93 -51q-27 -143 -54 -221q-35 -98 -110 -199v307l-41 92q-20 -12 -45 -12h-25.5t-32.5 -8zM471 1372q14 92 51 107q90 37 133 77q10 6 27 7q16 0 39.5 -6.5t36.5 -10.5 q-10 -33 -29 -65q-25 -47 -33 -68h82q-27 -143 -53 -221q-35 -98 -111 -199l21 369l-31 51q-25 -14 -68.5 -23.5t-64.5 -17.5z" />
<glyph unicode="'" horiz-adv-x="471" d="M133 1372q20 123 60 159t165 36q14 0 33 -8.5t29 -12.5q-10 -33 -29 -65q-25 -47 -33 -68h82q-27 -143 -53 -221q-35 -98 -111 -199v369l-20 72q-45 -25 -64.5 -35t-58.5 -27z" />
<glyph unicode="*" horiz-adv-x="1208" d="M-72 881q25 0 89.5 -5.5t78.5 -5.5q55 0 76 9.5t48.5 51.5t55.5 42q16 0 86 -47q39 -29 78 -56q8 8 24.5 41t16.5 41q0 10 -10 11q-10 0 -27.5 -5.5t-23.5 -5.5l-51 113q-18 47 -31 106q-2 4 -31 191l185 82q31 -53 56 -170t25 -189q0 -20 -25.5 -45.5t-25.5 -46.5 q4 -41 10 -82q31 -6 62 -10l82 82q59 47 106 115q57 80 119 233q82 -27 176 -112q50 -48 101 -93q-51 -82 -195 -153q-115 -59 -246 -92l-41 -31q164 -37 252 -66q174 -57 199 -118v-164q-14 -2 -38 -11.5t-34 -9.5q-35 0 -67 64q-10 18 -35 90l-72 -62q-47 0 -94 37 q-111 86 -162 86q-78 0 -141 -184q-53 -207 -64 -246q-57 23 -112 45q-61 31 -62 95q0 39 3 62.5t7 53.5q119 0 166 99q29 63 60 127q-23 20 -35 34q-12 4 -37 17q-29 -57 -47 -90q-35 -63 -66 -64q-102 0 -114.5 66.5t-38.5 97.5q-18 20 -46 27.5t-71 7.5q-18 0 -52 -2 t-46 -2z" />
<glyph unicode="+" horiz-adv-x="2048" />
<glyph unicode="," horiz-adv-x="409" d="M-20 -348l10 41q59 47 100 86q115 111 115 201q0 55 -74 96q-45 25 -121 47q57 82 97 128t67 46q53 0 105 -66q76 -98 90 -108q-27 -55 -41.5 -182t-20.5 -166q-76 0 -137 -41t-119 -82h-71z" />
<glyph unicode="-" horiz-adv-x="829" d="M123 717v133q12 2 55 2h29q14 0 35.5 1t38 6t86.5 73q31 31 43 31q23 0 41 -19.5t41 -42.5q12 -4 44.5 -1t65.5 7q29 0 33 -6q20 -23 49 -65q10 -15 104 -48q-23 -20 -34 -24t-37 -57q-59 25 -144 36q-127 18 -148.5 23.5t-46 24t-40.5 18.5q-37 0 -115 -39 q-51 -27 -100 -53z" />
<glyph unicode="." horiz-adv-x="348" d="M51 133q0 31 72 128t102 97q14 0 32.5 -9t29.5 -11q6 -49 6 -86q0 -39 -6 -98h-103l-10 -103q-35 16 -70 33q-53 29 -53 49z" />
<glyph unicode="0" horiz-adv-x="1044" d="M143 764v475q86 145 115 178q76 84 301 84h229q4 -29 18.5 -84t22.5 -55q10 0 23.5 5t17.5 5q43 0 54 -63q4 -31 8 -60q20 -113 25.5 -291t5.5 -221q0 -223 -7 -303q-12 -156 -55 -280q-12 -43 -22 -86q-18 -47 -70 -48q-29 0 -60.5 7.5t-52.5 13.5h-348 q-51 20 -61.5 38.5t-20.5 94.5v590h-123zM348 430q0 -92 88 -137q117 -41 168 -68q92 139 105 162q70 121 69 186q0 51 -15 53.5t-15 39.5q0 33 51 90t51 94q-27 45 -49.5 88t-22.5 72q0 43 14.5 90t16.5 67q8 78 -154 107q-113 12 -225 26l-20 -71v-441 q-37 -66 -49.5 -156.5t-12.5 -201.5zM512 655q16 127 16 131q12 61 56 115l82 -61q-14 -14 -22.5 -23.5t-8.5 -15.5q0 -2 -51 -23l10 -41v-92z" />
<glyph unicode="1" horiz-adv-x="942" d="M51 1290q0 76 52.5 101.5t146.5 25.5q25 0 76 -2t73 -2q8 45 21.5 89t19.5 65q31 -31 70 -107q33 -66 84 -98q33 -16 59 -29q53 -27 54 -33q0 -72 -39 -170q-57 -145 -115 -290q-8 -47 -8 -107q0 -25 2 -77t2 -76q0 -35 -1 -72t-1 -76q0 -43 2 -63q66 37 154 65.5 t178 46.5q-4 -41 -8.5 -88t-22.5 -106h-133v10l-62 -154q-10 2 -61 2t-82 2q-55 0 -172 -2t-166 -2v82l10 51h215q0 55 19 107q27 74 53 149l-82 11q25 158 45 266q29 156 58 256q6 25 28.5 62.5t22.5 70.5q0 47 -33 100q-25 39 -70 84q-55 -63 -96 -104q-78 -80 -108 -80 q-29 0 -101 31q-84 37 -84 61z" />
<glyph unicode="2" horiz-adv-x="1126" d="M31 1055q0 123 63 227q74 121 189 121q29 0 98 -21q35 -10 59 -10q14 0 61.5 77t71.5 77q59 0 63.5 -113t19 -133t32.5 -20q8 0 18.5 -1.5t10.5 -50.5q0 -55 -21 -141q-29 -119 -30 -135q-29 -221 -43 -330q-27 -193 -70 -326q-8 -27 -50 -53t-42 -59q0 -10 10 -22.5 t10 -18.5h103q49 8 53 23.5t59 27.5q20 4 148 55q92 37 170 37q18 0 35.5 -10t35.5 -20v-164l-839 -31v10l-51 133q61 51 122 103q18 41 21.5 137t9.5 129q41 190 164 338q10 12 47 41q55 43 55 88q0 70 -108 156q-127 84 -158 104l-82 61q-14 0 -32.5 -9t-28.5 -11 q0 -61 -31 -191q-16 -70 -16 -118l59 -4v-17l90 -8h-235q2 12 -19.5 39t-21.5 33z" />
<glyph unicode="3" horiz-adv-x="880" d="M41 123q8 31 18 57q4 10 23 56q53 -27 82 -39.5t51 -12.5q72 0 101.5 79t53 85t54.5 6q25 0 52.5 -2t55.5 -4v103q-29 84 -49 129q-39 86 -94 86q-25 0 -39 -3.5t-33 -7.5h-51v154q6 10 39 0t43 -10q14 0 28.5 30.5t29.5 30.5q63 0 124 182q53 156 54 238q-39 12 -62 18 q-68 27 -133 54q10 27 10 37q0 25 -32 24q-33 0 -91 -20q-82 -31 -163 -62l10 82v123q41 0 66.5 6t15.5 25q-6 16 -6 22q0 16 26 17q45 0 236 -72q111 -41 139.5 -47t62 -181.5t33.5 -230.5q0 -61 -8 -74.5t-26 -13.5q-25 0 -31 -23.5t-6 -82.5q0 -94 37 -195 q29 -78 86 -174q14 -25 63 -63q39 -31 39 -60q0 -35 -20.5 -68.5t-81.5 -95.5l-246 -20q-27 -4 -160 -115q-59 -49 -106 -49q-18 0 -70 22q-63 29 -125 60z" />
<glyph unicode="4" horiz-adv-x="993" d="M154 1403l20 41v-144q27 -4 55 -8q16 -6 17 -73q0 -78 -14.5 -200t-26.5 -231q119 0 174 -10q123 -23 123 -92q0 -47 -51.5 -127t-51.5 -108q0 -8 20.5 -10.5t20.5 -10.5q0 -47 -24 -94q-39 -72 -78 -141v-205q25 -2 37 -2q33 0 66.5 2t68.5 4h27q18 -4 26 -4v225 q-6 4 -33.5 9t-27.5 52q0 131 66.5 244t66.5 248q61 -8 104 -25q29 -14 60 -26l96 160q68 123 68 178q-18 0 -68.5 -77t-69.5 -77h-262l31 451l-123 102v-481l-61 -82h10l-41 -10h-51l-41 624v11h-123l-10 -62v-51z" />
<glyph unicode="5" horiz-adv-x="1116" d="M123 164q0 59 10 121.5t21 124.5h133l41 -11q14 -164 30 -327q59 6 242 39q98 18 148 22v522q-8 41 -15 72q-12 59 -26 72q-25 23 -89.5 29t-115.5 12q-139 27 -277 102l-30 533q33 23 110.5 37t104.5 65q8 14 14 14q23 -20 43 -34.5t45 -10.5q16 4 38.5 4h35.5 q25 0 74 -2t67 -2h70q76 0 120 -14t97 -68l-62 -184q-35 0 -115.5 4t-86.5 4h-68q-33 -6 -47 -8v195q-29 -10 -183.5 -15.5t-154.5 -56.5q0 -41 8 -139q23 -268 23 -301v-21q102 0 217 -29q272 -68 362 -67h148v-303q-2 -2 -195 -377q-68 -133 -143 -197q-10 -8 -51 -8 q-23 0 -53.5 3t-63.5 5q-201 0 -277 21q-150 41 -149 174z" />
<glyph unicode="6" horiz-adv-x="1095" d="M72 1352q0 57 84 153q14 16 131 133q90 -82 143 -122.5t82 -40.5q37 0 90 25.5t84 25.5q41 0 62.5 -3t50.5 -7v-205q-25 -55 -43 -82q-25 -35 -70 -72q-37 37 -66.5 89t-56.5 106l-133 -133q-23 12 -106 86q-66 57 -109 57q-10 0 -47 -66q-12 -20 -35 -67l256 -522 q61 61 160 104q119 45 178 70q16 6 64 49q37 33 79 33q47 0 109 -125q55 -115 55 -162q0 -127 -28 -221q-39 -131 -125 -168q-49 -18 -70 -25q-39 -14 -63 -37q-37 -49 -74 -94q-74 -90 -90 -90q-78 0 -172 41q-109 47 -125 102q-41 135 -82 365q-31 186 -62 373 q-8 49 -32 159q-39 176 -39 271zM348 328h328q96 68 194 174h-82q0 12 6.5 51t6.5 61q0 33 -13.5 52.5t-50.5 19.5q-68 0 -216 -88t-173 -137v-133z" />
<glyph unicode="7" horiz-adv-x="1198" d="M102 1137q31 96 64 192q57 145 110 146q37 0 82 -29q59 -39 72 -43q37 18 74 37q53 25 80 24q37 0 65.5 -61.5t46.5 -61.5q51 0 164 56.5t164 56.5q31 0 87 -128t56 -169q0 -92 -90 -235q-63 -102 -155 -205l-82 112q-92 -184 -185 -368v-420l-10 -51q-98 25 -147 37 q-150 43 -150 65q0 74 23.5 133.5t79.5 102.5q41 29 81 57q31 27 31 45q0 12 -14 47q-4 10 -17 35q0 18 31 63q20 29 41 60q35 59 147.5 200.5t157.5 219.5q74 129 74 235q0 12 -8 26.5t-12 24.5q-16 -6 -132 -55q-80 -35 -129 -35h-184q-23 0 -67.5 2t-71.5 2q0 -20 2 -57 t2 -53q0 -41 -9 -73t-36 -58q-70 53 -84 61q-66 43 -152 62z" />
<glyph unicode="8" horiz-adv-x="1034" d="M-10 1587q23 -23 47 -45q51 -57 65 -57q10 0 191 69q78 31 117 23q16 10 75.5 16t77.5 15l-10 -41l102 -21l41 -133l113 -143l61 -21q-4 -207 -19 -323.5t-73 -116.5q-20 0 -51 5t-41 5t-22.5 -9t-18.5 -11q0 -18 2 -49t2 -45q0 -31 -4 -50q154 0 189.5 -31.5 t35.5 -111.5v-47.5t2 -52.5q0 -104 -14 -164q-20 -84 -70 -84q-16 0 -39.5 5t-31.5 5q-47 0 -110.5 -71.5t-84.5 -71.5q-63 0 -150 13t-167 28l-10 420q14 84 63 129t141 45q27 0 40.5 -9.5t31.5 -21.5q2 10 11.5 22.5t9.5 18.5q0 39 -13.5 80t-38.5 63q-12 10 -55 -12 q-117 -61 -131 -62q-14 0 -18.5 14.5t-4.5 18.5t4.5 25.5t0.5 36.5q-4 20 -39 45q-47 33 -95 67q-29 45 -70.5 305.5t-41.5 329.5zM193 1348q0 -35 16 -111t16 -90q0 -59 158 -133q16 -8 211 -82q12 16 12 43q0 18 -6 41q-16 59 -16 80q0 8 88 28q43 11 86 23 q-94 59 -262 141q-215 104 -281 105q-23 0 -22 -45zM338 528l10 -292q27 -16 56.5 -34t56.5 -18q37 0 86 105q53 137 108 274l-143 -20q-37 4 -45 4q-25 0 -61.5 -9.5t-67.5 -9.5z" />
<glyph unicode="9" horiz-adv-x="1013" d="M123 1225q0 66 49 178q57 133 121 133h270q39 0 39 -16q0 -25 18.5 -33t63.5 -10t94 -2l33 -707q8 -49 8 -104q0 -35 -4 -117t-4 -96q31 6 54.5 -52.5t56.5 -60.5q-2 -14 -2 -39q0 -43 19 -109.5t19 -95.5q0 -27 -3 -39t-13 -35q-49 0 -129 3.5t-82 3.5q-53 0 -106 -7 v185q41 104 76.5 256.5t35.5 240.5q0 55 -55 109q-29 29 -98 70q-63 -63 -160 -103q-117 -39 -178 -61q-51 162 -76 246q-47 154 -47 262zM246 1188q0 -45 49 -133q72 -129 74 -133q45 45 51 59t6 74v153l158 41q-8 35 -35 70q-33 43 -68 43q-45 0 -140 -65.5t-95 -108.5z " />
<glyph unicode=":" horiz-adv-x="430" d="M61 614q0 47 47.5 121t86.5 74q27 0 94 -76q33 -39 80 -98l-31 -41v10l-92 10l-41 -10l-10 -102q-39 23 -76 47q-57 39 -58 65zM102 190q0 16 38 92t55 97l41 -41q4 -2 43 4q12 0 38 6q20 0 49 5t40 5q29 0 62.5 -17t33.5 -44q0 -55 -74 -69.5t-90 -33t-37 -94.5 q-12 -45 -25 -90q-82 27 -118 58q-55 45 -56 122z" />
<glyph unicode="?" horiz-adv-x="983" d="M88 1217q0 6 4 22q25 63 163 164.5t196 101.5q39 0 85 -44t71.5 -47t44 -4t38.5 -1q25 0 76 2t74 2q0 -90 56 -239.5t56 -225.5q0 -111 -67 -217q-76 -121 -172 -121h-144q-55 0 -92 -39t-37 -100q0 -35 28 -55.5t54 -36.5q-18 -29 -28.5 -63.5t-22.5 -79.5q-20 4 -41 10 q-45 0 -55 -21q-2 -2 -17 -41v410q8 10 283 170q113 66 137 127q6 16 6 53q0 35 -4 67.5t-6 59.5v252h-231q-20 0 -43 4t-31 4q-12 0 -23.5 -4t-35.5 -27q-10 -10 -11 -26q2 -20 2 -31q0 -12 -6 -20q-14 -18 -67 -19h-133v-88q29 -51 61 -63q16 -6 113 -19v-51 q-2 -4 -12.5 -38t-28.5 -34q-25 0 -67 16.5t-87 35.5q-8 0 -10 -20.5t-10 -20.5q-14 0 -27 10q-23 20 -25 20q-2 18 -2 39v33v58.5t2 60.5q0 12 -7 38.5t-7 35.5zM369 10v62h82q57 -27 112 -72l-61 -92q-27 35 -45 53q-33 35 -88 49z" />
<glyph unicode="A" horiz-adv-x="1443" d="M41 154q4 31 8 61q8 20 53 21q45 0 68 47q16 37 25 55q25 53 45 143q29 125 38 155t56 105.5t55 118.5q2 12 4 50t2 40q0 23 -1 47.5t-1 49.5q0 45 2 66.5t15 53.5l102 164q12 51 27 103q25 61 75 61q254 0 289 -252q14 -145 28.5 -278.5t29.5 -251.5q29 -156 107.5 -191 t160.5 -67q37 -29 61 -179q49 0 75 -6t69 -24q-45 -53 -66 -70q-31 -25 -88 -43h-297l-61 31q8 27 14 36t6 46q0 68 -33 162q-43 123 -49 163.5t-10 72.5t-26.5 49.5t-68.5 28.5t-100 26h-123v-113l7 -41q0 -23 -1 -41t-1 -33q0 -35 2 -49q-96 0 -164 -57.5t-68 -147.5 q0 -10 25 -39q18 -23 37 -43v-61q-131 16 -162 20q-90 10 -166 11zM532 881q74 0 161 -29t106 -33q30 72 30 154q0 72 -7 102.5t-34 91.5q-39 10 -88 71.5t-86 61.5q-33 0 -50 -24.5t-32 -46.5v-348z" />
<glyph unicode="B" horiz-adv-x="1105" d="M51 358q53 72 98.5 197t45.5 199q0 14 2 40.5t2 39.5q0 29 -4 47l-2 129q0 53 -33 110q-78 135 -78 160q0 35 22 59q8 10 50 43l133 -4q12 8 29.5 16.5t31.5 8.5q33 0 78 -51.5t76 -51.5q57 0 126.5 51.5t119.5 51.5q29 0 43 -24.5t28 -47.5q70 -72 142 -143 q73 -88 73 -184q0 -115 -82 -187q-51 -45 -184 -100l82 20q74 -31 103.5 -76t29.5 -133q0 -246 -199 -376q-174 -115 -450 -115h-252zM209 207q0 -4 2 -6q25 -16 25 -27q0 -8 17 -7t23 -3h287q111 23 180 78q86 68 86 168q0 49 -34 63q-29 8 -58 19q-39 27 -39 40 q0 6 10.5 14.5t10.5 14.5q0 10 -31 30.5t-88 32t-154 11.5q-88 0 -149 -123q-39 -76 -72 -215zM338 969l137 4q4 -18 15.5 -51t11.5 -52q104 0 184 28.5t133 94.5q-74 76 -231 140q-51 20 -250 86v-250z" />
<glyph unicode="C" horiz-adv-x="1054" d="M72 881q0 57 71.5 288.5t71.5 284.5q0 59 56.5 111.5t117.5 52.5q104 0 177 -14.5t120 -36.5q33 -16 82 -68q37 -39 92 -45v-168h-123l-112 -6v102l-31 -41l-41 11l-10 102h-82l-82 -31q2 -5 2 -12q0 -35 -51 -125q-68 -119 -68 -164q0 -18 4 -26q27 -61 35 -101.5 t8 -93.5q0 -27 -1 -51.5t-1 -44.5v-17q0 -45 12.5 -58t34.5 -13h33q14 -4 14 -33q0 -16 -2 -29v-141q18 4 39 4h31q35 0 89 -3t56 -3q16 0 30.5 6t31.5 14q-4 20 -27.5 64.5t-23.5 79.5q0 27 8 56.5t12 45.5h92q70 -18 109.5 -44t64.5 -79q-25 -10 -43 -20q-39 -20 -39 -31 q0 -8 10.5 -20.5t10.5 -20.5q0 -66 -123 -166t-184 -100q-78 0 -244 94q-176 100 -176 168q0 100 -14 141q-37 104 -37 181z" />
<glyph unicode="D" horiz-adv-x="972" d="M164 385q0 37 6 88q14 121 14 131q0 78 4 137q14 211 15 224v73q-6 33 -8 47q-8 66 -9 140q0 43 4.5 145.5t4.5 124.5q18 -8 403 -80q285 -53 285 -155q0 -37 -33 -82q-14 -20 -21.5 -52t-7.5 -77q0 -59 11.5 -122t27.5 -108q39 -111 39 -233q0 -184 -86 -301 q-96 -131 -270 -131q-231 0 -279 24q-6 2 -80 109q-8 10 -14 34.5t-6 63.5zM317 1311q0 -55 72 -289t72 -397q0 -66 -21 -66q-8 0 -26.5 9.5t-26.5 9.5q-27 0 -39 -56v-215q55 0 145.5 -25.5t141.5 -25.5q68 0 104 78q29 61 29 137q0 16 -23.5 48t-27.5 54v400 q-29 49 -273 211q-104 70 -127 127z" />
<glyph unicode="E" horiz-adv-x="1085" d="M123 154v450q25 31 74 94q37 47 69 90l-51 355q0 47 21 200q10 76 10 132q16 -2 34.5 -3.5t26.5 -1.5q16 0 53 2.5t60 2.5q49 0 147.5 -26t149.5 -26q20 0 44.5 31t47.5 31q37 0 48 -6t11 -19q-4 -16 -4 -26t6 -21q-90 -14 -108 -47q-8 -14 -25 -127q-45 0 -102 12 q-135 29 -164 29q-18 0 -33.5 -4t-27.5 -6q25 -193 73.5 -229.5t259.5 -36.5v-123q-45 -6 -88 -11q-23 0 -59 39q-45 49 -53 54h-133v-410q39 -12 79 -23q53 -23 54 -59q0 -29 -2 -39q-14 -43 -19 -63v-52q49 0 119 -12q162 -29 178 -29q20 0 78 72q31 39 55 51l62 -82 l-51 -174h-431q-14 -4 -55 -17t-67 -13q-41 0 -166 26q-68 14 -121 15z" />
<glyph unicode="F" horiz-adv-x="1157" d="M123 1352q0 35 1 66.5t19 66.5q27 -35 37 -45q25 -27 45 -27q53 0 158 90q49 43 98 43q43 0 108.5 12.5t88.5 12.5q39 0 60.5 -20.5t29.5 -75.5q37 6 72 6q43 0 108.5 -5.5t77.5 -5.5h25q16 0 45 5v-175h-348q-18 -14 -119 -26q-188 -23 -189 -70q0 -63 53.5 -106 t116.5 -43q49 0 108.5 29.5t69.5 29.5q27 0 41 -59q2 -14 23 -15q18 0 49 13q76 30 85 30h1q16 0 17 -18q0 -45 -27 -111q-35 -84 -76 -84q-39 0 -121 29q-117 41 -125 43l-174 10q0 -27 2 -45t4 -35q0 -14 -6 -43l-51 -92v-225l10 -338q20 -2 39 -2q6 0 13 2q25 -10 51 -20 l-11 -52q-27 -8 -36 -14t-45 -6q-70 0 -152 18q-25 6 -84 23v51q20 127 25.5 313.5t5.5 239.5q0 35 4 129t4 105q0 66 -3 93t-15 72q-20 74 -66.5 97.5t-46.5 128.5z" />
<glyph unicode="G" horiz-adv-x="1198" d="M51 809q0 96 80 267t156 214q35 20 94 39q145 45 159.5 52.5t45 35t59.5 27.5q70 0 199 -49q149 -57 149 -114q0 -13 -26 -120q-14 -57 -15 -86h-174l-20 195q-102 -6 -166 -13q-123 -14 -141 -59q-27 -133 -48.5 -217t-54.5 -111q-16 -12 -83.5 -15t-121.5 -5v-92 q8 -80 14.5 -138.5t29 -101.5t89.5 -96q47 -39 62 -135h102q25 10 189 37q70 12 108 34l41 215q-33 0 -157 -41q-76 -27 -150 -51q12 82 27 164q238 20 475 41h51q-20 -229 -25 -254q-31 -186 -98 -186q-23 0 -58.5 5t-47.5 5q-76 0 -146.5 -97.5t-116.5 -97.5 q-236 0 -370 261q-111 213 -111 487z" />
<glyph unicode="H" horiz-adv-x="1054" d="M160 1311v184h198q29 -4 43.5 -7t59.5 -3q-35 -25 -68 -49q-45 -39 -45 -119q0 -76 60 -109q51 -20 104 -41q12 -41 18 -61q18 -59 23 -72h51q61 18 125 39q80 33 80 84q0 41 -21 154q-10 57 -10 98q0 76 38 127t116 51q18 0 30.5 -12t12.5 -49q-2 -39 -2 -51v-383 q0 -190 -7.5 -326.5t-33.5 -263.5q-6 -35 -6 -68v-39.5t2 -38.5q0 -33 -5 -57.5t-22 -52.5q-53 6 -96 6q-31 0 -68 -6v205q6 31 115 237q39 74 39 158q0 14 2 47t2 49v25q-4 18 -4 26l-51 -20q-6 -33 -11 -53q-10 -39 -41 -39q-18 0 -33.5 3t-27.5 7h-328l-51 -471 q53 -96 58 -105q27 -57 34 -120v-62h-270v297q-2 27 -3 49.5t-1 40.5q0 106 13.5 221t35.5 181q12 35 43 61q18 16 18 72q0 72 -58 124t-58 132z" />
<glyph unicode="I" horiz-adv-x="768" d="M72 297v82l30 82h144v358q6 49 6 90v43q0 63 13.5 102.5t62.5 71.5v205q-49 0 -158 21q-55 10 -98 10q0 45 15 109.5t46 64.5q20 -6 41 -10l143 20q-2 -8 45.5 -29.5t47.5 -31.5t5 -23.5t5 -17.5q51 29 80 43q55 29 84 29q8 0 19 -9.5t18 -11.5q-2 -33 -3.5 -56.5 t-1.5 -37.5v-49q4 -31 5 -45q-27 -2 -59 -3t-48 -1h-39q-20 0 -36.5 1t-28.5 3v-78q16 -47 100 -144q74 -84 74 -153q0 -78 -84 -197t-84 -182v-209h280v-108l-20 -41q-104 0 -230 20q-43 6 -374 82z" />
<glyph unicode="J" horiz-adv-x="819" d="M78 477v127h158v-92q-16 -31 -31 -61q0 -61 9 -128t42 -67q152 0 203 115q33 74 33 254q0 98 -84 272t-84 277v178l-201 -185q0 2 2 14.5t2 30.5q0 43 -12.5 143.5t-12.5 119.5l195 30q70 -28 129 -28h4q66 0 160 41q70 33 106 49v-189h-184v-344q6 -41 30.5 -98 t51.5 -96q12 -16 90 -64q64 -37 64 -80q0 -254 -128 -418.5t-374 -226.5h-103q0 78 -32.5 215t-32.5 211z" />
<glyph unicode="K" horiz-adv-x="1167" d="M133 1106v375h246l10 -37l-82 -10l-10 -41l51 -174h277q45 14 100 47.5t115 45.5h133q0 -74 24 -102q2 -2 88 -53q-35 -43 -149.5 -67.5t-198.5 -24.5q-33 0 -119 33q-49 18 -75 18q-23 0 -52.5 -31.5t-29.5 -50.5q0 -59 92 -162q66 -74 133 -145q63 -152 109.5 -238 t95.5 -100q59 -12 119 -24q47 -15 86 -68q-16 -12 -152 -72q-57 -25 -94 -61q-84 215 -131 317q-84 184 -207 236h-72v-92q43 -39 59.5 -72t16.5 -80q0 -18 -3 -49t-5 -49v-314h-191l-81 11q51 166 102 334q0 78 -51 221t-51 223v129q0 63 -16.5 80.5t-86.5 46.5z" />
<glyph unicode="L" d="M102 129v147q27 70 54.5 188t27.5 191q0 41 -12 97q-29 127 -29 166q0 45 105 165q49 57 49 95q0 72 -12 147q-20 98 -29 145q18 0 75.5 12.5t80.5 12.5q39 0 28 -31q-6 -18 -37 -200q-37 -227 -57 -406q-29 -254 -29 -412q0 -84 8.5 -132t34 -63t62.5 -15q45 0 133 20 t111 20q12 0 18 3q27 8 29 8q0 25 -1 43t-1 32q0 29 2 48h157q0 -53 31 -135t31 -121q0 -20 -7 -36t-24 -16q-57 0 -82 41q-25 59 -41 93q-49 -66 -93 -89.5t-114 -23.5q-43 0 -104 6h-365z" />
<glyph unicode="M" horiz-adv-x="1331" d="M82 133v133h102v543q-20 68 -34.5 129t-26.5 137v346h440q41 -43 82 -104q20 -31 72 -119q18 12 44.5 23.5t67.5 17.5l113 -20q10 20 39 59q39 53 53 53q86 0 164 -39q92 -46 92 -118q0 -217 -67 -408q-55 -154 -179 -346h-133q-4 20 -7 38.5t-3 49.5q0 96 119 289 q94 152 96 155v164h-194q-45 -45 -70 -84q-33 -53 -33 -100q0 -33 15.5 -42t15.5 -40q0 -16 -57.5 -39t-75.5 -23q-72 0 -102.5 138.5t-82.5 158.5q-66 27 -145.5 34t-191.5 7v-184q47 -88 49 -90q16 -25 43 -43q6 -4 46 -10t46 -21q14 -35 14 -92q0 -18 -2 -55t-2 -51 q0 -90 -20.5 -165t-40.5 -149h143v-82q-45 -37 -93 -59.5t-71 -22.5q-20 0 -106 15.5t-119 15.5z" />
<glyph unicode="N" horiz-adv-x="1402" d="M41 195q0 121 30.5 182t123.5 115v348q-4 8 -37 61q-25 41 -25 51q0 51 25 125q57 172 57 213q0 25 -9 59.5t-11 43.5q12 -4 30.5 -12.5t30.5 -8.5q25 0 84 27q33 14 59 14q72 0 133 -47q35 -29 75 -56.5t81 -74.5q57 -66 69.5 -121t17.5 -121.5t5 -140.5v-139 q0 -86 3 -123t16 -109l159 154v553q-8 6 -48 74.5t-40 78.5q0 45 39 54.5t86 9.5q35 0 100.5 -6t88.5 -6q59 0 113.5 -61t54.5 -124q0 -53 -13 -96q-18 -68 -59 -68q-8 0 -20.5 10.5t-20.5 10.5q-53 0 -102 -168q-27 -106 -52 -211q-31 -100 -46 -229t-15 -262h-143 q-96 96 -177 235t-120 277v276q4 37 7 68.5t3 50.5q0 35 -64 67q-51 25 -100 50q-90 -125 -117 -349q0 -2 -20 -405q-12 -246 -68 -383q-61 10 -121 22q-63 20 -63 91z" />
<glyph unicode="O" horiz-adv-x="1013" d="M61 471q0 102 31 236q72 313 72 405q0 41 -15.5 100.5t-15.5 87.5q0 16 59.5 80t73.5 64q106 0 228 -94q86 -68 131 -90q45 -14 93 -27.5t81 -54.5q27 -33 50 -132.5t42 -134.5q29 -49 60.5 -104t31.5 -100q0 -51 -20.5 -118t-51.5 -97l-92 -41q-16 -45 -23.5 -117 t-7.5 -150v-92h-102q-256 66 -369 115q-256 113 -256 264zM217 672q0 -27 50 -49.5t50 -100.5q0 -115 82 -160q86 -39 174 -75q4 8 17.5 23.5t13.5 27.5q0 92 -21.5 190.5t-39.5 188.5v82q127 16 166 60t39 175l-62 92l-123 -10q-31 12 -135 82q-43 29 -90 41v-195 q-29 -51 -56.5 -102t-56.5 -102v-123q-8 -25 -8 -45z" />
<glyph unicode="P" horiz-adv-x="1300" d="M117 1524q12 4 8 10t-6 12q0 6 18.5 8t91.5 2q1 1 5 1q22 0 146 -19q146 -22 275 -43h256q23 10 45 23q41 18 84 18q37 0 128.5 -118t91.5 -169q0 -53 -35 -105t-68 -100q-25 -51 -49 -157q-16 -68 -23 -99l-153 41l-379 11q0 37 -14 37q-6 0 -33 -16.5t-43 -16.5t-33 16 l-41 -10v-113q49 -49 64.5 -87t15.5 -91q0 -23 -4 -88t-4 -92l-82 -82q-14 -20 -43 -150q-20 -88 -90 -106h-51q-8 20 -14.5 33.5t-6.5 27.5q0 43 46 168t46 181q0 45 19 45q16 -4 20 -4q6 0 8 9t-6 42l-82 952l-30 29h-78zM348 1341l103 -337q41 0 114.5 12t106.5 12 q57 0 96 -24l10 102q86 6 133 10q88 10 88 39q0 18 -36 43q-23 16 -23 31q0 20 72.5 42.5t72.5 32t-30 17.5z" />
<glyph unicode="Q" horiz-adv-x="1351" d="M145 420v614q0 127 62 269q80 182 199 182q199 0 362 -37q256 -57 256 -182q0 -29 -4 -51.5t-6 -36.5l71 -287v-6q0 -22 -9 -86q-11 -76 -11 -82l4 -94q6 -4 14 -9q37 23 55 23q5 0 9 -2q23 -16 115 -31q38 -6 38 -123q0 -43 -96 -149q-45 -39 -88 -76q31 84 31 141 t-35 82q-49 20 -98 43q-16 -16 -187 -119q-68 -41 -90 -75q-23 -49 -35 -72q-25 -41 -67 -41q-82 0 -270.5 76t-219.5 129zM225 688q0 -47 41 -110q57 -88 195 -220q0 147 144.5 178t152.5 58h-164q-20 0 -109 55q-33 31 -63 64q88 23 92 44t29 21q88 0 186 -30 q139 -45 182 -52l31 41q-68 55 -96.5 84t-36.5 66l61 250v153l-290 31q-125 -57 -234.5 -240.5t-109.5 -332.5q0 -8 -5.5 -29t-5.5 -31z" />
<glyph unicode="R" horiz-adv-x="1157" d="M143 1126q0 29 34 52.5t40 43t8 48t2 71.5q0 33 -1 64t-1 59q49 -20 74 -30q51 -20 80 -21q35 35 53 51q57 51 80 52q29 0 70 -35q57 -49 114 -99q43 -18 216 -49.5t173 -199.5q0 -141 -124 -185q-166 -57 -193 -98q27 -29 27 -39q-16 -12 -17 -43q0 -33 23.5 -95.5 t89.5 -180.5q51 -33 96 -64q92 -61 92 -92q0 -12 -14 -19q-82 -35 -219 -100q-70 -33 -86 -33q-12 0 -12 29v23q0 190 -24 328t-58 153q-125 49 -164 76q-25 18 -25 38q0 35 -39 66q-45 37 -141 86l-10 -154l133 -81v-349h92v-184h-123q-78 8 -123 12t-102 19q6 27 18 63 q6 23 23 60v266q-31 78 -46.5 224.5t-15.5 266.5zM399 1178q0 -27 90.5 -131.5t114.5 -104.5q47 0 213 98.5t166 137.5q0 35 -98.5 48t-198.5 13q-12 0 -56 56.5t-57 56.5q-27 0 -33 -58q-5 -55 -25 -55h-3h-82q-16 -31 -31 -61z" />
<glyph unicode="S" horiz-adv-x="1064" d="M102 389q0 37 52.5 59.5t91.5 22.5q12 0 44 -64.5t43 -70.5t50 -10t57 -19q10 -6 14.5 -15t4.5 -13q-2 -8 -1 -15.5t34 -7.5q43 0 92 29q106 63 143 63q14 0 37.5 -10t34.5 -10q10 0 23.5 5t17.5 5v174q-10 78 -11 100v54q-5 1 -12 1q-65 -1 -230 -57q-181 -62 -251 -61 q-72 0 -100 45q-16 27 -23.5 92.5t-7.5 161.5q0 78 2 136t4 112q0 37 -1 75.5t-1 79.5q0 47 2 70q82 0 180 29q217 63 281 63q31 0 145.5 -96t145.5 -139q14 -18 14 -45q0 -8 -2 -27t-2 -31q0 -18 -41 -36.5t-41 -45.5q-137 20 -190.5 113.5t-86.5 132.5h-297 q-27 -29 -34 -44t-7 -58q0 -182 21.5 -313.5t60.5 -157.5q27 -16 50 -17q31 0 75.5 25.5t89.5 52.5q55 25 108.5 36t98.5 11q33 0 93.5 -3t68.5 -3q0 -35 39 -143.5t39 -143.5q0 -96 -4 -151.5t-43 -145.5h-287q-92 -27 -184 -51q-147 0 -258 55q-141 72 -142 201z" />
<glyph unicode="T" d="M102 1188v317l103 11l123 -72q33 23 47 33q27 18 55 18q16 0 41 10.5t41 10.5q25 0 84 -33q10 -4 29 -19q23 0 53.5 15.5t48.5 15.5q35 0 61 -10q12 -4 82 -51q23 23 44.5 33t37.5 18l41 -51l-61 -185l-164 31h-164l62 -451l-11 -41l-133 -614q31 -4 50.5 -8t41.5 -12 q-2 -6 -15 -35t-26 -47q-39 14 -135 20t-121 10l134 676q29 31 37 136.5t14 191.5l-41 205q-109 0 -178.5 -25.5t-128.5 -97.5h-52z" />
<glyph unicode="U" horiz-adv-x="1136" d="M123 1331v82l10 62h184l-41 -93q0 -16 25 -45l37 -37l41 -593q16 -23 16 -56q0 -29 -14 -78q-33 -113 -33 -151q0 -41 13.5 -76t48.5 -70q68 0 120 46.5t105 46.5q-2 25 -3 44t-1 33q0 74 14 193q33 270 33 334q0 63 -7 107t-26 87l92 287v-10h307q-16 -61 -18 -66 q-8 -31 -22 -67l-82 20h-52v-614q59 -74 101.5 -223.5t42.5 -257.5q0 -115 -146 -162q-100 -33 -268 -33q-104 0 -248 68q-158 74 -188 157q-6 16 -8 47t-2 37q0 41 5 105.5t5 66.5q0 29 -5 95.5t-5 80.5q0 53 8 76t47 82q27 43 27 92q0 23 2 45q-10 6 -23 41v297h-92z" />
<glyph unicode="V" horiz-adv-x="1402" d="M10 1219q27 66 121 87t115 56q31 76 61 154l144 -52q-8 -27 -93 -139q-30 -40 -30 -83q0 -34 8 -34q55 0 113 -170q78 -229 165 -669q135 219 201 372q51 121 51 185q0 45 -30.5 69.5t-30.5 30.5q0 12 14 29q6 8 88 63q55 37 56 90q0 29 -15.5 38t-15.5 34 q0 14 17.5 29.5t23.5 21.5h327l62 -31q-14 -53 -31 -92l-123 41q-25 -96 -135 -254q-123 -174 -151 -258q-43 -123 -43 -174q0 -29 26.5 -39t26.5 -47q0 -129 -230 -264q-145 -86 -190 -131q-29 51 -56.5 129t-44 123t-112.5 203q-74 121 -74 221q0 35 27 129q14 51 14 76 q0 45 -26 102q-72 156 -76 174q-2 0 -51.5 -20.5t-61.5 -20.5q-10 0 -22.5 10.5t-18.5 10.5z" />
<glyph unicode="W" horiz-adv-x="1597" d="M82 1157v164q37 61 162 94q98 25 196 49q0 -57 -6 -104q-18 -139 -18 -141v-134q25 0 55.5 -1t40.5 -9q20 -18 25 -94t6 -152q8 -84 28 -188q59 -293 64 -324q0 115 71.5 207t71.5 203l72 -31l61 21q0 -106 47 -152q35 -33 97 -33h20q66 387 84 488q27 147 152 209 l-113 164v51l160 31q37 -20 117.5 -122t80.5 -145q0 -37 -75 -161q-49 -78 -99 -156q-6 -12 -59 -68q-43 -45 -43 -75q0 -45 56.5 -133.5t56.5 -137.5q0 -63 -127 -137q-100 -53 -201 -104q-41 49 -96.5 100t-67.5 63q-18 -45 -55 -98q-66 -94 -68 -96q-16 -29 -24 -41 q-27 -41 -37 -41q-25 0 -70 2t-65 2q-45 0 -70 -4q0 102 -7 166.5t-54 335.5q-2 8 -2 26q0 14 4 51t4 56q0 23 -6 41q-14 45 -87 58t-86.5 44t-18.5 67t-5 85v57.5t2 56.5l-82 -10h-92z" />
<glyph unicode="X" horiz-adv-x="1228" d="M41 1505q0 55 70 80q31 10 63 23q6 -8 125 -117q90 -82 90 -129q0 -16 -5 -40t-5 -32q0 -33 51 -88t102 -106q41 -41 62 -101q43 -127 92 -176q12 31 21 41q29 238 71 344q61 156 205 260q102 -90 158.5 -146t56.5 -79q0 -86 -194.5 -155.5t-194.5 -141.5q0 -29 -4 -86 q-12 -172 -12 -211q0 -53 6 -72q16 -47 103 -71.5t100.5 -79.5t60.5 -115q41 -51 84 -102q-12 -12 -17.5 -31.5t-64.5 -19.5q-49 0 -86 77q-55 115 -57 117q-68 88 -123.5 105.5t-194.5 17.5q-209 0 -297 -94q-76 -100 -133 -172q-4 12 -24 49q-47 86 -48 94q0 92 146 148 q4 2 223 57q25 8 25 60.5t26 52.5q31 0 40 -15.5t42 -15.5q10 0 16.5 18.5t14.5 22.5q-12 16 -103 203q-35 74 -71 104q-12 12 -25 12q-6 0 -13 -11t-15 -11q-4 0 -19 10q-115 94 -219 238q-129 176 -129 284z" />
<glyph unicode="Y" horiz-adv-x="1351" d="M123 1290q37 31 70 76q55 78 63 88q90 -68 180 -133q100 -74 189 -133q37 -27 55 -39q57 -43 57 -53l-10 -86q0 -86 14 -99q39 -27 78 -51q8 8 117 76q78 49 88 98q2 10 2 33q0 18 -4 66.5t-4 50.5q0 23 6 45q16 41 47 78q47 57 96 116q45 -35 84 -90q49 -69 49 -114 q0 -35 -35.5 -77t-66.5 -77q-20 -27 -123 -195q-137 -225 -266 -225q-31 0 -38 -109.5t-23 -125.5q-154 -160 -308 -318q-90 82 -137 127t-47 74q0 43 16 69q27 33 45 58q55 -55 103 -133q127 78 266 184l-51 297q-6 20 -10 41q-90 14 -95 16q1 4 1 9q0 30 -39 98 q-43 80 -50 88q-37 55 -73 55q-10 0 -23.5 -5t-17.5 -5q-57 0 -146 131q-31 47 -59 94z" />
<glyph unicode="Z" horiz-adv-x="1249" d="M82 1444v67h184q31 0 53.5 -54t49.5 -54q20 0 51 10t51 10q31 29 45 43q47 43 57 50h338q10 -2 95 -29q39 -12 49 -12t45 22q43 29 88 59v-194q-25 -72 -62 -326q-16 -117 -41 -196l-20 -78q-16 -35 -72 -35q-14 0 -34.5 5t-26.5 5q-27 0 -76 -37q-35 -29 -68 -55 q-156 -111 -174 -127q-112 -95 -112 -169q0 -19 10 -53t20 -60l349 30v84q0 88 19.5 129t92.5 74l41 -61q10 8 19 8q14 0 14 -37q0 -20 -2 -45t-2 -27q0 -27 10 -26q8 0 23 14q18 -14 42.5 12.5t53.5 59.5q6 -1 6 -21q0 -59 -82 -145q-68 -72 -133 -111h-819v195 q31 57 92 106q176 139 184 150q106 143 215 286q37 -33 45 -43q29 -33 48 -90q57 68 96 117q78 96 78 129q0 27 -35 72q-25 31 -58 61q10 10 43 49q14 16 29 33v143h-287q-23 -18 -27.5 -21t-6.5 -3q-8 -12 -27 -37h-256v-27q0 -86 -8 -142t-43 -56q-8 0 -24.5 6t-26.5 4 q-12 63 -68 158q-45 78 -45 180z" />
<glyph unicode="a" horiz-adv-x="1105" d="M82 604q0 31 87 175.5t118 152.5h88q59 0 137 -12q180 -29 205 -29q29 0 60.5 -17.5t62.5 -33.5v379h-164q-88 -43 -107 -58q-31 -23 -57 -55l-61 -82q-47 0 -100.5 13.5t-145.5 58.5v143h71l191 -31q49 6 78 27q14 10 59 65h287l82 -10l61 -516q0 -57 -32.5 -137 t-38.5 -125q0 -14 -1 -31.5t-1 -21.5v-32.5t2 -31.5q0 -37 -7.5 -59.5t-33.5 -48.5l92 -123v-82q-47 -6 -92 -10q-45 0 -115 82q-35 41 -70 41l-71 -72q-37 -29 -101.5 -40t-128.5 -11h-45q-45 0 -73.5 5t-51.5 25q-41 37 -45 145.5t-15 139.5t-50 80q-74 92 -74 137z M297 225q10 2 27.5 -4t23.5 -6q12 0 22.5 13.5t18.5 17.5l82 -41q18 6 39.5 13t73.5 7v164l112 -82h103v266q0 80 -131 125q-98 29 -197 60l-174 -451v-82z" />
<glyph unicode="b" horiz-adv-x="1054" d="M61 1495l297 -4v-293l-71 -76q0 -61 12 -131q4 -29 29 -131l164 31h276q139 -35 166 -49q70 -41 70 -150q0 -135 -13 -225q-20 -143 -69 -201q-6 -8 -21.5 -12t-36.5 -4q-31 0 -72.5 4t-54.5 2q-35 -6 -94 -30.5t-80 -51.5q-35 -61 -45 -80q-18 -33 -88 -43h-143v103 q2 20 16 72.5t14 86.5q0 55 -49 174q-37 88 -73 179q-16 45 -23 65q-4 33 -8 68q10 0 16 -8q16 -23 25 -23q33 0 33 33q0 18 -16.5 71.5t-16.5 79.5q-8 55 -24.5 179t-16.5 169q0 18 9 38t22 44v82q-20 -4 -34 -7t-28 -3q-16 0 -38.5 16.5t-33.5 24.5zM328 707 q0 -74 61 -269q31 -96 31 -172q74 20 186 70q132 59 152 94v51l-82 11q-6 109 -12 219q-18 88 -162 88q-33 0 -94.5 -44t-79.5 -48z" />
<glyph unicode="c" horiz-adv-x="972" d="M10 410v348q41 104 146 196q115 100 219 101h270q4 0 55 47q26 24 46 24h2q49 0 61 -24q10 -29 20 -55q33 6 57.5 9t37.5 6q-25 -10 -39.5 -22t-7 -23t0 -16.5t-7.5 -17.5q2 -12 7 -22q-4 -2 -13 -3q-8 0 -6 12.5t-8 12.5q-20 -45 -35 -65q-45 -68 -88 -68q-25 0 -39 3 t-33 7v154h-297q-23 -16 -95.5 -93t-78.5 -92q68 -41 154 -41v-337l-41 -31v-174q49 -12 94 -33q150 -70 152 -70h194l21 82q66 -16 91 -27t62 -44q-27 -61 -47 -103q-39 -82 -65 -82q-80 0 -223.5 30t-196.5 62q-14 10 -95 18.5t-100 22.5q-37 33 -42 129.5t-9 178.5h-123z " />
<glyph unicode="d" horiz-adv-x="1085" d="M57 385q0 27 2 76t2 67q0 98 115 215t203 117q39 0 106.5 -24.5t128.5 -47.5q20 -29 52 -51q45 -31 92 -61l41 31l10 81q-4 8 -19.5 57.5t-41.5 76.5l70 112q6 25 7 43q0 14 -7 44t-7 48q0 29 18 60q16 -10 31 -10q20 0 31.5 23.5t11.5 51.5q0 35 -10 39q8 23 -16 23 q-37 -6 -52 -6q-16 0 -16 12q-29 -2 -56.5 -5t-56.5 -5l-71 51q-4 0 -7 2q37 33 76 47q0 20 5.5 43t7.5 31l245 51q43 -29 56 -104q6 -41 6 -152q0 -74 -19 -150q-31 -127 -32 -137v-665q-51 -76 -78 -115q-51 -76 -67 -121v-45q0 -47 -30 -47q-59 0 -77.5 71.5t-34.5 82.5 q-2 2 -43 2h-45.5t-34.5 -2q-94 0 -150 -50q-84 -76 -127 -94q-18 25 -46.5 80t-45.5 74q-6 6 -56 21.5t-58.5 36t-10.5 62.5t-2 60zM184 389l62 -10l112 41q80 -63 113 -88q57 -45 139 -45q29 0 59.5 2t61.5 4q33 0 74 -6v133q0 96 -143 170q-125 65 -239 65h-3 q-102 0 -146.5 -22.5t-89.5 -100.5v-143z" />
<glyph unicode="e" d="M82 1055q0 94 135 258q47 57 111 121q31 31 53 51q45 41 59 41q92 0 225.5 -108.5t133.5 -188.5q0 -53 -21 -207q-10 -78 -10 -131q-18 -2 -115 -57q-43 -25 -59 -25q-12 0 -92 41t-127 41q-72 0 -100.5 -33t-28.5 -110q0 -70 76.5 -187t87.5 -192q63 0 129 -35 q176 -92 209 -98v38q0 66 -11.5 92.5t-60.5 53.5l20 41q144 -88 287 -174q-59 -14 -135 -60q-43 -25 -121 -84q-47 -49 -80 -75.5t-53 -26.5q-25 0 -72 33q-68 47 -71 49q-23 12 -107 35q-131 37 -160 88q-8 14 -12 74.5t-8 130.5v276zM195 1167l41 -159q-12 -4 -13 -25 q-4 -12 -4 -14q12 0 27 2l221 2v123h178q2 8 6 32.5t4 38.5q0 25 -32.5 75t-38.5 79q-88 -18 -199 -68q-96 -43 -190 -86z" />
<glyph unicode="f" horiz-adv-x="880" d="M41 942q0 37 2 62.5t8 50.5l123 20q0 37 21 127q10 45 10 78q0 68 6 117q14 115 14 149q43 0 102.5 31t82.5 31q12 0 51 10t51 10q37 0 53.5 -20.5t69.5 -20.5q12 0 20.5 -24.5t10.5 -26.5l82 20q49 -20 69 -49q23 -47 43 -84q49 18 73.5 32.5t59.5 49.5h51 q-92 -92 -118 -116q-106 -98 -138 -99q-43 0 -68.5 66.5t-64.5 66.5q-25 0 -72.5 -5t-60.5 -15l-102 41l-113 -103q4 -29 4 -36q0 -23 -12 -72t-12 -86q0 -18 16 -50t35 -32q14 0 31.5 15.5t29.5 15.5q33 0 77 -15.5t67 -15.5q20 0 39 29q10 20 22 43l82 -52q23 8 33 13 q43 16 49 18l-4 -82q0 -20 -1 -39.5t-1 -36.5q0 -29 2 -47h-78q-8 2 -20.5 11.5t-20.5 9.5q-33 0 -82 -12q-115 -29 -143 -29l-82 20l72 -460q16 -18 16 -33q0 -18 -59.5 -53t-59.5 -78q0 -31 76 -119q37 -43 37 -86q-80 25 -119 35q-63 18 -127 26l31 799h-164z" />
<glyph unicode="g" horiz-adv-x="952" d="M20 328l11 82h112l62 -11q0 -78 26 -137q35 -78 97 -78q10 0 27.5 5.5t23.5 5.5q45 0 50 -5.5t58 -5.5q141 0 185 146q24 79 24 265v15q0 31 2 67t4 73q0 68 -22.5 104.5t-85.5 36.5q-33 0 -93.5 -56.5t-80.5 -56.5q-102 0 -209 68q-119 76 -119 168q0 76 5 170t13.5 134 t57.5 64q63 31 129 62q2 2 33 55q16 27 65 27q94 0 171 -25.5t110 -87.5q10 -2 35.5 -21.5t36.5 -19.5l92 41q-10 -35 -35 -63q-57 -68 -57 -70q-8 -33 -9 -94q0 -35 2 -85t7 -108q0 -27 -2.5 -85t-2.5 -89q0 -68 7.5 -116t27.5 -89q10 -18 88 -108q56 -64 56 -127 q0 -33 -41 -152q-47 -135 -72 -135q-41 0 -94 14q-137 37 -172 37q-25 0 -74 -22.5t-63 -22.5h-154q-57 0 -69.5 -3t-49.5 -34q-27 33 -51 68q-31 45 -31 76q0 37 15 37q23 0 34 32h-16q-37 0 -37 13q0 6 10 18l4 12q-20 4 -41 11zM256 1229q0 -57 55 -174q70 -147 78 -174 q94 57 148 90q102 63 118 114q-45 16 -49 19q-33 16 -33 43t13.5 59.5t27.5 63.5l-71 164q-76 -12 -172 -70q-115 -70 -115 -135z" />
<glyph unicode="h" horiz-adv-x="839" d="M80 1456l4 29l29 41q27 8 36 14t13 6h39q88 0 104 -209q6 -158 12 -313q20 35 52 61l286 11v-7q0 -33 -15 -142q-17 -122 -17 -181q0 -51 9 -81t32.5 -39t50.5 -36q14 -14 43 -47q20 -25 29.5 -71t9.5 -103q0 -39 -3.5 -86t-5.5 -98q0 -106 -63 -133q-6 -2 -111 -31v174 q-20 2 -44.5 102.5t-47.5 102.5q0 289 -41 532h-102v-440q-12 -39 -41 -76q-35 -45 -41 -57q-12 -27 -15 -58.5t-3 -89.5v-45q0 -39 -2.5 -65.5t-10.5 -48.5l-92 20v574q18 37 25.5 78.5t7.5 95.5q0 20 -1 43.5t-1 48.5q0 113 -24.5 226.5t-47.5 223.5l-31 29l2 2l-8 8 q2 2 6 4q-6 16 -2 21z" />
<glyph unicode="i" horiz-adv-x="573" d="M51 993l164 21q29 -39 45 -78q10 -27 88 -66q23 -10 26 -64t5 -83t2 -51q0 -31 -35 -119q-18 -47 -18 -102l174 -154q-2 -20 -2 -39.5v-28.5v-44.5t2 -41.5q0 -45 -13.5 -58t-52.5 -13h-51h-262q0 33 61 260q31 115 31 170q0 45 -22 94q-35 78 -41.5 98.5t-8.5 42 t-2 49.5q2 45 2 66q0 49 -14 76q-20 37 -78 65zM61 1372q0 35 70 86q47 33 94 68q6 -6 56 -41q27 -18 36 -31q6 -12 7 -31q-7 -45 -7 -61q0 -18 -8 -38.5t-12 -33.5l-82 41q-27 -18 -51 -37q-25 -14 -41 -14q-20 29 -31 41q-31 43 -31 51z" />
<glyph unicode="j" horiz-adv-x="942" d="M143 -133q0 47 34 75.5t151 67.5q23 -53 78 -76q78 -31 86 -36q102 59 112 67q82 61 82 189q0 43 -7 58t-22 15q-27 -8 -39 -8q-23 0 -33 31t-10 65q0 20 4.5 59.5t4.5 55.5q0 39 -2 69.5t-4 57.5q0 37 3 53.5t11 29.5t46 37.5t38 49.5q0 20 -10 61h-82l-52 -20 q18 37 71.5 75t98.5 38q43 0 54.5 -15.5t62.5 -15.5v-358q0 -27 4 -96.5t4 -78.5q0 -45 -3 -63t-16 -49t-46 -121q-25 -66 -45 -115q-8 -23 -8 -59q0 -23 4 -68t4 -57h-297l-92 -51q-43 0 -133 69q-51 39 -52 64zM522 1300q0 41 67.5 102.5t106.5 61.5q51 0 128 -99.5 t77 -156.5q-6 -31 -10 -61l-41 31v61v-10h-174q0 -43 -7 -76t-24 -78q-59 90 -91 145.5t-32 79.5z" />
<glyph unicode="k" horiz-adv-x="1013" d="M102 1188v354h160q53 0 53 -53q0 -27 -4 -57q-14 -111 -14 -152q18 -119 57 -164q51 -61 168 -61q23 0 45.5 15t57.5 15l358 -41q-16 -68 -41 -122q-45 16 -70 24q-47 16 -73 17q-55 0 -111 -97q-27 -47 -53 -47q-37 0 -84 12q-111 29 -145 29q-25 0 -44.5 -4t-33.5 -6 q45 -43 123 -66q37 -10 143 -26q0 -90 48 -229.5t106 -180.5q23 -14 83 -14q20 0 53.5 2t37.5 2q-33 -74 -48 -109q-25 -53 -55 -106q-66 27 -112 47q-90 41 -103 76q-4 12 -4 35q0 25 5 61.5t5 40.5q0 18 -6 37q-27 80 -123 192q-106 123 -184 136v-103q33 -25 65 -49 q27 -27 27 -84q0 -31 -8 -68q-23 -100 -23 -106q0 -37 46.5 -79t46.5 -85q0 -25 -7.5 -47.5t-13.5 -44.5q-29 2 -43 2t-29 2q-20 0 -67 -2t-76 -2q0 72 -11 148.5t-30 158.5v266h-41l-10 -51v400q23 35 47 71q14 27 14 47t-9 48t-21 28q-27 -6 -52 -10z" />
<glyph unicode="l" horiz-adv-x="528" d="M92 20q29 123 40 253t11 290q39 0 67 4t46 6v451q4 25 10 51q0 47 -56 89t-56 85q0 14 10 38t10 34q0 27 -22 37q-20 6 -39 14v225h133q63 -10 114 -30q0 -29 -14 -86q-33 -131 -33 -166q0 -14 4 -35h52q2 -72 3 -138.5t17 -97.5q4 -8 38 -13t34 -68q0 -111 -56.5 -301.5 t-107.5 -241.5v-410h-164z" />
<glyph unicode="m" horiz-adv-x="1423" d="M72 174q4 8 49 62q14 16 43 51q-8 14 -14 28q-31 35 -27 43q6 12 39 17.5t33 101.5q0 39 -19 53q-27 10 -53 23q-10 14 -14.5 50t-4.5 79q0 41 2.5 86t6.5 92q0 45 45 94q98 106 98 152q0 49 -15.5 110.5t-15.5 94.5q0 27 9.5 40t21.5 31q57 -4 104.5 -6t76 -12t28.5 -29 v-18q6 -6 47 -6q12 0 62.5 20.5t70.5 30.5l-51 20q12 27 20 41q18 31 41 31q33 0 119 -76q41 -37 76 -37t63 9q39 14 60 22h235v-399q-14 -16 -14 -31q6 -18 6 -27q0 -16 -33 -34q27 -53 41.5 -191.5t51.5 -197.5q78 -90 94 -115q24 -34 24 -152v-10v-133q-55 0 -136 -25.5 t-126 -25.5l-92 358q41 37 66 62q47 47 47 71q0 117 -50 322q-66 272 -73 334h-92l-82 -21q0 -217 -13.5 -310t-48.5 -151q-14 8 -76.5 34t-87.5 38q10 20 50 78q63 94 63 137q0 12 -25.5 89t-25.5 116h-277q-2 -16 -3 -40t-1 -38q0 -37 4 -128t4 -97q0 -102 -24 -158 q-10 -23 -30.5 -29t-41.5 -12q-12 -20 -16 -105t-4 -163v-60q0 -31 45 -53q98 -47 98 -80q0 -25 -6 -46t-35 -97q-160 45 -317 92z" />
<glyph unicode="n" horiz-adv-x="1105" d="M72 1126v205q8 2 32.5 6t38.5 4q41 -6 62 -10q61 -12 71 -20q35 0 56 -17q33 -33 67 -65q-20 -47 -40.5 -97.5t-20.5 -101.5v-30.5t2 -24.5q0 -18 -2 -33h123q12 8 86 82q61 61 98 61q8 0 20.5 -6t20.5 -6h256q35 0 52.5 -3t21.5 -3l49 4v-78l-92 -338q-27 20 -50.5 36 t-31.5 16q-10 0 -23.5 -5.5t-17.5 -5.5v-481l-21 -61h-51l-71 30v287q-4 6 -22.5 8t-18.5 13q0 70 47 139q133 197 137 209q-4 2 -80 53q-25 16 -74 49q-43 0 -125 -82t-110 -82q-18 0 -45 20.5t-47 20.5q-18 0 -34 -4t-28 -6v-143q29 -201 33 -215q31 -104 121 -154 q-66 -66 -99 -104q-47 -57 -86 -121h-153q6 45 18.5 149.5t12.5 147.5q0 66 -13 147q-29 193 -28 248q0 80 46 148.5t46 142.5q0 10 -5 23.5t-5 17.5q-25 4 -53.5 10t-69.5 20z" />
<glyph unicode="o" horiz-adv-x="1044" d="M61 1116q0 98 23 160q35 96 111 96q47 0 149 37q57 20 96 21l160 4q68 0 119 -29q78 -45 110 -53q92 -41 185 -82v-215q-20 -35 -144 -90q-57 -27 -82 -64q-8 -10 -8 -57q0 -29 4 -78t4 -53q0 -27 -3 -82.5t-3 -57.5q0 -43 3 -59t14 -33q4 -8 43 -22.5t39 -38.5 q0 -70 -29 -184.5t-64 -184.5q-31 8 -260 19.5t-292 62.5q-16 14 -23.5 42t-7.5 69q0 39 3 73.5t7 81.5q-82 0 -111 58q-20 41 -20 127v40.5t2 41.5v20q-4 14 -4 21v327q-4 16 -12.5 41t-8.5 41zM205 604q88 -29 164 -229q68 -180 204 -181q76 0 109 76q25 57 25 150 q0 18 -19.5 37.5t-21.5 34.5q-27 145 -49.5 302.5t-22.5 260.5q0 12 61 53q21 12 62 39q8 14 8 31q0 8 -4 28.5t-4 32.5q-20 -2 -45 -2h-39h-72t-69 2q-61 0 -94 -110.5t-81 -135.5l-112 -10v-379z" />
<glyph unicode="p" horiz-adv-x="1064" d="M102 -82v287q16 31 33 61q16 20 39 21q12 0 26.5 -8.5t24.5 -12.5v62l-20 112v471l-31 82q23 20 23 35q0 6 10 6h39q31 0 43 -1t55 -9q-2 -12 -2 -26.5v-22.5v-44.5t2 -39.5h209q25 0 61 -21q90 -51 103 -51q33 0 51 20.5t72 20.5q53 0 98 -24.5t45 -67.5 q0 -100 -113 -262q-72 -100 -92 -148q-10 -27 -18 -51q-20 -41 -43 -41q-49 0 -176 41t-193 41q-10 0 -22.5 -9t-18.5 -11q25 -174 51 -348q0 -20 -10 -62v-266l-20 -51q-80 27 -118 34t-77 7q0 70 -6 124t-25 152zM266 543q0 -29 74 -81t100 -52q45 0 99.5 66.5t95.5 66.5 q25 0 44 -24.5t38 -47.5q2 10 11 22.5t9 18.5q0 4 19 47q26 60 26 84q0 9 -4 12q-25 35 -70.5 45.5t-115.5 10.5h-31q-70 0 -110.5 10t-71.5 47q-39 -27 -76 -100.5t-37 -124.5z" />
<glyph unicode="q" horiz-adv-x="1136" d="M123 492v143q37 47 54.5 80t17.5 84q0 14 -8.5 32.5t-12.5 28.5l-31 -41h11q4 53 10 109q0 18 -10.5 56t-10.5 56q0 139 101 211q68 49 227 90q14 4 32.5 22.5t35.5 18.5q16 0 76.5 -44t60.5 -58q0 -8 -10.5 -20.5t-10.5 -20.5q0 -70 74 -197q55 -92 111 -182 q23 -41 31 -146.5t10 -119.5l-246 -502q16 -63 23.5 -108t7.5 -107h112q86 113 174 225q29 -16 49 -45q31 -49 64 -98q21 -4 41 -10q0 -41 -15.5 -127t-15.5 -119l-553 41l-82 113q14 25 16.5 134t24.5 132l11 143l112 113l-61 123q-37 -14 -58 -15q-18 0 -30.5 12.5 t-22.5 12.5q-8 0 -21.5 -5t-31.5 -15h-256zM307 1055q0 -88 43 -209q53 -150 121 -150q72 -35 145 -67q29 -8 60 -15q0 37 15.5 85.5t15.5 68.5q-2 31 -2 35q0 2 10 10.5t22 26.5q-25 25 -80 129q-68 129 -135 260q-63 -29 -123 -70q-92 -63 -92 -104z" />
<glyph unicode="r" horiz-adv-x="921" d="M154 1444q0 6 2 14q29 23 59 47q4 -2 55 -49q14 -14 47 -43q29 0 70 20.5t74 20.5q16 0 125 -72q94 -61 131 -92l112 -164q29 -18 72 -20t72 -21l-92 -133l-93 -10q-20 4 -55 33t-57 29q0 98 -37 150t-127 106q-14 -31 -45 -64q-47 -49 -47 -121q0 -90 15.5 -247.5 t15.5 -211.5q0 -47 -20.5 -131t-20.5 -112q0 -27 15 -42.5t52 -15.5q31 0 86 13l-41 -226l-317 72l-21 399q10 -10 21 -10q47 0 85 155.5t38 336.5q-66 195 -105 292t-69 97z" />
<glyph unicode="s" horiz-adv-x="1075" d="M102 983q0 59 61.5 127t119.5 68q39 0 64.5 11t29.5 11q12 0 43 -12h389l31 -195q-8 -51 -64.5 -73.5t-79.5 -59.5q-84 31 -200 115q-96 70 -220 90q0 -10 -5 -23.5t-5 -17.5q0 -106 115 -203q100 -84 213 -104h338q49 -47 75.5 -98t26.5 -117q0 -57 -12 -129 q-29 -166 -29 -219q-12 0 -58 2t-75 2q-41 0 -67.5 -3t-44.5 -12q-2 -2 -89 -82q-32 -30 -54 -30h-1q-27 0 -54.5 -1t-55.5 -1q-209 0 -285 48t-76 138l10 88l205 -20v-78q6 10 17 10q17 0 75 -40q49 -33 73 -33q5 0 9 1q150 57 217 99q152 90 152 188q0 31 -15.5 56.5 t-25.5 45.5q-16 -6 -51 -30.5t-72 -50.5q-43 0 -98 47q-43 37 -86 75q-90 63 -181 129q-109 66 -219 66l31 102q0 23 -47 68q-25 25 -25 45z" />
<glyph unicode="t" horiz-adv-x="747" d="M-12 1362q0 20 10 28.5t43 8.5q41 0 105.5 -5t72.5 -5q51 0 88 10q-25 55 -61 106v82h225q25 -141 88 -166q78 -20 158 -39v-163q-24 36 -83 36h-3q-37 0 -123 -18t-127 -18h-23q-4 -29 -4 -43q0 -66 27 -179q59 -252 59 -301q0 -57 -75 -196q-37 -68 -37 -125 q0 -109 94 -195l90 -78l10 -51h-246l-71 -10q0 68 -31 174.5t-31 163.5q0 49 90 199q43 72 43 129q-25 18 -36 28q-39 33 -45 43q-14 27 -19.5 81t-5.5 145q0 51 1 108t3 123h-174q-4 37 -7 61.5t-3 30.5q-2 25 -2 35z" />
<glyph unicode="u" horiz-adv-x="1054" d="M113 1014v184l163 -20l31 -359q25 -47 33 -119q20 -188 30.5 -225t69 -114.5t72.5 -114.5q98 14 119 51q16 66 35 123q8 25 77 119q55 74 56 147q0 39 -41 133q-20 47 -21 82q0 39 13.5 81t27.5 83l-41 20h215q31 -23 41 -30q21 -16 21 -51q0 -41 -43 -121 q-27 -47 -29 -74q-31 -266 -61 -533q0 -29 18 -55q10 -14 43 -47v-164q-61 0 -140 66.5t-147 66.5q-51 0 -124.5 -30.5t-110.5 -30.5q-41 0 -131 121q-76 102 -105 166v471q-14 55 -37.5 80.5t-33.5 93.5z" />
<glyph unicode="v" horiz-adv-x="1105" d="M72 1065q8 0 18 12q27 29 33 29h72q10 0 22 -10.5t19 -10.5q-2 -4 -16.5 -16t-14.5 -25q0 -162 102 -256l123 31q66 -20 81 -84.5t32 -130.5q45 -119 90 -235q66 -145 145 -195q20 53 53 283q14 98 39 168q14 37 16.5 89t14.5 85q-27 0 -55.5 8t-57.5 8l-40 250l327 61 q-14 -92 -22.5 -135t-28.5 -110v-308q-82 -256 -133 -364q-90 -188 -318 -189q-37 0 -57 60q-8 27 -16 55.5t-47 104.5q-57 113 -64 190h-143q0 66 -31 127q-37 74 -41 109q-10 94 -27 163q-8 39 -75 236z" />
<glyph unicode="w" horiz-adv-x="1163" d="M31 1044l41 -30q16 23 27.5 36t33.5 35q8 -49 8 -120v-86t3 -68t124 -438q49 -166 49 -291q51 10 109 10q10 0 47 -10t39 -10q25 0 36 32.5t15 38.5q45 78 60 99q35 49 84 75l41 -10q-25 -43 -37 -67q-25 -49 -25 -76q0 -66 113.5 -85.5t132.5 -37.5q51 125 51 262 q0 35 -27 105q-14 37 -14 53q0 74 61.5 208t112.5 191h123l51 -10q-14 8 -37.5 15t-56.5 7q-45 -2 -68 -2q-41 0 -73 11q-8 2 -14.5 21.5t-16.5 19.5q-20 -6 -41 -11q-16 -20 -31 -41q0 -10 9 -16q23 -16 22 -25l-82 -81q-31 -35 -48 -145.5t-34 -141.5l-86 -10l-31 337 h-129q-2 -12 31 -202q11 -67 11 -93q0 -8 -1 -12q-12 -43 -55 -69.5t-57 -83.5l-113 61v184q6 31 18.5 101.5t12.5 103.5q0 39 -49 66q-66 35 -74 47q-23 31 -40 95.5t-32 119.5l21 41q-78 -27 -113 -39q-63 -25 -102 -64z" />
<glyph unicode="x" horiz-adv-x="1228" d="M10 983v51q76 18 111 27q63 14 121 14h34q16 -4 31 -19.5t53 -144.5q18 -59 38 -80.5t66 -38t68 -65.5q33 23 41.5 28t18.5 5t24.5 -1t34.5 -1q55 0 117 -10q-6 -43 -6 -66q0 -25 6 -68l236 287q37 -10 58 -16t44 -15q14 39 24.5 65t26.5 58l133 -82q-55 -76 -102 -139 q-96 -127 -123 -127q-8 0 -20.5 10.5t-20.5 10.5h-102q-4 -23 -29 -107q-12 -41 -12 -51q0 -66 139 -211q80 -84 96 -113q-23 0 -60.5 -5t-41.5 -5q-53 0 -94 107q-51 131 -60.5 140t-54.5 18.5t-68 11.5q-47 -186 -55 -211q-18 -55 -57 -117q-20 2 -36 2h-22q-23 0 -45 -1 t-45 -1h-57q-51 0 -77 -16.5t-46 -75.5q-23 18 -43 37q-4 6 -29 45q70 39 92 57q41 35 62 86l20 113q12 10 133 45q92 27 93 78q0 25 -3.5 38t-17.5 23q-129 66 -256 133q-33 49 -52.5 70.5t-49.5 21.5q-18 0 -29 -4q-27 -16 -43 -26q-51 51 -94 112.5t-70 122.5z" />
<glyph unicode="y" horiz-adv-x="1454" d="M51 -190l133 -15q10 -6 19 -6q20 0 53 53.5t53 53.5q6 0 19 -9l194 21l123 143q-31 27 -47 41q-35 31 -35 51q0 10 5 23.5t5 17.5q0 66 -10 99q-16 55 -61 55q-10 0 -22.5 -10.5t-18.5 -10.5q-45 121 -185 324q-88 129 -122 188q16 6 33.5 13.5t37.5 7.5q29 0 131 -152 q90 -133 105 -166q10 10 38.5 37t63.5 56q72 -141 105 -209q59 -121 59 -242h123q47 37 113 170q174 350 174 352q18 43 31.5 62.5t29.5 19.5q37 0 150 -41q57 -20 96 -20v-62q-45 -80 -76 -127q-59 -88 -108 -88q-16 0 -35 6q-43 14 -58 15q-41 0 -84 -80 q-51 -109 -100 -217q-211 -215 -420 -430q-39 20 -59 30q-39 20 -64 21q-74 0 -143.5 -41t-132.5 -82q-43 49 -62 72q-33 41 -51 76z" />
<glyph unicode="z" horiz-adv-x="1310" d="M123 1106q47 6 126 44t140 38q76 0 141.5 -11.5t114.5 -39.5q14 -8 24.5 -36t26.5 -36q66 -29 117 -40t96 -11h48.5t52.5 2q35 0 68.5 -2t78.5 -10q-47 -57 -153 -156q-141 -131 -185 -131q-31 0 -84 51t-90 51q-31 0 -55 -55q-31 -66 -47 -78q-111 -80 -183 -174 q-45 -59 -135 -215v-154q10 -2 21.5 -11t19.5 -9q23 0 47 24q55 57 76 58q16 0 78 -31q78 -41 158 -82h522v225q-63 0 -174 76q-53 37 -92 37t-88 -45q-106 -98 -148 -98q-14 0 -90 30.5t-104 30.5q0 55 22.5 63.5t38.5 28.5q10 12 31.5 17.5t54.5 5.5q29 -2 37 -2 q27 0 27 10q0 8 -30 40t-18 42q16 14 21.5 63.5t40.5 49.5q43 0 98 -26t86 -26q25 0 125 76q49 37 90 37l82 -31q33 80 52.5 237t19.5 265q0 39 -65.5 86t-108.5 47q-41 0 -90.5 -71.5t-94.5 -71.5l-133 51q-31 10 -49 10q-12 0 -18 -11t-19 -11q-10 0 -47 12q-10 4 -125 98 q-43 35 -80 35q-39 0 -94 -14q-139 -37 -182 -37q8 -57 8 -109q0 -51 -8 -106z" />
<glyph unicode="&#xa0;" />
<glyph unicode="&#xad;" horiz-adv-x="829" d="M123 717v133q12 2 55 2h29q14 0 35.5 1t38 6t86.5 73q31 31 43 31q23 0 41 -19.5t41 -42.5q12 -4 44.5 -1t65.5 7q29 0 33 -6q20 -23 49 -65q10 -15 104 -48q-23 -20 -34 -24t-37 -57q-59 25 -144 36q-127 18 -148.5 23.5t-46 24t-40.5 18.5q-37 0 -115 -39 q-51 -27 -100 -53z" />
<glyph unicode="&#x2000;" horiz-adv-x="819" />
<glyph unicode="&#x2001;" horiz-adv-x="1638" />
<glyph unicode="&#x2002;" horiz-adv-x="819" />
<glyph unicode="&#x2003;" horiz-adv-x="1638" />
<glyph unicode="&#x2004;" horiz-adv-x="546" />
<glyph unicode="&#x2005;" horiz-adv-x="409" />
<glyph unicode="&#x2006;" horiz-adv-x="273" />
<glyph unicode="&#x2007;" horiz-adv-x="273" />
<glyph unicode="&#x2008;" horiz-adv-x="204" />
<glyph unicode="&#x2009;" horiz-adv-x="327" />
<glyph unicode="&#x200a;" horiz-adv-x="91" />
<glyph unicode="&#x2010;" horiz-adv-x="829" d="M123 717v133q12 2 55 2h29q14 0 35.5 1t38 6t86.5 73q31 31 43 31q23 0 41 -19.5t41 -42.5q12 -4 44.5 -1t65.5 7q29 0 33 -6q20 -23 49 -65q10 -15 104 -48q-23 -20 -34 -24t-37 -57q-59 25 -144 36q-127 18 -148.5 23.5t-46 24t-40.5 18.5q-37 0 -115 -39 q-51 -27 -100 -53z" />
<glyph unicode="&#x2011;" horiz-adv-x="829" d="M123 717v133q12 2 55 2h29q14 0 35.5 1t38 6t86.5 73q31 31 43 31q23 0 41 -19.5t41 -42.5q12 -4 44.5 -1t65.5 7q29 0 33 -6q20 -23 49 -65q10 -15 104 -48q-23 -20 -34 -24t-37 -57q-59 25 -144 36q-127 18 -148.5 23.5t-46 24t-40.5 18.5q-37 0 -115 -39 q-51 -27 -100 -53z" />
<glyph unicode="&#x2012;" horiz-adv-x="829" d="M123 717v133q12 2 55 2h29q14 0 35.5 1t38 6t86.5 73q31 31 43 31q23 0 41 -19.5t41 -42.5q12 -4 44.5 -1t65.5 7q29 0 33 -6q20 -23 49 -65q10 -15 104 -48q-23 -20 -34 -24t-37 -57q-59 25 -144 36q-127 18 -148.5 23.5t-46 24t-40.5 18.5q-37 0 -115 -39 q-51 -27 -100 -53z" />
<glyph unicode="&#x2013;" horiz-adv-x="1188" d="M123 717v133q18 2 85 2h44q22 0 55 1t58.5 6t133.5 73q47 31 66 31q35 0 63 -19.5t63 -42.5q19 -4 69 -1t101 7q44 0 50 -6q31 -23 76 -65q15 -15 160 -48q-35 -20 -52 -24t-57 -57q-91 25 -222 36q-196 18 -229 23.5t-70.5 24t-62.5 18.5q-57 0 -177 -39 q-79 -27 -154 -53z" />
<glyph unicode="&#x2014;" horiz-adv-x="2212" d="M123 717v133q37 2 169 2h90q43 0 109 1t117 6t266 73q96 31 133 31q71 0 126.5 -19.5t125.5 -42.5q37 -4 137.5 -1t201.5 7q89 0 102 -6q61 -23 151 -65q31 -15 320 -48q-71 -20 -105 -24t-114 -57q-181 25 -443 36q-391 18 -457.5 23.5t-142 24t-124.5 18.5 q-114 0 -354 -39q-157 -27 -308 -53z" />
<glyph unicode="&#x202f;" horiz-adv-x="327" />
<glyph unicode="&#x205f;" horiz-adv-x="409" />
<glyph unicode="&#x25fc;" horiz-adv-x="1075" d="M0 0v1075h1075v-1075h-1075z" />
</font>
</defs>
</svg>
