<?xml version="1.0" standalone="no"?>
<!DOCTYPE svg PUBLIC "-//W3C//DTD SVG 1.1//EN" "http://www.w3.org/Graphics/SVG/1.1/DTD/svg11.dtd" >
<svg xmlns="http://www.w3.org/2000/svg">
<metadata></metadata>
<defs>
<font id="ragg_mopp_nfregular" horiz-adv-x="1523" >
<font-face units-per-em="2048" ascent="1434" descent="-614" />
<missing-glyph horiz-adv-x="454" />
<glyph horiz-adv-x="0" />
<glyph horiz-adv-x="682" />
<glyph unicode=" "  horiz-adv-x="454" />
<glyph unicode="&#x09;" horiz-adv-x="454" />
<glyph unicode="&#xa0;" horiz-adv-x="454" />
<glyph unicode="!" horiz-adv-x="532" d="M49 963q0 111 58.5 186.5t156.5 75.5q106 0 162.5 -73t56.5 -189q0 -80 -40.5 -212t-94 -233.5t-86.5 -101.5q-36 0 -87.5 103t-88.5 234t-37 210zM100 152q0 71 51 121.5t123 50.5q70 0 121 -51t51 -121q0 -72 -50.5 -123.5t-121.5 -51.5q-72 0 -123 51.5t-51 123.5z " />
<glyph unicode="&#x22;" horiz-adv-x="681" d="M49 1147q0 56 41.5 95.5t97.5 39.5q57 0 97.5 -41t40.5 -98q-1 -41 -10.5 -86.5t-25.5 -103t-22 -85.5t-30.5 -45.5t-55.5 -17.5q-30 0 -55 19t-29 46q-5 24 -19 83t-22 106t-8 88zM356 1147q0 56 42 95.5t98 39.5q57 0 97 -41t40 -98q-1 -41 -10.5 -86.5t-25.5 -103 t-22 -85.5t-30.5 -45.5t-55.5 -17.5q-30 0 -54.5 19t-28.5 46q-5 25 -19 83t-22.5 105.5t-8.5 88.5z" />
<glyph unicode="#" horiz-adv-x="1198" d="M49 414l39 161h229l52 211h-228l41 160h228l71 291h162l-74 -291h191l71 291h162l-73 -291h229l-41 -160h-227l-54 -211h230l-41 -161h-228l-92 -367h-161l92 367h-189l-92 -367h-162l92 367h-227zM477 575h191l51 211h-189z" />
<glyph unicode="$" horiz-adv-x="1155" d="M49 377q0 178 86 178q28 0 47 -19.5t25 -50.5q12 -73 58 -144.5t110 -111.5l71 250q-49 25 -73 38t-67 39t-65.5 46t-52.5 52t-45 64t-26 75t-11 92q0 119 71 215.5t180.5 147t230.5 50.5q44 0 90 -6l24 86q7 28 26 42t42 14q29 0 50.5 -19.5t21.5 -50.5q0 -15 -2 -23 l-25 -88q56 -21 109 -59v8q0 3 -1 8t-1 7q0 30 19.5 48t49.5 21q76 0 76 -117q0 -94 -41.5 -183.5t-114.5 -154.5q-23 -20 -51 -20q-26 0 -47.5 19.5t-21.5 46.5q0 16 21.5 54.5t21.5 63.5q0 56 -62 107l-74 -266q101 -55 166 -97t125 -95t88.5 -111.5t28.5 -126.5 q0 -97 -52 -178.5t-134.5 -132.5t-179.5 -79t-191 -28q-45 0 -92 6l-29 -96q-17 -56 -68 -56q-28 0 -50.5 17.5t-22.5 50.5q0 8 4 24l26 93l-12 4q-19 -39 -63 -39q-53 0 -100 77.5t-70 165t-23 142.5zM512 190q50 3 78 36.5t28 86.5q0 51 -45 93zM520 999q0 -48 49 -88 l60 213q-44 -11 -76.5 -46t-32.5 -79z" />
<glyph unicode="%" horiz-adv-x="1376" d="M49 885q0 82 34.5 159.5t103 130t155.5 52.5q85 0 153 -50t104 -127t36 -163q0 -83 -34 -160t-102.5 -129.5t-156.5 -52.5q-126 0 -209.5 103.5t-83.5 236.5zM217 0l746 1219h192l-747 -1219h-191zM293 874q0 -71 12 -120t37 -49t37 50.5t12 123.5q0 75 -13 130.5 t-36 55.5t-36 -57t-13 -134zM741 322q0 82 34.5 159.5t103 130t155.5 52.5q85 0 153 -50.5t104 -128t36 -163.5q0 -82 -34.5 -159.5t-103 -130t-155.5 -52.5q-85 0 -153 50.5t-104 128t-36 163.5zM985 309q0 -71 12 -119.5t37 -48.5t38 50t13 122q0 75 -14 132t-37 57 q-22 0 -35.5 -58.5t-13.5 -134.5z" />
<glyph unicode="&#x26;" horiz-adv-x="1615" d="M49 440q0 119 63.5 221t168.5 173q-68 81 -68 182q0 80 35.5 146t94 108t130.5 65t148 23q114 0 212.5 -45t98.5 -115q0 -47 -36 -84t-83 -37q-26 0 -47 10.5t-33 23.5t-36.5 23.5t-57.5 10.5q-60 0 -98.5 -33.5t-38.5 -95.5q0 -38 19.5 -65t47.5 -42t56 -28.5 t47.5 -35.5t19.5 -54q0 -42 -29 -75.5t-71 -33.5q-4 0 -59 12t-62 15q-82 -91 -82 -224q0 -165 112 -254.5t285 -89.5q62 0 124 25t106.5 78t44.5 121q0 66 -26.5 102.5t-92.5 36.5q-35 0 -55.5 -17.5t-29 -42l-17 -49t-28.5 -42t-54 -17.5q-40 0 -64 27.5t-24 68.5 q0 52 22 98.5t59 83t85 70t100.5 62t105.5 55t101 53t85 53.5t59 58.5t22 64.5q0 45 -47 45q-24 0 -58.5 -19.5t-56.5 -19.5q-35 0 -60.5 28t-25.5 64q0 44 52.5 79.5t113 51t104.5 15.5q104 0 170 -65.5t66 -168.5q0 -206 -353 -376q132 -119 132 -277q0 -110 -61.5 -201.5 t-157.5 -148t-206.5 -87t-215.5 -30.5q-87 0 -177.5 21t-176.5 64.5t-153 104t-108 146.5t-41 184z" />
<glyph unicode="'" horiz-adv-x="374" d="M49 1147q0 56 41.5 95.5t97.5 39.5q57 0 97.5 -41t40.5 -98q-1 -41 -10.5 -86.5t-25.5 -103t-22 -85.5t-30.5 -45.5t-55.5 -17.5q-30 0 -55 19t-29 46q-5 24 -19 83t-22 106t-8 88z" />
<glyph unicode="(" horiz-adv-x="952" d="M49 420q0 97 19.5 198.5t56 201t94.5 187t130.5 154t169 105.5t204.5 39q180 0 180 -86q0 -28 -21 -49t-51 -21q-15 0 -45 5.5t-41 6.5q-75 -7 -133.5 -59.5t-93.5 -128.5t-57.5 -176t-30.5 -191.5t-8 -185.5t8 -185t30.5 -191.5t57 -176.5t93.5 -128t134 -58q17 0 41 4 t33 4q30 0 50 -21t20 -49q0 -82 -166 -82q-108 0 -204.5 39t-169 105.5t-130.5 154t-94.5 186.5t-56 200t-19.5 198z" />
<glyph unicode=")" horiz-adv-x="952" d="M49 1219q0 86 180 86q108 0 204.5 -39t169 -105.5t130.5 -154t94.5 -187t56 -201t19.5 -198.5t-19.5 -198t-56 -200t-94.5 -186.5t-130.5 -154t-169 -105.5t-204.5 -39q-166 0 -166 82q0 28 20 49t50 21q9 0 33 -4t41 -4q75 6 134 58t93.5 128t57 176.5t30.5 191.5t8 185 t-8 185.5t-30.5 191.5t-57.5 176t-93.5 128.5t-133.5 59.5q-11 -1 -41 -6.5t-45 -5.5q-30 0 -51 21t-21 49z" />
<glyph unicode="*" horiz-adv-x="761" d="M49 1010q0 29 20 50t50 21q6 0 26 -4l164 -53v172q0 35 21.5 54.5t50.5 19.5t50.5 -19.5t21.5 -54.5v-172l163 53q16 4 27 4q27 0 48.5 -21t21.5 -50q0 -50 -54 -68l-163 -53l102 -139q16 -26 16 -45q0 -29 -21.5 -50.5t-49.5 -21.5q-37 0 -60 33l-102 139l-102 -139 q-23 -33 -58 -33q-30 0 -52 21t-22 51q0 18 17 45l102 139l-164 53q-53 17 -53 68z" />
<glyph unicode="+" horiz-adv-x="1116" d="M49 426v242h389v387h240v-387h389v-242h-389v-389h-240v389h-389z" />
<glyph unicode="," horiz-adv-x="442" d="M49 150q0 73 49.5 123.5t122.5 50.5q71 0 121.5 -52.5t50.5 -128.5q0 -116 -41 -204.5t-123 -165.5q-24 -21 -47 -21q-25 0 -44 19t-19 45q0 24 44 70.5t44 68.5q0 24 -21 27q-61 12 -99 59.5t-38 108.5z" />
<glyph unicode="-" horiz-adv-x="669" d="M49 430q0 7 4 23l51 188q5 21 25 37t43 16h303l6 19q17 55 68 55q29 0 50.5 -20t21.5 -50q0 -8 -3 -20l-51 -189q-6 -20 -26.5 -36.5t-40.5 -16.5h-303l-7 -18q-20 -56 -69 -56q-27 0 -49.5 20t-22.5 48z" />
<glyph unicode="." horiz-adv-x="444" d="M49 152q0 71 51 121.5t123 50.5q71 0 121.5 -51t50.5 -121q0 -72 -50.5 -123.5t-121.5 -51.5q-72 0 -123 51.5t-51 123.5z" />
<glyph unicode="/" horiz-adv-x="976" d="M49 -268l653 1659l226 -86l-654 -1659z" />
<glyph unicode="0" horiz-adv-x="1093" d="M49 623q0 83 19 165.5t59 157t95 131.5t132.5 91t167.5 34q145 0 267 -94.5t188.5 -241t66.5 -305.5q0 -105 -31 -206.5t-88 -185.5t-148 -135.5t-202 -51.5q-118 0 -219.5 59t-167 152.5t-102.5 206t-37 223.5zM338 721q0 -40 9 -102.5t31 -139.5t52.5 -142.5t79 -110 t104.5 -44.5q65 0 104.5 79t39.5 202q0 40 -9.5 102t-31 138t-52 141.5t-78.5 110t-104 44.5q-67 0 -106 -76.5t-39 -201.5z" />
<glyph unicode="1" horiz-adv-x="671" d="M49 1014q0 28 15 50t45 32l270 92q16 4 27 4q36 0 63 -26t27 -62v-916q21 9 41 9q35 0 60.5 -25.5t25.5 -62.5q0 -43 -43 -71.5t-105.5 -40t-138.5 -11.5t-138 11.5t-104.5 40t-42.5 71.5q0 36 24.5 62t61.5 26q24 0 58 -15v711q0 14 -9 22.5t-24 8.5h-23q-42 0 -66 26.5 t-24 63.5z" />
<glyph unicode="2" horiz-adv-x="1042" d="M49 92q0 35 23 58l44.5 44.5l60 60t65 67t73 79t69 80t69.5 87t57.5 84.5t49.5 86.5t29.5 78t12.5 74.5q0 57 -41 91t-96 34q-51 0 -93 -21t-69.5 -51t-51.5 -59.5t-49 -50.5t-52 -21q-35 0 -63 25.5t-28 62.5q0 20 17 51q70 122 197.5 193.5t269.5 71.5q165 0 278 -90.5 t113 -239.5q0 -52 -17.5 -106.5t-41.5 -100t-68 -99t-78.5 -90t-93 -88t-90 -78t-90.5 -73.5h360q0 53 23.5 80.5t62.5 27.5q37 0 64 -24.5t28 -69.5q0 -68 -31 -159.5t-86 -163.5t-112 -72q-35 0 -61.5 27t-26.5 61q0 23 10 41h-549q-38 0 -63 27.5t-25 64.5z" />
<glyph unicode="3" horiz-adv-x="1044" d="M49 -25q0 36 24.5 62t61.5 26q22 0 41 -8q105 -43 215 -43q77 0 140.5 24.5t107 82t43.5 141.5q0 96 -56 155.5t-149 59.5q-18 0 -54.5 -3t-55.5 -3q-46 0 -72.5 24t-26.5 60q0 37 22 63t68 29q96 5 161 70t65 166q0 58 -37.5 99.5t-110.5 41.5q-49 0 -104.5 -28 t-101 -55.5t-68.5 -27.5q-36 0 -62 26t-26 62q0 50 71.5 100.5t175 81.5t195.5 31q166 0 277.5 -86.5t111.5 -220.5q0 -78 -42 -153t-109 -134q157 -58 213 -192q28 -66 28 -139q0 -104 -55 -192t-141.5 -143t-188.5 -85.5t-202 -30.5q-56 0 -114.5 7.5t-115.5 22.5 t-93 43.5t-36 65.5z" />
<glyph unicode="4" horiz-adv-x="1142" d="M49 184q0 22 17 49l587 840q19 27 31 42.5t33 36t43.5 30.5t48.5 10q67 0 97 -47.5t30 -114.5v-727h63q39 0 67 -34.5t28 -80.5q0 -40 -21.5 -67t-64.5 -27h-72v-219q0 -34 -27 -61t-61 -27h-125q-34 0 -61 27t-27 61v219h-496q-39 0 -64.5 27t-25.5 63zM332 303h303v432 z" />
<glyph unicode="5" horiz-adv-x="1005" d="M49 -8q0 36 28.5 64t61.5 28q19 0 35 -8q105 -60 193 -60q104 0 170.5 56.5t66.5 158.5q0 62 -28 106.5t-72 68t-98 39.5t-108 27t-98 25t-72 39.5t-28 63.5q0 7 4 23l170 526q8 25 27 35t64 10h503q36 0 62 -27t26 -63q0 -11 -4 -27q-1 -4 -6.5 -24t-8.5 -28t-10 -26 t-14 -26.5t-17.5 -19t-24 -15t-29.5 -4.5h-451l-59 -186q58 -12 90.5 -19t89 -21.5t90.5 -27.5t82 -35.5t77.5 -46t62.5 -58t51.5 -74t30.5 -90.5t12 -110q0 -128 -75 -231.5t-190 -158t-241 -54.5q-47 0 -107 11.5t-118.5 31.5t-98 54t-39.5 73z" />
<glyph unicode="6" horiz-adv-x="1054" d="M49 496q0 362 295 667q67 70 138.5 128.5t111.5 58.5q34 0 59 -24.5t25 -59.5q0 -38 -35 -76q-183 -202 -244 -385q94 51 203 51q173 0 288.5 -125.5t115.5 -316.5q-12 -183 -159 -307.5t-333 -124.5q-106 0 -195 42.5t-147 113.5t-90.5 163.5t-32.5 194.5zM377 438 q0 -28 11 -69.5t31.5 -86t58.5 -75.5t85 -31q68 0 101.5 61t33.5 138q0 53 -19.5 111t-64 104.5t-102.5 46.5q-48 0 -80 -32.5t-43.5 -75t-11.5 -91.5z" />
<glyph unicode="7" horiz-adv-x="1089" d="M49 928q0 69 32 159.5t87.5 160t112.5 69.5q35 0 60.5 -27t25.5 -61q0 -13 -9 -35h594q36 0 62 -27t26 -63q0 -16 -6 -31l-475 -1231q-9 -22 -35.5 -37.5t-52.5 -15.5q-50 0 -94 8.5t-80.5 35.5t-36.5 69q0 15 8 35l467 1017h-506q-1 -7 -5 -29.5t-6 -31t-8.5 -24.5 t-14.5 -22t-22.5 -12t-33.5 -6q-43 0 -66.5 28t-23.5 71z" />
<glyph unicode="8" horiz-adv-x="1036" d="M49 334q0 73 32 136.5t75.5 105t111.5 88.5q-174 125 -174 294q0 106 68 187.5t165.5 120.5t200.5 39q76 0 148 -18.5t133.5 -55.5t99 -100t37.5 -144q0 -91 -49 -160t-135 -129q50 -35 85.5 -66t70 -72.5t52 -90.5t17.5 -104q0 -89 -44 -164t-114 -121.5t-153.5 -72 t-167.5 -25.5q-67 0 -130.5 12.5t-123.5 40t-105.5 67.5t-72.5 100t-27 132zM330 350q0 -75 47 -128.5t133 -53.5q64 0 123 45.5t59 108.5q0 27 -13 53t-29 44.5t-46 40.5t-48.5 33t-52 30t-42.5 24q-63 -24 -97 -78.5t-34 -118.5zM401 997q0 -45 56.5 -96t113.5 -82 q34 29 48.5 43.5t31.5 44.5t17 62q0 66 -38 107.5t-104 41.5q-52 0 -88.5 -34.5t-36.5 -86.5z" />
<glyph unicode="9" horiz-adv-x="1054" d="M49 801q0 96 41.5 183t110 147t157.5 95.5t183 35.5q106 0 195 -42.5t147 -113.5t90.5 -163.5t32.5 -194.5q0 -181 -77 -352.5t-216 -315.5q-67 -70 -139 -129.5t-111 -59.5q-35 0 -60.5 24t-25.5 60q0 38 37 78q183 202 243 385q-94 -51 -202 -51q-177 0 -291.5 119.5 t-114.5 294.5zM356 866q0 -28 11 -69.5t32 -86t58.5 -75.5t83.5 -31q48 0 80.5 32.5t44.5 76t12 92.5q0 53 -19.5 111t-64 104.5t-102.5 46.5q-47 0 -79 -32.5t-44.5 -76t-12.5 -92.5z" />
<glyph unicode=":" horiz-adv-x="444" d="M49 152q0 71 51 121.5t123 50.5q71 0 121.5 -51t50.5 -121q0 -72 -50.5 -123.5t-121.5 -51.5q-72 0 -123 51.5t-51 123.5zM49 623q0 71 51 121.5t123 50.5q71 0 121.5 -50.5t50.5 -121.5q0 -72 -50.5 -123t-121.5 -51q-72 0 -123 51t-51 123z" />
<glyph unicode=";" horiz-adv-x="444" d="M49 623q0 71 51 121.5t123 50.5q71 0 121.5 -50.5t50.5 -121.5q0 -72 -50.5 -123t-121.5 -51q-72 0 -123 51t-51 123zM51 150q0 73 49.5 123.5t122.5 50.5q71 0 121.5 -52.5t50.5 -128.5q0 -116 -41 -204.5t-123 -165.5q-24 -21 -47 -21q-25 0 -44 19t-19 45 q0 24 44 70.5t44 68.5q0 24 -21 27q-61 12 -99 59.5t-38 108.5z" />
<glyph unicode="&#x3c;" horiz-adv-x="1136" d="M49 426v203l946 395l92 -221l-657 -277l657 -274l-92 -223z" />
<glyph unicode="=" horiz-adv-x="1116" d="M49 219v242h1018v-242h-1018zM49 623v241h1018v-241h-1018z" />
<glyph unicode="&#x3e;" horiz-adv-x="1136" d="M49 252l658 274l-658 277l92 221l946 -395v-203l-946 -397z" />
<glyph unicode="?" horiz-adv-x="931" d="M49 885q0 101 65.5 180.5t160 118.5t192.5 39q73 0 146.5 -24t134 -66.5t98 -109t37.5 -144.5q0 -93 -50.5 -156.5t-142.5 -110.5q-62 -32 -104 -71q-25 -23 -40.5 -66t-32 -69.5t-50.5 -26.5q-42 0 -67 43t-25 92q0 51 22.5 109t49 100t49 91.5t22.5 86.5 q0 53 -30 100.5t-81 47.5q-46 0 -69 -28.5t-30 -69.5t-15.5 -81.5t-36.5 -69t-80 -28.5q-48 0 -85.5 32.5t-37.5 80.5zM283 152q0 71 51 121.5t123 50.5q71 0 121.5 -51t50.5 -121q0 -72 -50.5 -123.5t-121.5 -51.5q-72 0 -123 51.5t-51 123.5z" />
<glyph unicode="@" horiz-adv-x="1492" d="M49 541q0 155 64 293.5t169.5 235t246.5 152.5t292 56q124 0 236.5 -39.5t198.5 -111t137 -180t51 -238.5q-1 -69 -20 -142t-56 -141.5t-86.5 -122.5t-117.5 -86.5t-144 -32.5q-118 0 -176 99q-105 -88 -219 -88q-117 0 -181.5 82.5t-64.5 195.5q0 115 58 226t155 182 t201 71q89 0 151 -47q35 27 60 27h92q32 0 56 -25.5t24 -58.5q0 -15 -2 -21q-3 -11 -39 -125t-62 -203.5t-26 -109.5q0 -13 7 -22t19 -9q90 29 147.5 138.5t57.5 212.5q0 127 -64.5 221t-165 139t-219.5 45q-152 0 -282 -75t-206.5 -206t-76.5 -286q0 -133 63 -245 t174.5 -178.5t246.5 -66.5q269 0 462 140q23 18 56 18t56.5 -24.5t23.5 -57.5q0 -41 -39 -70q-229 -169 -553 -169q-195 0 -356.5 85t-255 233.5t-93.5 328.5zM653 461q0 -24 9 -49t26 -25q40 0 75 37.5t56 90.5t33 106t12 90q0 25 -9.5 46t-31.5 21q-30 0 -70.5 -52.5 t-70 -128.5t-29.5 -136z" />
<glyph unicode="A" d="M49 96q0 37 23 63.5t71 26.5h43q25 0 48.5 21.5t33.5 46.5q9 24 41.5 108t44 114.5t38 102.5t40.5 113t35 102t37 115t31 109q0 25 -18 37t-43.5 15t-51.5 7t-44 21t-18 49q0 38 24 67t65 29q31 0 94 -5t94 -5q40 0 95.5 3t72.5 3q55 0 84.5 -8t40 -19.5t18.5 -35.5 q21 -62 130 -404.5t177 -517.5q10 -25 33.5 -44.5t48.5 -19.5h39q97 0 97 -90q0 -57 -91 -81.5t-264 -24.5q-228 0 -309.5 18t-81.5 84q0 92 102 92h35l-43 218h-291q-49 -169 -49 -213q0 -7 21 -7q6 0 19 1t20 1q36 -1 56.5 -27.5t20.5 -62.5q0 -23 -8.5 -39.5t-27.5 -27.5 t-41.5 -17.5t-59 -10t-71 -4.5t-86.5 -1q-72 0 -114.5 3t-83.5 12.5t-59 29.5t-18 53zM584 582h202l-77 399q-3 -11 -48.5 -153.5t-76.5 -245.5z" />
<glyph unicode="B" horiz-adv-x="1349" d="M49 1149q0 38 23.5 66t64.5 27q45 0 134.5 -4.5t134.5 -4.5q47 0 140 5t140 4q109 0 208.5 -35.5t165.5 -107t66 -161.5q0 -100 -79 -176q95 -47 159 -123q94 -118 94 -250q0 -175 -155 -301q-144 -117 -365 -117q-64 0 -198 16.5t-205 16.5q-41 0 -122.5 -6t-121.5 -6 q-82 0 -82 96q0 54 25 70t74 16h34q62 0 62 444q0 194 -25 396q-3 30 -22 43t-44 15t-49 4.5t-40.5 19.5t-16.5 53zM557 610q4 -245 23 -399q68 -68 143 -68q87 0 151 77t64 175q0 92 -64 162q-61 66 -169 66q-29 0 -84.5 -6t-63.5 -7zM565 803h111q51 0 91 37t40 84 q0 44 -39 80t-98 36q-48 0 -90 -28q-2 -18 -15 -209z" />
<glyph unicode="C" horiz-adv-x="1271" d="M49 602q0 182 88 338.5t241.5 249t336.5 92.5q267 0 481 -168q8 -6 17.5 -26.5t9.5 -30.5q-2 -59 -28 -138t-69 -140.5t-84 -61.5q-28 0 -51.5 24t-23.5 52q0 13 17 44t17 60q0 76 -49.5 127t-130.5 51q-68 0 -125.5 -27.5t-97 -72.5t-67 -105t-40 -123.5t-12.5 -128.5 q0 -138 43 -254t134 -191t216 -75q92 0 191 62q21 12 41 12q30 0 50 -21.5t20 -50.5q0 -53 -77.5 -94.5t-179.5 -60.5t-200 -19q-183 0 -337 92t-242.5 247.5t-88.5 336.5z" />
<glyph unicode="D" horiz-adv-x="1353" d="M49 1151q0 35 26.5 62.5t63.5 27.5q45 0 138 -9t139 -9q68 0 192 13t180 13q112 0 202.5 -40.5t172.5 -147.5q142 -189 142 -449q0 -257 -142 -446q-72 -94 -167.5 -145.5t-202.5 -51.5q-79 0 -238 20.5t-242 20.5q-40 0 -98 -3t-82 -3q-36 0 -58 24.5t-22 61.5 q0 84 97 84h30q25 2 36.5 11.5t14.5 37.5q23 215 23 402q0 177 -23 389q-7 51 -55 51q-6 0 -18.5 -1t-18.5 -1q-34 0 -62 24.5t-28 63.5zM557 592q0 -184 21 -363q4 -37 33.5 -58t68.5 -21q84 0 145.5 68t90 166.5t28.5 209.5q0 195 -80 342q-63 113 -151 113 q-66 0 -135 -66q-21 -226 -21 -391z" />
<glyph unicode="E" horiz-adv-x="1196" d="M49 59q0 52 22 68t66 16h41q64 0 64 428v25q0 180 -23 389q-3 28 -22 39t-43.5 11.5t-48 3t-40 22t-16.5 59.5q0 55 23 70.5t71 15.5q67 0 202 -5t204 -5q73 0 214 11.5t206 11.5q96 0 96 -170q0 -52 -10 -134q-4 -38 -28.5 -58.5t-55.5 -20.5q-35 0 -60.5 24.5 t-25.5 67.5v45q0 53 -76 53q-242 0 -242 -53v-303h115q0 14 -4 40t-4 40q0 38 25.5 62t58.5 24q48 0 76 -80.5t28 -186.5q0 -102 -26.5 -174.5t-75.5 -72.5q-35 0 -61.5 23t-26.5 63q0 14 4.5 45t5.5 47h-115v-295q0 -49 217 -49q84 0 137.5 50.5t53.5 127.5q0 40 24.5 63 t57.5 23q37 0 63.5 -24.5t26.5 -69.5q0 -373 -127 -373q-2 0 -5.5 1t-4.5 1q-168 29 -385 29q-80 0 -243.5 -5.5t-248.5 -5.5q-21 0 -31.5 1.5t-25 9t-21 26t-6.5 49.5z" />
<glyph unicode="F" horiz-adv-x="1128" d="M49 1145q0 40 27.5 64t68.5 24q64 0 194.5 -4t195.5 -4t136 3.5t164.5 10t135.5 8.5h8q26 0 45.5 -11.5t29.5 -28t16 -42t7.5 -46.5t1.5 -48q0 -36 -1 -58t-6 -55t-15 -52t-30 -33.5t-48 -14.5h-8q-35 1 -52.5 20t-20.5 45.5t-5.5 53.5t-15.5 46t-41 21l-213 -10 q-17 0 -29 -9t-12 -26v-301h108q-1 7 -4.5 34.5t-3.5 43.5q0 38 26 63t64 25q51 0 79 -76.5t28 -181.5q0 -106 -29.5 -184t-81.5 -78q-38 0 -63 25t-25 63q0 17 3.5 48t4.5 40h-106v-317q0 -14 10.5 -25.5t23.5 -11.5q9 0 29 2t29 2q38 0 64 -25t26 -63q0 -32 -17.5 -53 t-50.5 -30t-63.5 -12t-73.5 -3h-70q-201 0 -342 10q-43 3 -69.5 27t-26.5 67q0 29 12 47.5t35.5 25.5t42 9t47.5 2q58 0 58 375v74q0 199 -21 389q-3 23 -22 34t-44.5 14.5t-50.5 8.5t-42 24t-17 54z" />
<glyph unicode="G" horiz-adv-x="1548" d="M49 610q0 129 54 248.5t145.5 207t219 139.5t267.5 52q251 0 484 -153q34 -22 34 -66q0 -36 -13.5 -90.5t-37 -109.5t-62 -94t-81.5 -39q-34 0 -61 22.5t-27 54.5q0 17 20.5 56.5t20.5 66.5q0 49 -41 86.5t-94 54.5t-103 17q-87 0 -153 -41t-102 -107.5t-53 -138.5 t-17 -147q0 -60 16.5 -131.5t48.5 -143t90 -119t131 -47.5q96 0 176 95v137q-9 -2 -32 -7t-40 -7.5t-32 -2.5q-39 0 -63.5 24.5t-24.5 57.5q0 115 391 115q59 0 118.5 -5t124.5 -17t105.5 -37.5t40.5 -61.5q0 -34 -26.5 -59t-63.5 -25q-17 0 -54.5 10t-43.5 11v-203 q0 -9 -11 -31t-18 -28q-105 -93 -250 -142t-297 -49q-140 0 -267.5 52t-219 139.5t-145.5 207t-54 248.5z" />
<glyph unicode="H" horiz-adv-x="1601" d="M49 80q0 36 23 63t63 27h72q57 0 57 408v28q0 219 -20 389q-2 16 -8 25.5t-18.5 13.5t-22 5.5t-30 1.5t-30.5 1q-36 0 -61 24.5t-25 57.5q0 37 21 64.5t67 30.5q150 10 258 10q111 0 291 -12q42 -3 65 -28.5t23 -60.5t-24 -61.5t-66 -26.5q-19 0 -33 -5.5t-23 -19 t-14.5 -25.5t-9 -35.5t-5 -38.5t-3 -44t-2.5 -43h407q-2 22 -6 79t-8 87q-4 27 -19 35.5t-55 11.5q-36 0 -61 24.5t-25 57.5q0 37 21 64.5t67 30.5q150 10 295 10q74 0 254 -12q42 -3 65 -28.5t23 -60.5t-23.5 -61.5t-66.5 -26.5t-62 -2t-32.5 -12.5t-15.5 -32.5 q-23 -243 -23 -387t23 -387q3 -31 21 -40t57 -9q5 0 16 1t16 1q39 0 63.5 -23.5t26.5 -56.5q0 -110 -358 -110q-367 0 -367 98q0 36 23 63t63 27h37q58 0 58 436v15h-422v-15q0 -169 24 -387q2 -22 15.5 -35.5t36.5 -13.5l19 2h3q42 0 66 -26.5t24 -61.5q0 -20 -8.5 -36 t-27.5 -27t-38 -19.5t-51.5 -13t-55.5 -7.5t-62.5 -4t-61 -1.5t-61.5 -0.5q-67 0 -125.5 5t-113.5 16t-87.5 32.5t-32.5 51.5z" />
<glyph unicode="I" horiz-adv-x="858" d="M49 80q0 36 23 63t63 27q24 0 42.5 8.5t32 29t23 40t15.5 57t9.5 63.5t4.5 75.5t1.5 78t0.5 84.5q0 213 -20 383q-3 24 -22 36.5t-37.5 14.5t-49.5 2q-36 0 -61 24.5t-25 57.5q0 37 20.5 64t67.5 31q117 10 283 10q151 0 301 -12q42 -3 65 -28.5t23 -60.5t-24 -61.5 t-66 -26.5q-20 0 -33 -1t-33 -5.5t-31.5 -17t-13.5 -31.5q-22 -200 -22 -379q0 -434 133 -434q39 0 63 -23.5t27 -56.5q0 -83 -88 -98q-120 -12 -301 -12q-165 0 -283 10q-43 3 -65.5 28t-22.5 60z" />
<glyph unicode="J" horiz-adv-x="1091" d="M49 -35q0 59 51 120t118.5 97.5t119.5 36.5q37 0 59.5 -20t22.5 -56q0 -24 -12 -45t-27 -32.5t-27 -26t-12 -27.5q0 -20 19.5 -31.5t39.5 -11.5q72 0 91.5 126t19.5 478q0 94 -4 237t-4 177q0 41 -20 57.5t-70 16.5q-37 0 -59.5 25t-22.5 59q0 22 12.5 38t39.5 26 t55 16.5t73 9t79 3.5t87 1q55 0 90.5 -1t83 -3.5t77 -9t58 -16.5t42 -26t13.5 -38q0 -36 -25.5 -61t-70.5 -25q-33 0 -56.5 -17.5t-23.5 -56.5q0 -134 9.5 -490.5t9.5 -443.5q-19 -97 -99.5 -169.5t-186.5 -107t-218 -34.5q-141 0 -236.5 58.5t-95.5 166.5z" />
<glyph unicode="K" horiz-adv-x="1615" d="M49 1143q0 37 19.5 63t56.5 29q132 12 268 12t271 -12q48 0 72 -27t24 -65q0 -37 -26 -61.5t-70 -24.5h-39q-58 0 -58 -398l297 400q-43 0 -67.5 27.5t-24.5 62.5q0 18 6 32.5t19.5 24.5t27.5 17t37 11.5t39.5 7t44.5 4t43 1.5h43q47 0 75 -1t69.5 -6.5t65 -15.5t41 -30 t17.5 -49q0 -35 -24 -61.5t-64 -26.5q-20 0 -61 4.5t-57 5.5l-209 -279q14 -17 112 -151t188.5 -258t92.5 -125q11 -14 33 -14q18 0 35.5 9t25.5 21q12 18 27 44.5t22 35.5t21.5 17t36.5 8q35 0 61.5 -25t26.5 -63q0 -64 -69 -154.5t-164.5 -156.5t-164.5 -66q-99 0 -159 80 l-359 485l-78 -102q1 -10 1 -37v-44.5t6 -42t15.5 -39t28.5 -25.5t46 -11q41 0 66.5 -24t25.5 -60q0 -34 -19.5 -56t-57 -32.5t-74.5 -14t-89 -3.5q-20 0 -57.5 1t-54.5 1q-39 0 -83.5 2t-98.5 5.5t-83 4.5q-45 3 -69.5 28t-24.5 60q0 38 23.5 63t70.5 25h41q19 0 32 41.5 t18 118.5t6.5 139.5t1.5 149.5q0 85 -1.5 145.5t-6.5 135.5t-18 115t-32 40h-55q-37 0 -59.5 25t-22.5 59z" />
<glyph unicode="L" horiz-adv-x="1228" d="M49 1143q0 37 21 64t67 30q157 10 283 10q150 0 303 -12q41 -3 63.5 -28.5t22.5 -59.5q0 -36 -24 -62t-66 -26q-20 0 -32.5 -1t-32.5 -5.5t-31 -17t-13 -31.5q-24 -221 -24 -441q0 -175 14 -321q3 -42 41 -45l190 -11q66 0 121 52q28 27 41 68.5t15.5 72t21 53.5t57.5 23 q93 0 93 -123q0 -352 -142 -352q-74 0 -238.5 15t-250.5 15q-71 0 -200 -6t-187 -6q-43 0 -68.5 26.5t-25.5 61.5q0 36 25.5 63t68.5 27h45q57 0 57 449q0 184 -20 379q-4 32 -28.5 43.5t-72.5 11.5q-41 0 -67.5 24t-26.5 60z" />
<glyph unicode="M" horiz-adv-x="1935" d="M49 98q0 37 23 63.5t71 26.5q53 0 83.5 20t41.5 48q99 259 242 715q0 47 -30.5 59t-125.5 12q-36 0 -61 24.5t-25 57.5q0 36 21.5 63.5t66.5 31.5q164 12 291 12q31 0 52 -10t38 -41l248 -557l189 516q33 90 143 90q14 0 47 1t51 1q49 0 86 -3.5t74.5 -14t57.5 -32 t20 -53.5q0 -35 -25.5 -60.5t-66.5 -25.5q-70 0 -99.5 -17t-29.5 -58q82 -312 233 -713q11 -28 41 -48t82 -20q47 0 72.5 -24t25.5 -66q0 -32 -19 -52.5t-57 -29.5t-72 -11.5t-85 -2.5h-314q-202 0 -202 96q0 92 104 92h33l-94 379l-209 -508q-10 -26 -34 -40.5t-52 -14.5 q-51 0 -72 43l-240 498q-9 -30 -35 -93t-42.5 -116t-16.5 -94q0 -29 20.5 -40.5t41.5 -11.5q36 -1 56.5 -27.5t20.5 -62.5q0 -33 -18 -54t-52.5 -30.5t-66.5 -12.5t-78 -3h-149q-43 0 -73.5 3t-63.5 12t-50.5 30t-17.5 53z" />
<glyph unicode="N" horiz-adv-x="1538" d="M49 84q0 94 131 94q60 0 60 426q0 161 -23 389q-3 26 -18.5 36.5t-55.5 10.5q-44 0 -69 26.5t-25 63.5q0 101 215 101q133 0 262 -14q17 -2 32 -8.5t29 -18.5t22.5 -21t22 -25.5t17.5 -21.5l428 -506q0 185 -20 377q-3 26 -19.5 36.5t-54.5 10.5q-44 0 -69 26.5t-25 63.5 q0 52 86 77.5t211 25.5q81 0 147 -10.5t111 -36t45 -62.5q0 -39 -26.5 -59t-58.5 -23.5t-59.5 -14.5t-29.5 -34q-23 -292 -23 -389q0 -156 23 -399q3 -47 59 -47l8 1q8 1 13 1q41 0 66 -24t28 -58q0 -35 -19.5 -58t-56 -32.5t-65.5 -12t-70 -2.5q-110 0 -178.5 36.5 t-157.5 142.5l-485 585q-4 -86 -4 -133q0 -112 24 -366q3 -32 31 -48t59 -19.5t56.5 -23.5t25.5 -61q0 -53 -87.5 -78.5t-215.5 -25.5q-125 0 -211 25t-86 77z" />
<glyph unicode="O" horiz-adv-x="1472" d="M49 596q0 128 53.5 248.5t146 211.5t225 146t280.5 55q127 0 248 -48t214 -130t150 -202t57 -254q0 -127 -52.5 -246.5t-143.5 -211t-223 -147t-281 -55.5q-134 0 -257.5 49t-215.5 132t-146.5 201.5t-54.5 250.5zM440 684q0 -41 10 -99t35.5 -128t61.5 -128.5 t94.5 -98.5t128.5 -40t122.5 35t81 93t41.5 121t13 130t-21 148t-59.5 159t-104 130.5t-143.5 52.5q-70 0 -123 -34.5t-81.5 -91.5t-42 -119.5t-13.5 -129.5z" />
<glyph unicode="P" horiz-adv-x="1296" d="M49 1141q0 35 25.5 61.5t70.5 26.5q62 0 190 -7.5t193 -7.5q46 0 138.5 3.5t138.5 3.5q113 0 213.5 -49t164.5 -141.5t64 -207.5q0 -90 -45 -172t-117.5 -138.5t-163.5 -90t-182 -33.5q-55 0 -84.5 23t-29.5 59q0 52 53 76q72 32 106.5 101.5t34.5 154.5q0 25 -6.5 61.5 t-19 76t-36 66.5t-52.5 27q-119 0 -119 -487q0 -67 6.5 -185.5t7.5 -152.5q0 -17 11 -28t28 -11q5 0 16.5 2t16.5 2q42 0 67 -27t25 -63q0 -31 -20 -52.5t-57.5 -31t-75 -13t-87.5 -3.5q-364 5 -377 6q-47 1 -71.5 28t-24.5 64q0 36 26.5 61t69.5 25h41q58 0 58 420 q0 228 -21 418q-4 30 -21 37.5t-59 7.5q-45 0 -70.5 27t-25.5 63z" />
<glyph unicode="Q" horiz-adv-x="1472" d="M49 588q0 129 53.5 249.5t146 211t225 145.5t280.5 55q245 0 432.5 -149t228.5 -377q8 -47 8 -107q0 -131 -54 -251.5t-147 -211t-227.5 -144.5t-285.5 -54l-27 -39q5 0 14.5 -1t14.5 -1q29 0 83 2t83 2q50 0 92 -2t95.5 -10t95.5 -21t84.5 -37t70.5 -55.5t45.5 -79 t17.5 -106.5q0 -128 -88.5 -206.5t-214.5 -78.5q-74 0 -112.5 27.5t-38.5 66.5q0 35 23.5 62.5t60.5 27.5q6 0 18 -1t18 -1q76 0 76 52q0 116 -278 163q-53 9 -122.5 12.5t-115 5.5t-89 10t-64.5 29.5t-21 59.5q0 29 14 49l70 101q-203 63 -334 226.5t-131 375.5zM440 676 q0 -42 10 -99.5t35.5 -127.5t61.5 -128t94.5 -97.5t128.5 -39.5t122.5 34.5t81 92t41.5 120t13 130.5q0 54 -12.5 117t-39.5 129.5t-64.5 120.5t-93.5 88.5t-120 34.5q-70 0 -122 -35t-80.5 -92t-42 -119.5t-13.5 -128.5z" />
<glyph unicode="R" horiz-adv-x="1613" d="M49 1159q0 36 24.5 62t69.5 26q65 0 197 -6t199 -6q44 0 132.5 2t133.5 2q112 0 212.5 -48.5t165 -141t64.5 -207.5q0 -101 -52 -189t-140 -141q132 -75 245 -197q15 -18 39 -18q22 0 33 16q29 50 50.5 70t54.5 20q36 0 62 -25t26 -61q0 -22 -9 -43q-49 -116 -171 -217.5 t-222 -101.5q-94 0 -157 72l-359 399q-20 23 -20 57q0 24 13.5 47t37.5 35q71 32 106 101.5t35 156.5q0 25 -6.5 60.5t-19.5 75t-37 67t-54 27.5q-116 0 -116 -488q0 -76 14 -344q0 -39 35 -39q7 0 19.5 1t19.5 1q42 0 66 -27t24 -63q0 -25 -13.5 -43t-33 -27.5t-51.5 -15 t-60 -7t-67 -1.5q-220 0 -392 8q-45 3 -70.5 28.5t-25.5 61.5q0 38 24.5 63t71.5 25h41q58 0 58 420q0 251 -21 418q-3 20 -11 29.5t-15.5 11t-28.5 4.5q-121 0 -121 90z" />
<glyph unicode="S" horiz-adv-x="1155" d="M49 338q0 178 84 178q62 0 74 -67q13 -70 52.5 -136.5t105 -113.5t139.5 -47q54 0 84 34t30 88q0 67 -69 111q-38 24 -99 56t-102.5 54t-91 58.5t-79.5 74t-50.5 94.5t-20.5 126q0 91 41.5 170t109 131.5t153 82.5t174.5 30q189 0 340 -105v8q0 2 -1 6.5t-1 6.5 q0 31 21 51t48 20q74 0 74 -119q0 -96 -40.5 -183.5t-113.5 -151.5q-24 -21 -51 -21q-30 0 -49.5 19.5t-19.5 46.5q0 18 22.5 56t22.5 60q0 57 -49.5 97.5t-110.5 40.5q-59 0 -107.5 -38t-48.5 -95q0 -21 10 -40t22.5 -32.5t41 -31.5t46.5 -28t58 -30q156 -81 226 -132 q182 -135 182 -298q0 -121 -82 -218.5t-207.5 -148.5t-263.5 -51q-133 0 -246 43q-21 -43 -63 -43q-51 0 -98.5 73.5t-72 162t-24.5 151.5z" />
<glyph unicode="T" horiz-adv-x="1218" d="M49 891q0 356 144 356q208 -35 417 -35q210 0 418 35q141 0 141 -352q0 -8 -1 -24t-1 -23q-3 -36 -29.5 -57t-60.5 -21q-36 0 -61 25t-25 67q0 67 -42.5 120.5t-108.5 53.5q-23 0 -34.5 -10t-14.5 -37q-21 -212 -21 -397q0 -86 1.5 -143.5t6.5 -132.5t17.5 -114.5 t31.5 -39.5q71 0 104.5 -17.5t33.5 -72.5q0 -24 -17 -42.5t-49.5 -29.5t-66 -18t-80.5 -10t-79 -4t-73 -1q-364 0 -364 103q0 58 30.5 75t106.5 17q19 0 31.5 40t17.5 116.5t6.5 136t1.5 147.5q0 434 -51 434q-55 0 -87.5 -27.5t-44 -66.5t-20.5 -78t-28.5 -66.5 t-55.5 -27.5q-51 0 -72.5 29.5t-21.5 91.5z" />
<glyph unicode="U" horiz-adv-x="1478" d="M49 1145q0 31 19 51.5t55.5 29.5t69.5 12t79 3q198 0 396 -10q44 -3 69 -27.5t25 -58.5t-20 -60.5t-52 -29.5h-90v-668q0 -79 64 -135.5t153 -56.5t153 56.5t64 135.5v668q-6 0 -27 -1t-34 -1q-103 0 -103 90q0 49 81.5 74t197.5 24q112 0 191 -23.5t90 -74.5 q-2 -37 -25.5 -62.5t-67.5 -25.5h-37q-23 0 -37 -24.5t-14 -59.5v-611q0 -154 -149 -266t-359 -112q-138 0 -255.5 51.5t-186 138.5t-68.5 188v629q0 66 -79 66q-5 0 -8 -0.5t-4 -0.5t-1.5 -0.5t-1.5 -0.5q-41 0 -64.5 26.5t-23.5 65.5z" />
<glyph unicode="V" d="M49 1145q0 32 18.5 52.5t55.5 29.5t69.5 11.5t81.5 2.5q95 0 232.5 -5t198.5 -5q43 0 68.5 -25.5t25.5 -60.5q0 -41 -25.5 -66.5t-68.5 -25.5q-7 0 -23 1t-23 1l156 -779q10 36 70 234t109 364.5t48 180.5q-7 0 -19.5 -1t-18.5 -1q-48 0 -73.5 24.5t-25.5 65.5 q0 33 19 54.5t55 30.5t69.5 12t81.5 3h156q41 0 69 -3t58.5 -12.5t46 -30.5t15.5 -54q-2 -37 -25.5 -62.5t-67.5 -25.5q-101 0 -127 -68q-60 -156 -182.5 -542.5t-124.5 -393.5q-8 -25 -18.5 -40t-27 -21t-27.5 -7t-35 -1q-26 0 -60.5 -1t-46.5 -1q-50 0 -79 3.5t-45 14 t-21 20t-13 31.5q-18 54 -129 408.5t-178 529.5q-16 39 -45 52.5t-76 13.5q-48 0 -73 24.5t-25 67.5z" />
<glyph unicode="W" horiz-adv-x="1935" d="M53 1143q0 104 396 104q121 0 256 -12q46 -4 69 -27.5t23 -58.5q0 -43 -24 -69.5t-68 -26.5q-7 0 -23 1t-23 1l95 -393l209 524q10 25 34.5 40t51.5 15q50 0 71 -43l242 -512l108 369q-78 0 -115.5 19t-37.5 73q0 34 19.5 58t56.5 30q70 12 192 12q58 0 107.5 -4.5 t95 -15.5t72 -32.5t26.5 -51.5q-2 -37 -26 -62.5t-68 -25.5h-43q-26 0 -51 -22.5t-33 -47.5q-32 -88 -63.5 -180t-65.5 -200.5t-55 -177t-61.5 -201.5t-55.5 -183q-9 -29 -33 -45t-53 -16q-60 0 -80 51l-250 573l-219 -561q-10 -27 -33 -41t-51 -14t-51.5 16t-32.5 45 q-30 96 -87.5 293t-105.5 350t-98 289q-10 26 -33.5 48t-48.5 22h-41q-46 0 -70 24t-24 66z" />
<glyph unicode="X" horiz-adv-x="1372" d="M49 1098q0 48 56.5 81t128 45.5t147.5 12.5q54 0 108 -7t105 -22t83 -43.5t32 -66.5q0 -35 -21.5 -63t-50.5 -31l127 -185l143 213q-32 -16 -59 -16q-36 0 -60 27t-24 63q0 32 24.5 57t65 39t85.5 21.5t91 7.5t91 -7t85.5 -21.5t65 -39.5t24.5 -57q0 -36 -24.5 -63 t-59.5 -27q-16 0 -43 11t-43 11l-256 -379l320 -473q22 11 47 11q35 0 60.5 -24.5t25.5 -61.5q0 -36 -32 -64.5t-83 -44t-106.5 -23.5t-110.5 -8q-54 0 -108 7.5t-104.5 22.5t-82.5 42t-32 63q0 41 24 70t57 29l-135 190l-145 -215q26 13 49 13q32 0 59 -25t27 -66 q0 -33 -24.5 -58t-65 -39t-85 -21t-91.5 -7t-91.5 7t-85 21t-65 39t-24.5 58q0 36 25 63.5t61 27.5q16 0 44 -12t44 -15l264 391l-316 467q-7 0 -26 -7t-27 -7q-36 0 -62 26t-26 62z" />
<glyph unicode="Y" d="M49 1145q0 31 18.5 51.5t53 29.5t67 12t78.5 3q100 0 239.5 -5t199.5 -5q44 0 68 -25.5t24 -60.5q0 -92 -105 -92q-16 0 -43.5 1t-32.5 1l199 -420l227 420q-7 0 -19.5 -1t-18.5 -1q-48 0 -73.5 24.5t-25.5 65.5q0 65 82.5 82.5t300.5 17.5q40 0 68 -3t58 -12.5 t45.5 -30.5t15.5 -54q-2 -37 -25.5 -62.5t-69.5 -25.5h-43q-26 0 -58.5 -22.5t-41.5 -45.5l-319 -616q2 -55 14 -152q3 -31 21 -40t57 -9q5 0 15 1t15 1q42 0 66 -26.5t24 -61.5t-22.5 -61t-63.5 -29q-146 -14 -311 -14q-194 0 -278 18.5t-84 81.5q0 36 23 63t63 27h71 q10 0 18 8t13 24t8.5 33t6 41.5t3.5 42.5t2.5 43.5t2.5 38.5l-314 586q-8 25 -32.5 46.5t-49.5 21.5q-6 0 -19.5 -1t-19.5 -1q-48 0 -73 24.5t-25 67.5z" />
<glyph unicode="Z" horiz-adv-x="1269" d="M49 90q0 22 17 49l649 908h-346q-17 -34 -17 -89q0 -43 -26.5 -67.5t-61.5 -24.5q-40 0 -65 29t-25 86q0 63 34.5 140.5t92 134.5t113.5 57q36 0 62 -27t26 -63h612q37 0 62.5 -27t25.5 -63q0 -28 -16 -50l-641 -907h489q6 25 6 72q0 40 26.5 64t61.5 24q44 0 68.5 -34 t24.5 -81q0 -63 -35 -140.5t-93 -134.5t-114 -57q-36 0 -61 27.5t-25 63.5q0 14 2 20h-756q-39 0 -64.5 27t-25.5 63z" />
<glyph unicode="[" horiz-adv-x="608" d="M49 -221v1679h510v-160h-100v-1335h100v-184h-510z" />
<glyph unicode="\" horiz-adv-x="976" d="M49 1305l225 86l654 -1659l-226 -86z" />
<glyph unicode="]" horiz-adv-x="600" d="M49 -37h92v1335h-92v160h502v-1679h-502v184z" />
<glyph unicode="^" horiz-adv-x="1083" d="M49 438l400 729h186l399 -729l-211 -114l-282 514l-281 -514z" />
<glyph unicode="_" horiz-adv-x="1024" d="M0 0h1022v-117h-1022v117z" />
<glyph unicode="`" horiz-adv-x="522" d="M49 1253q0 59 42.5 98.5t96.5 39.5q30 0 59.5 -15.5t58.5 -44.5t51.5 -56.5t52.5 -65.5t47 -58q16 -19 16 -51q0 -38 -26 -65t-62 -27q-22 0 -35 8q-21 10 -72.5 32t-83.5 38.5t-69.5 41.5t-56.5 56.5t-19 68.5z" />
<glyph unicode="a" horiz-adv-x="1089" d="M49 184q0 69 25 130.5t68 107t99 82.5t121.5 62t130.5 40t130 21v69q0 156 -54 156q-19 0 -37 -19t-18 -53q0 -57 -34.5 -102t-88.5 -45q-60 0 -92.5 45.5t-32.5 105.5q0 71 50 123.5t123.5 76.5t156.5 24q322 0 322 -326v-496q0 -25 19 -37.5t42 -15.5t42 -15.5 t19 -37.5q0 -61 -65.5 -98t-149.5 -37q-74 0 -123.5 33t-68.5 96q-66 -53 -154 -88t-172 -35q-114 0 -186 69t-72 164zM397 250q0 -42 24 -71t56 -29q51 0 98.5 58t47.5 128v145q-74 -6 -150 -80t-76 -151z" />
<glyph unicode="b" horiz-adv-x="1202" d="M49 1196q0 29 14 53t41 33l269 92q16 4 26 4q36 0 64.5 -26t28.5 -62v-387q107 58 225 58q108 0 193.5 -37.5t137.5 -101t78.5 -142.5t26.5 -168q0 -102 -34.5 -200.5t-98 -179t-163.5 -130t-220 -49.5q-140 0 -252 74q-122 -56 -225 -56q-34 0 -56 26.5t-22 61.5 q0 32 17 53.5t37 31t37 28.5t17 47v858q0 31 -20 31h-37q-36 0 -60 26.5t-24 61.5zM492 274q28 -58 69 -91t88 -33q94 0 145.5 84t51.5 200q0 121 -53.5 212t-143.5 91q-46 0 -89 -34t-68 -91v-338z" />
<glyph unicode="c" horiz-adv-x="1021" d="M49 451q0 98 39.5 191t108 163.5t166.5 113t208 42.5q267 0 375 -187q27 -52 27 -100q0 -59 -40.5 -104.5t-109.5 -45.5q-67 0 -113.5 47t-64.5 121q-7 40 -39.5 61t-75.5 21q-85 0 -136.5 -75t-51.5 -191q0 -124 78.5 -229t189.5 -105q64 0 123 37q20 12 49 38.5t52 43 t45 16.5q34 0 64 -29t30 -65q0 -25 -23 -55q-76 -104 -183 -157.5t-224 -53.5q-94 0 -182.5 35t-158 97.5t-111.5 159t-42 210.5z" />
<glyph unicode="d" horiz-adv-x="1253" d="M49 399q0 103 35 202t98.5 180t163.5 130.5t219 49.5q77 0 154 -25v141q0 31 -39 31h-18q-35 0 -61 27t-26 63q0 27 15.5 50t42.5 32l268 94q16 4 27 4q36 0 64 -26t28 -62v-1106q23 18 35 26.5t28.5 15.5t32.5 7q33 0 60.5 -26t27.5 -62q0 -53 -66 -98.5t-150 -68.5 t-152 -23q-55 0 -84 12.5t-43 40.5q-107 -55 -222 -55q-109 0 -195 37t-138 100t-78.5 141.5t-26.5 167.5zM362 467q0 -75 20.5 -140t65 -108t105.5 -43q51 0 94 37t72 100v316q-69 135 -166 135q-60 0 -104.5 -44t-65.5 -110.5t-21 -142.5z" />
<glyph unicode="e" horiz-adv-x="1024" d="M49 455q0 100 41 191t109 156t158.5 103.5t185.5 38.5q90 0 179 -45t149.5 -128t60.5 -179q0 -25 -16.5 -46t-38.5 -26q-105 -22 -297 -60t-252 -50q39 -63 107 -99.5t143 -36.5q65 0 120.5 23t86.5 50t63 50t55 23q28 0 50 -20.5t22 -51.5q0 -101 -66 -191.5 t-168.5 -143t-208.5 -52.5q-128 0 -239.5 65.5t-177.5 179.5t-66 249zM283 573q0 -18 2 -28l395 80q-22 78 -77 119.5t-122 41.5q-80 0 -139 -57t-59 -156z" />
<glyph unicode="f" horiz-adv-x="862" d="M49 870q0 37 24.5 64t69.5 27h47v65q0 89 27.5 159t73.5 111t101 61.5t116 20.5q69 0 138 -25t118 -76.5t49 -115.5q0 -53 -40.5 -94t-98.5 -41q-36 0 -62.5 16t-41 38.5t-27 45.5t-30.5 40t-42 18q-8 0 -14 -15t-6 -30q0 -29 15 -87.5t19 -90.5h76q45 0 70.5 -27.5 t25.5 -63.5q0 -35 -25.5 -61.5t-70.5 -26.5h-69v-589q23 10 45 10q37 0 62.5 -27t25.5 -63q0 -43 -46.5 -74.5t-108 -45t-124.5 -13.5q-101 0 -188.5 36t-87.5 99q0 34 26 61t62 27q14 0 32 -6v585h-47q-44 0 -69 26.5t-25 61.5z" />
<glyph unicode="g" horiz-adv-x="1146" d="M49 -123q0 126 85.5 222.5t213.5 142.5q-86 58 -135 151t-49 197q0 149 95 266t241 143q-2 7 -22 73.5t-31 113t-11 71.5q0 51 35 86t86 35q49 0 85 -36t36 -85q0 -30 -23.5 -118.5t-40.5 -134.5q157 -15 263 -135.5t106 -278.5q0 -104 -49 -197t-135 -151 q127 -46 213 -142.5t86 -222.5q0 -77 -32.5 -144t-86 -114t-122 -81t-141 -50t-143.5 -16q-89 0 -179.5 26.5t-168.5 75.5t-127 128.5t-49 174.5zM412 -57q0 -57 23.5 -126.5t73 -125.5t109.5 -56q41 0 68.5 30t37 67t9.5 78q0 59 -23.5 128t-72.5 124t-109 55 q-41 0 -68.5 -29t-37.5 -66.5t-10 -78.5zM444 662q0 -60 20 -133.5t61 -132t89 -58.5q32 0 53 36.5t27 74t6 69.5q0 60 -20 133t-60 131t-88 58q-25 0 -43.5 -20t-27.5 -50.5t-13 -57.5t-4 -50z" />
<glyph unicode="h" horiz-adv-x="1226" d="M49 1198q0 28 14.5 51.5t40.5 32.5l271 92q16 4 26 4q36 0 63.5 -26t27.5 -62v-403q100 74 210 74q152 0 253.5 -105.5t101.5 -257.5v-401q15 6 33 5q33 0 60.5 -25.5t27.5 -61.5q0 -43 -46.5 -75t-108 -46t-124.5 -14q-61 0 -120 12.5t-104.5 43.5t-45.5 75q0 36 24 64 t60 27q20 0 43 -12v385q0 62 -31.5 101t-93.5 39q-52 0 -95.5 -38t-43.5 -87v-395q24 8 34 7q36 0 61 -28.5t25 -64.5q0 -32 -26.5 -58t-68 -40.5t-87.5 -22.5t-90 -8q-45 0 -92 8t-89 23.5t-69 42t-27 59.5q0 35 25.5 62.5t61.5 26.5q21 0 40 -7v866q0 11 -1.5 19t-15.5 18 t-40 10q-36 0 -60 27t-24 63z" />
<glyph unicode="i" horiz-adv-x="661" d="M49 780q0 29 14.5 52t40.5 32q8 3 43.5 15.5t72 25t76 26t68 22t35.5 8.5q37 0 63.5 -26.5t26.5 -62.5v-675q15 6 35 6q36 0 62 -27t26 -63t-31.5 -64t-78 -42t-89.5 -20.5t-77 -6.5t-77 6.5t-90.5 20.5t-79.5 42.5t-32 65.5q0 35 26.5 61.5t61.5 26.5q23 0 43 -10v483 q0 16 -18 16h-37q-36 0 -60 26t-24 62zM190 1294q0 50 35 84.5t84 34.5q50 0 85.5 -34.5t35.5 -84.5q0 -94 -68 -268q-12 -35 -53 -35q-39 0 -51 37q-4 11 -17.5 49.5t-19.5 56.5t-15 49.5t-12.5 58t-3.5 52.5z" />
<glyph unicode="j" horiz-adv-x="538" d="M-8 -283q0 37 26.5 66t65.5 29q13 0 37.5 -14.5t46.5 -14.5q20 0 20 10v869q0 30 -30 30h-27q-36 0 -61 26.5t-25 61.5q0 29 15 52t42 32q11 4 84.5 32t131.5 46.5t83 18.5q34 0 61 -26.5t27 -62.5v-1032q0 -101 -80 -171.5t-188 -76.5q-35 0 -72.5 6.5t-74 20.5 t-59.5 39.5t-23 58.5zM186 1294q0 49 35.5 84t85.5 35t85.5 -35t35.5 -84q0 -18 -2 -36.5t-7 -40t-8.5 -37t-12.5 -41t-12.5 -36.5t-14.5 -40.5t-13 -36.5q-9 -37 -51 -37t-51 39q-7 23 -28.5 82.5t-31.5 101.5t-10 82z" />
<glyph unicode="k" horiz-adv-x="1265" d="M49 1198q0 28 14.5 51.5t40.5 32.5l271 92q16 4 26 4q36 0 63.5 -26t27.5 -62v-649l155 131l-39 12q-55 17 -55 82q0 38 20 66.5t54 28.5h356q45 0 69.5 -27t24.5 -64q0 -34 -22.5 -54.5t-52.5 -28.5t-71.5 -24.5t-68.5 -39.5l-160 -135l281 -314q27 -30 64 -30 q12 0 38.5 9t40.5 9q35 0 63 -29t28 -65q0 -24 -15 -45q-113 -164 -252 -164q-29 0 -56 10t-46.5 23t-43 37t-36.5 41t-34.5 46.5t-31.5 41.5l-204 256l-6 -4v-215q16 8 38 9q36 0 62 -26.5t26 -62.5q0 -43 -46 -75t-107.5 -46t-124.5 -14q-45 0 -92 8t-89 23.5t-69 42 t-27 59.5q0 35 25.5 62.5t61.5 28.5q21 0 40 -9v854q0 59 -57 59q-36 0 -60 27t-24 63z" />
<glyph unicode="l" horiz-adv-x="667" d="M49 1198q0 28 15 51.5t42 32.5l269 92q16 4 26 4q36 0 63.5 -26t27.5 -62v-1095q19 8 38 9q53 0 76 -46q12 -18 12 -45q0 -33 -26.5 -59.5t-69 -42t-89.5 -23.5t-93 -8q-101 0 -189 36t-88 99q0 34 26.5 61t62.5 28q19 0 38 -9v870q0 8 -1 13t-5.5 13t-17 12.5t-31.5 4.5 q-35 0 -60.5 27t-25.5 63z" />
<glyph unicode="m" horiz-adv-x="1812" d="M49 784q0 27 14.5 49t40.5 31l269 92q10 5 28 5q31 0 56.5 -20.5t31.5 -51.5q97 69 211 69q81 0 155.5 -35.5t127.5 -103.5q53 65 126.5 103.5t154.5 38.5q154 0 257 -105t103 -258v-410q27 15 51 16q33 0 60.5 -26.5t27.5 -62.5q0 -43 -46 -75t-107.5 -46t-124.5 -14 q-45 0 -92 8t-89 23.5t-69 42t-27 59.5q0 35 25 62.5t61 28.5q7 0 27 -5v376q0 63 -31.5 101.5t-93.5 38.5q-71 0 -107 -65t-36 -154v-310q0 6 21 11.5t30 6.5q36 0 62 -27.5t26 -63.5q0 -33 -27 -59.5t-69 -42t-89 -23.5t-92 -8q-63 0 -124.5 14t-107.5 46t-46 75 q0 34 26 61t62 28q7 0 27 -5v376q0 63 -31.5 101.5t-93.5 38.5q-48 0 -91.5 -34t-43.5 -77v-409q16 8 38 9q36 0 62 -27.5t26 -63.5q0 -33 -26.5 -59.5t-69 -42t-89.5 -23.5t-93 -8q-101 0 -189 36t-88 99q0 34 26 61t61 28q21 0 40 -9v467q0 30 -30 30h-27 q-37 0 -60.5 27.5t-23.5 64.5z" />
<glyph unicode="n" horiz-adv-x="1234" d="M49 782q0 27 15.5 50t41.5 32l269 92q20 5 26 5q32 0 59.5 -21.5t31.5 -52.5q100 74 210 74q152 0 253.5 -105.5t101.5 -257.5v-403q19 8 41 8q34 0 61 -26t27 -62q0 -43 -46 -75t-107.5 -46t-125.5 -14q-62 0 -123 13.5t-107 45t-46 74.5q0 36 25.5 63t60.5 27 q20 0 39 -8v380q0 62 -31.5 101t-93.5 39q-48 0 -92.5 -37t-44.5 -82v-401q16 8 38 8q36 0 62.5 -27t26.5 -61q0 -43 -46 -75t-107.5 -46t-125.5 -14q-101 0 -188.5 36t-87.5 99q0 34 25.5 61t60.5 27q22 0 41 -8v467q0 12 -7.5 21t-23.5 9h-27q-37 0 -61.5 27.5t-24.5 62.5 z" />
<glyph unicode="o" horiz-adv-x="1101" d="M49 465q0 138 66 256t182 188t254 70t254 -70t182 -188t66 -256q0 -102 -39.5 -196t-106 -163.5t-160 -111t-196.5 -41.5t-196.5 41.5t-160 111t-106 163.5t-39.5 196zM365 571q0 -91 30 -185t87.5 -160t125.5 -66q64 0 96.5 55.5t32.5 144.5q0 91 -30 185t-88 160.5 t-127 66.5q-64 0 -95.5 -56t-31.5 -145z" />
<glyph unicode="p" horiz-adv-x="1204" d="M49 -244q0 35 25 61.5t61 26.5q22 0 41 -8v881q0 14 -9 22.5t-22 8.5q-34 0 -54.5 27.5t-20.5 64.5q0 29 15.5 52.5t43.5 29.5l244 45q2 0 7 1t7 1q27 0 50 -16.5t34 -41.5q102 50 209 50q133 0 243 -70t171 -185.5t61 -248.5q-2 -139 -63 -253t-172 -180.5t-250 -66.5 q-109 0 -193 37v-158q19 8 39 8q37 0 62.5 -26.5t25.5 -61.5q0 -43 -45.5 -75t-107 -46t-125.5 -14q-101 0 -189 36t-88 99zM477 336q26 -75 79.5 -129.5t121.5 -54.5q69 0 116.5 72.5t47.5 178.5q0 62 -24 136.5t-78 136t-124 61.5q-44 0 -80.5 -29.5t-58.5 -82.5v-289z " />
<glyph unicode="q" horiz-adv-x="1202" d="M49 451q0 142 61 258t173.5 184t253.5 68q131 0 239 -62l121 68q20 10 41 10q36 0 64 -25.5t28 -62.5v-1051q18 6 35 6q34 0 61 -26t27 -62q0 -45 -46.5 -76.5t-106.5 -44t-123 -12.5q-65 0 -126.5 13.5t-107 45t-45.5 74.5q0 35 25 61.5t63 26.5q20 0 43 -10v168 q-98 -45 -203 -45q-100 0 -189 40.5t-152 108t-99.5 158t-36.5 187.5zM362 512q0 -42 13.5 -96.5t39.5 -109t71.5 -91.5t101.5 -37q95 0 141 115v282q-30 80 -81 134.5t-116 54.5q-73 0 -121.5 -72t-48.5 -180z" />
<glyph unicode="r" horiz-adv-x="915" d="M49 797q0 29 14 51t39 31l234 77q25 5 29 5q34 0 61 -30t42 -75.5t22.5 -92t7.5 -87.5v-486q26 13 47 13q33 0 60.5 -26t27.5 -62q0 -43 -46.5 -75t-108 -46t-124.5 -14q-62 0 -123 13.5t-107 45t-46 74.5q0 37 25.5 63.5t60.5 26.5q15 0 33 -6v465q0 28 -37 36l-43 9 q-33 6 -50.5 31.5t-17.5 58.5zM518 813q0 73 43 126.5t111 53.5q57 0 108 -40.5t74 -106.5q12 -41 12 -80q0 -73 -42.5 -125.5t-110.5 -52.5q-74 0 -134.5 65t-60.5 160z" />
<glyph unicode="s" horiz-adv-x="858" d="M49 217q0 73 26.5 115.5t71.5 42.5q18 0 32 -6t22.5 -12.5t15 -20.5t9 -22t6 -25t4.5 -21q19 -67 69.5 -106t118.5 -39q113 0 113 61q0 18 -9 35.5t-20 29.5t-35.5 28.5t-40 25t-50 26.5t-50.5 27q-49 26 -84.5 52t-71 64.5t-54 90t-18.5 113.5q0 125 96.5 208t227.5 83 q60 0 125 -19q11 23 33.5 38t48.5 15q59 0 100 -80.5t41 -164.5q0 -72 -28 -118t-74 -46q-36 0 -63 24.5t-27 61.5q0 8 6 27t6 28q-10 33 -43.5 52.5t-71.5 19.5q-42 0 -71 -21.5t-29 -58.5q0 -16 11.5 -32t35.5 -32t48 -29.5t62 -34t64 -36.5q94 -57 150.5 -125.5 t56.5 -165.5q0 -93 -54.5 -162.5t-134.5 -102t-169 -32.5q-87 0 -164 27q-7 -23 -31 -38t-49 -15q-44 0 -82 46t-57 107.5t-19 116.5z" />
<glyph unicode="t" horiz-adv-x="731" d="M49 893q0 37 29 57l241 180q23 15 43 15q28 0 49 -21t21 -49v-110h172q36 0 56 -21.5t20 -50.5t-20 -50.5t-56 -21.5h-172v-606q0 -74 64 -74q22 0 58.5 29t55.5 29q29 0 50.5 -21t21.5 -49q0 -42 -44 -83t-102 -64t-104 -23q-115 0 -191.5 79.5t-76.5 194.5v588h-45 q-29 0 -49.5 22t-20.5 50z" />
<glyph unicode="u" horiz-adv-x="1234" d="M49 825q0 43 46 75.5t107.5 46.5t125.5 14q91 0 121 -25t30 -78v-493q0 -62 31.5 -101t93.5 -39q48 0 92.5 37t44.5 82v401q-16 -8 -39 -8q-36 0 -62 27t-26 61q0 43 46 75.5t107.5 46.5t125.5 14q53 0 83.5 -5.5t44.5 -21t17.5 -31.5t3.5 -49v-575q0 -12 7.5 -21.5 t23.5 -9.5h27q37 0 61.5 -27.5t24.5 -62.5q0 -27 -16 -50t-42 -32l-268 -92q-16 -4 -26 -4q-33 0 -60 21.5t-31 51.5q-99 -73 -211 -73q-152 0 -253 105t-101 257v403q-19 -8 -41 -8q-34 0 -61 26t-27 62z" />
<glyph unicode="v" horiz-adv-x="1204" d="M49 831q0 34 25 60.5t66.5 41.5t87.5 22.5t94 7.5q66 0 123.5 -12t100 -42.5t42.5 -74.5q0 -38 -25 -63t-63 -30l149 -358l166 365q-9 0 -27 -5.5t-26 -5.5q-42 0 -71 29.5t-29 69.5q0 63 72 95t175 32q102 0 174 -31.5t72 -91.5q0 -40 -29.5 -72.5t-70.5 -32.5 q-26 0 -60 17l-313 -697q-13 -30 -42 -47.5t-62 -17.5q-35 0 -64.5 17t-42.5 48l-287 678q-18 -6 -37 -6q-41 0 -69.5 32.5t-28.5 71.5z" />
<glyph unicode="w" horiz-adv-x="1775" d="M49 821q0 45 43.5 76t102 43t124.5 12q48 0 94 -7.5t87.5 -22t66.5 -41t25 -60.5q0 -38 -26 -68t-66 -34l147 -346l133 293l-24 57q-18 -6 -35 -6q-42 0 -71 31.5t-29 70.5q0 45 43.5 76.5t102.5 44t126 12.5q66 0 125 -12.5t102 -44t43 -76.5q0 -36 -25 -66t-65 -34 l148 -344l163 362q-9 0 -26 -6t-25 -6q-42 0 -71 30.5t-29 69.5q0 45 37 75t90.5 42t120.5 12q66 0 119.5 -12t89.5 -42t36 -75q0 -19 -6 -37q-28 -61 -92 -61q-33 0 -61 14l-316 -696q-12 -29 -40 -46t-60 -17q-35 0 -65.5 17t-43.5 48l-176 414l-186 -416 q-13 -29 -42.5 -46t-62.5 -17q-34 0 -63.5 17.5t-42.5 47.5l-285 676q-18 -6 -37 -6q-43 0 -70.5 31.5t-27.5 72.5z" />
<glyph unicode="x" horiz-adv-x="1124" d="M49 831q0 34 24.5 60.5t65.5 41.5t86.5 22.5t93.5 7.5t94 -7t87.5 -22t66.5 -40.5t25 -59.5q0 -19 -8.5 -41.5t-20.5 -34.5l55 -82l56 80q-25 11 -41.5 33t-16.5 49q0 61 59.5 90.5t153.5 29.5q93 0 160.5 -32t67.5 -92q0 -41 -29.5 -72t-71.5 -31q-9 0 -19 2t-17.5 4.5 t-22.5 8t-25 8.5l-153 -244l199 -307q10 0 30 5t29 5q39 0 68.5 -28.5t29.5 -69.5q0 -45 -44 -76t-103 -43t-125 -12q-67 0 -126.5 12t-104 43t-44.5 76q0 49 41 82l-55 79l-47 -71q28 -12 44.5 -37.5t16.5 -56.5q0 -61 -66.5 -93t-160.5 -32q-60 0 -109 12.5t-82.5 41.5 t-33.5 71q0 40 27.5 69t68.5 29q15 0 41.5 -7t42.5 -9l158 227q-197 323 -197 325q-10 -2 -33.5 -10t-36.5 -8q-42 0 -70 31.5t-28 72.5z" />
<glyph unicode="y" horiz-adv-x="1204" d="M49 831q0 34 25 60.5t66.5 41.5t87.5 22.5t94 7.5q66 0 125 -12t103 -42.5t44 -74.5q0 -38 -24 -68.5t-60 -36.5l166 -334l141 353q-13 -13 -53 -13q-42 0 -72 30.5t-30 70.5q0 63 72 95t175 32q102 0 174 -31.5t72 -91.5q0 -41 -29 -71t-71 -30q-8 0 -28 5.5t-28 5.5 l-311 -777q-60 -146 -153.5 -240.5t-219.5 -94.5q-53 0 -103.5 21.5t-87 70t-36.5 114.5q0 68 46.5 119t113.5 51q64 0 109.5 -48t48.5 -113q3 -3 6 -3q30 0 62 60t32 106q0 61 -23 109l-295 610q-19 -8 -41 -8q-41 0 -69.5 32t-28.5 72z" />
<glyph unicode="z" horiz-adv-x="1001" d="M49 721q0 59 29.5 128.5t82 121t107.5 51.5q30 0 56.5 -18.5t35.5 -45.5h457q34 0 58 -26.5t24 -59.5q0 -23 -12 -41l-455 -665h285q35 44 35 84q0 51 28 80.5t68 29.5q42 0 72.5 -26t31.5 -78q0 -59 -28 -129t-80.5 -122t-110.5 -52q-56 0 -82 47h-514q-36 0 -61 24.5 t-25 57.5q0 24 15 45l442 666h-234q-24 -34 -24 -66q0 -51 -28.5 -81t-69.5 -30q-40 0 -71.5 27t-31.5 78z" />
<glyph unicode="{" horiz-adv-x="819" d="M49 586v129q69 0 92 26.5t23 81.5q0 32 -4 106t-4 113q0 75 9 135t38 123.5t77.5 106.5t133 70.5t198.5 27.5q85 0 158 -20l-33 -123q-9 2 -28 5t-27 5q-52 -1 -86 -18.5t-51 -51.5t-23 -71t-6 -88q0 -31 2 -97.5t2 -99.5q0 -109 -23.5 -182.5t-90.5 -114.5 q67 -41 90.5 -114t23.5 -181q0 -33 -2 -99t-2 -97q0 -41 3.5 -71.5t14 -61.5t28.5 -51t49 -32.5t73 -13.5q16 2 53 11l33 -123q-76 -21 -158 -21q-114 0 -198.5 27.5t-133 70t-77.5 106t-38 123t-9 134.5q0 40 4 112.5t4 102.5q0 59 -23.5 87t-91.5 28z" />
<glyph unicode="|" horiz-adv-x="339" d="M49 -510v2044h242v-2044h-242z" />
<glyph unicode="}" horiz-adv-x="819" d="M49 -184l33 123q37 -9 53 -11q42 1 73 13.5t49 32.5t28.5 51t14 61.5t3.5 71.5q0 31 -3 97t-3 99q0 106 24.5 180t92.5 115q-68 41 -92.5 115t-24.5 182q0 33 3 99.5t3 97.5q0 51 -6 88t-23 71t-51 51.5t-86 18.5q-8 -2 -27 -5t-28 -5l-33 123q73 20 158 20 q114 0 198.5 -27.5t133 -70.5t78 -106.5t38.5 -123.5t9 -135q0 -39 -5.5 -113t-5.5 -106q0 -55 24 -81.5t93 -26.5v-129q-68 0 -91.5 -28t-23.5 -87q0 -30 4.5 -102.5t4.5 -112.5q0 -75 -9 -134.5t-38.5 -123t-78 -106t-133 -70t-198.5 -27.5q-81 0 -158 21z" />
<glyph unicode="~" horiz-adv-x="1107" d="M49 350q0 126 91.5 220t221.5 94q57 0 121 -23l232 -94q8 -4 26 -4q32 0 54 20t22 51h242q0 -127 -94 -220t-224 -93q-63 0 -116 23l-232 94q-12 6 -26 6q-31 0 -54.5 -22t-23.5 -52h-240z" />
<glyph unicode="&#xa1;" horiz-adv-x="532" d="M49 -131q0 76 37 206t89 233.5t89 103.5q41 0 58 -33q60 -108 110 -256.5t51 -253.5q0 -111 -58.5 -186.5t-156.5 -75.5q-103 0 -161 73t-58 189zM86 680q0 72 50.5 123t121.5 51q72 0 123 -51t51 -123q0 -71 -51 -121.5t-123 -50.5q-70 0 -121 51t-51 121z" />
<glyph unicode="&#xa2;" horiz-adv-x="1021" d="M49 739q0 177 119 323.5t313 180.5v117q0 35 21 54.5t51 19.5q28 0 49 -19.5t21 -54.5v-113q57 -3 115.5 -21.5t112.5 -51t88 -87t34 -120.5q0 -59 -41.5 -106.5t-110.5 -47.5q-50 0 -92.5 30.5t-66.5 82.5q-10 20 -17.5 54t-21.5 48v-561q41 2 81.5 23.5t66.5 45.5 t55 44t51 20q36 0 65 -29t29 -65q0 -52 -66 -112t-146 -100.5t-136 -51.5v-267q0 -35 -20.5 -54t-49.5 -19q-30 0 -51 19t-21 54v265q-122 16 -222 90t-155 182.5t-55 226.5zM340 799q0 -99 36 -175t105 -118v553q-63 -20 -102 -91t-39 -169z" />
<glyph unicode="&#xa3;" horiz-adv-x="1323" d="M49 197q0 94 66 157.5t155 63.5q63 0 119 -35q-42 106 -72 188h-131q-38 0 -59 22t-21 52t21 52t59 22h82q-39 132 -39 213q0 168 140.5 285.5t337.5 117.5q63 0 129 -16.5t128 -49.5t111.5 -77.5t79 -105.5t29.5 -128q0 -63 -42 -110t-104 -47q-63 0 -105 47t-42 110 q0 48 31 95q-26 50 -67 83t-93 33q-51 0 -81 -57.5t-30 -122.5q0 -43 8.5 -87.5t21.5 -97.5t19 -85h160q36 0 57 -22t21 -52t-21 -52t-57 -22h-153q-10 -112 -56 -235q85 -82 215 -82q73 0 126.5 24t80.5 58t46.5 67.5t38.5 57.5t42 24q30 0 52 -20t22 -57 q0 -108 -53 -209.5t-151 -167.5t-214 -66q-91 0 -174.5 40.5t-144.5 115.5q-115 -146 -267 -146q-92 0 -156.5 65.5t-64.5 156.5z" />
<glyph unicode="&#xa4;" horiz-adv-x="1431" d="M49 479q0 30 20.5 52t57.5 22h113q-4 54 -4 90h-109q-37 0 -57.5 22t-20.5 52t20.5 52t57.5 22h127q52 220 229.5 370t407.5 150q169 0 313 -56v9q0 45 27 70.5t63 25.5q35 0 61.5 -25.5t26.5 -70.5v-303q0 -45 -26.5 -70t-61.5 -25q-36 0 -63 25t-27 70v141 q-79 39 -155 39q-127 0 -223.5 -97.5t-139.5 -252.5h399q38 0 59 -22t21 -52t-21 -52t-59 -22h-417q0 -32 4 -90h315q38 0 59 -22t21 -52t-21.5 -53t-58.5 -23h-276q44 -117 138 -191.5t208 -74.5q78 0 147 35v158q0 45 27 70.5t63 25.5q35 0 61.5 -25.5t26.5 -70.5v-303 q0 -45 -26.5 -70t-61.5 -25t-61 22.5t-29 63.5q-132 -53 -297 -53q-216 0 -387 121.5t-244 316.5h-149q-37 0 -57.5 22.5t-20.5 53.5z" />
<glyph unicode="&#xa5;" d="M49 1159q0 27 13.5 46.5t33 30t52 16t59.5 7t67 1.5q95 0 232.5 -5.5t198.5 -5.5q44 0 68 -26t24 -62q0 -26 -8 -43t-19.5 -26.5t-34.5 -14t-41.5 -5.5t-52.5 -1h-25l199 -418l227 418q-32 3 -42.5 4t-32 5t-28.5 9t-17.5 14.5t-13.5 23.5t-3 34q0 33 19 54.5t55 31 t70 12.5t81 3h156q40 0 69 -3.5t59 -13.5t45.5 -31.5t15.5 -54.5q0 -35 -24.5 -60.5t-70.5 -25.5q-55 0 -94 -20.5t-49 -46.5l-111 -215h115q38 0 59 -22t21 -52t-21 -52t-59 -22h-192l-48 -90h240q38 0 59 -22t21 -52t-21.5 -53t-58.5 -23h-315l-8 -14q1 -36 14 -143 q2 -19 12 -31t27 -17t31 -6.5t34 -1.5q43 0 68.5 -27t25.5 -63q0 -33 -23 -59.5t-63 -30.5q-125 -10 -303 -10q-165 0 -282 10q-42 3 -65 28t-23 60q0 36 24 63t66 27q9 0 31 1t36 1q17 0 27.5 20t15 52.5t6.5 64t3 65.5v11h-297q-36 0 -57 21t-21 51q0 33 19 55.5t59 22.5 h227l-49 90h-178q-36 0 -57 21t-21 49q0 33 19 55.5t59 22.5h100l-115 215q-14 39 -43 52t-78 13q-47 0 -72.5 24t-25.5 64z" />
<glyph unicode="&#xa6;" horiz-adv-x="337" d="M49 412h240v-834h-240v834zM49 670v790h240v-790h-240z" />
<glyph unicode="&#xa7;" horiz-adv-x="4444" d="M55 0v1536h262v-1536h-262zM561 565q23 -95 71 -185q49 -92 110 -160q64 -72 147 -129q81 -56 174 -91h575q93 35 174 91q82 57 147 129q63 71 111 160q46 86 70 185h-250q-28 -78 -84 -151q-54 -71 -124 -120q-75 -53 -155 -78q-89 -28 -177 -28q-89 0 -176 28 q-81 26 -155 78q-70 49 -124 120q-56 73 -84 151h-250zM561 604v314h195v-62h-115v-68h102v-65h-104v-119h-78zM561 958h252q30 82 83 152q55 72 123 120q74 52 155 78q84 27 176 27t177 -27q80 -25 155 -78q68 -48 123 -120q53 -70 83 -152h252q-23 98 -75 194 q-49 90 -120 166q-69 73 -158 130q-86 55 -185 88h-502q-101 -34 -186 -88q-87 -55 -157 -130q-73 -78 -121 -166q-52 -96 -75 -194zM1174 745q0 -58 25 -90q24 -32 56 -49q34 -19 84 -24q52 5 88 24q37 18 63 51q28 36 28 101t-26 100q-25 34 -56 51q-37 21 -80 25 q-27 0 -61 -8q-30 -7 -58 -29t-45 -57q-18 -38 -18 -95zM1253 752q0 28 10 51q10 22 23 33q15 12 32 16q16 4 32 4q22 -1 43 -12q14 -9 30 -31q15 -21 15 -55q0 -36 -16 -57q-14 -18 -33 -29q-25 -12 -48 -13q-24 5 -45 15q-17 11 -29 27q-14 19 -14 51zM2060 604v314h90 l146 -209v209h78v-314h-72l-166 213v-213h-76zM2306 565q50 -197 183 -345q132 -147 321 -220h575q187 73 320 220q132 147 182 345h-252q-29 -80 -83 -151q-55 -72 -123 -120q-75 -53 -155 -78q-89 -28 -177 -28q-89 0 -178 28q-80 25 -155 78q-68 48 -123 120 q-54 71 -83 151h-252zM2306 958h252q30 82 83 152q55 72 123 120q75 53 155 78q85 27 178 27q91 0 177 -27q80 -25 155 -78q68 -48 123 -120q53 -70 83 -152h252q-23 98 -75 194q-49 90 -120 166q-69 73 -158 130q-85 54 -188 88h-499q-103 -34 -188 -88q-87 -55 -157 -130 q-73 -78 -121 -166q-52 -96 -75 -194zM2984 842v76h235v-78h-65v-236h-105v238h-65zM3656 827q0 27 12 45q12 17 32 30q18 11 44 16q21 4 47 4q47 0 80 -13l-6 -63q-27 14 -68 14q-19 0 -36 -4q-19 -4 -19 -25q0 -18 22 -25q7 -2 24 -7.5t26 -8.5q30 -10 51 -27 q22 -18 22 -61q0 -58 -41 -79q-40 -21 -94 -21q-15 0 -47 2q-21 1 -47 10l8 68q19 -8 38 -14q21 -6 48 -6q21 0 36 6t15 24q0 22 -23 29q-16 5 -52 17q-26 9 -50 28q-22 18 -22 61zM4137 0v1536h250v-1536h-250z" />
<glyph unicode="&#xa8;" horiz-adv-x="471" d="M49 1100q0 35 25.5 60.5t60.5 25.5t60.5 -25.5t25.5 -60.5q0 -37 -25.5 -62.5t-60.5 -25.5t-60.5 25.5t-25.5 62.5zM250 1100q0 35 25.5 60.5t60.5 25.5t60.5 -25.5t25.5 -60.5q0 -37 -25.5 -62.5t-60.5 -25.5t-60.5 25.5t-25.5 62.5z" />
<glyph unicode="&#xa9;" horiz-adv-x="1468" d="M49 629q0 138 55 264.5t147 218.5t219 146.5t265 54.5q137 0 263.5 -54.5t218.5 -146.5t147 -218.5t55 -264.5t-55 -264.5t-147 -218.5t-218.5 -146.5t-263.5 -54.5q-138 0 -265 54.5t-219 146.5t-147 218.5t-55 264.5zM211 629q0 -141 70.5 -262t191.5 -192t262 -71 q140 0 260.5 71t191 192t70.5 262t-70.5 262t-191 191.5t-260.5 70.5q-106 0 -203 -42t-167 -112t-112 -167t-42 -203zM334 649q0 158 101.5 272.5t258.5 114.5q94 0 174 -41l58 64q64 -58 100 -141t41 -173l-162 -8q0 67 -44 107.5t-109 40.5q-77 0 -116.5 -58.5 t-39.5 -136.5q0 -100 68 -184t167 -84q55 0 96 32.5t56 86.5l123 -37q-37 -123 -133.5 -204t-224.5 -81q-112 0 -208 60.5t-151 159.5t-55 210z" />
<glyph unicode="&#xaa;" horiz-adv-x="595" d="M49 829q0 51 27 93t70.5 68t92.5 41.5t99 19.5v32q0 80 -27 80q-11 0 -19.5 -8.5t-8.5 -26.5q0 -29 -17.5 -51t-44.5 -22q-30 0 -45.5 22.5t-15.5 52.5q0 53 50 82t116 29q159 0 159 -162v-248q0 -12 9.5 -18.5t21.5 -8t21.5 -8t9.5 -18.5q0 -32 -33.5 -50.5t-75.5 -18.5 q-80 0 -96 65q-32 -26 -76.5 -43.5t-85.5 -17.5q-58 0 -94.5 35t-36.5 81zM225 862q0 -20 12 -34.5t27 -14.5q26 0 50 29t24 63v74q-38 -3 -75.5 -40.5t-37.5 -76.5z" />
<glyph unicode="&#xab;" horiz-adv-x="913" d="M49 504q0 30 19 49l329 338q16 16 39 16q30 0 55 -23.5t25 -52.5q0 -12 -6 -24l-172 -303l172 -303q6 -12 6 -27q0 -28 -25.5 -51t-54.5 -23q-25 0 -39 17l-329 338q-19 19 -19 49zM397 504q0 30 19 49l329 338q16 16 39 16q30 0 55 -23.5t25 -52.5q0 -12 -6 -24 l-172 -303l172 -303q6 -12 6 -27q0 -28 -25.5 -51t-54.5 -23q-25 0 -39 17l-329 338q-19 19 -19 49z" />
<glyph unicode="&#xac;" horiz-adv-x="1042" d="M49 508v242h944v-549h-241v307h-703z" />
<glyph unicode="&#xad;" horiz-adv-x="669" d="M49 430q0 7 4 23l51 188q5 21 25 37t43 16h303l6 19q17 55 68 55q29 0 50.5 -20t21.5 -50q0 -8 -3 -20l-51 -189q-6 -20 -26.5 -36.5t-40.5 -16.5h-303l-7 -18q-20 -56 -69 -56q-27 0 -49.5 20t-22.5 48z" />
<glyph unicode="&#xae;" horiz-adv-x="675" d="M49 981q0 121 84.5 206t204.5 85t204.5 -85t84.5 -206q0 -120 -84.5 -204.5t-204.5 -84.5t-204.5 84.5t-84.5 204.5zM104 981q0 -95 68.5 -163t165.5 -68t165 68t68 163q0 97 -68 165t-165 68t-165.5 -68t-68.5 -165zM174 862q0 21 23 21h10q14 0 14 108q0 51 -6 94 q0 7 -20.5 12.5t-20.5 20.5q0 21 23 21q1 0 30.5 2t53.5 2q182 0 182 -101q0 -53 -47 -79q8 -5 24 -18.5t28.5 -24.5t14.5 -11q4 0 14 13.5t19 13.5t16 -6t7 -15q0 -27 -34.5 -57.5t-64.5 -30.5q-20 0 -37 17q-90 100 -90 110q0 7 22.5 31.5t22.5 50.5q0 16 -6.5 36 t-19.5 20q-29 0 -29 -117q0 -92 10 -92h13q16 0 20 -21q0 -11 -8.5 -16.5t-18 -6.5t-26.5 -1h-55q-64 0 -64 24z" />
<glyph unicode="&#xaf;" horiz-adv-x="532" d="M49 913v160h434v-160h-434z" />
<glyph unicode="&#xb0;" horiz-adv-x="512" d="M49 1284q0 85 60.5 146t146.5 61q85 0 146 -61t61 -146t-61 -146t-146 -61q-86 0 -146.5 61t-60.5 146zM133 1284q0 -47 37 -85t86 -38q51 0 87 38t36 85q0 51 -35.5 87t-87.5 36q-50 0 -86.5 -36t-36.5 -87z" />
<glyph unicode="&#xb1;" horiz-adv-x="1116" d="M49 0v242h1018v-242h-1018zM49 618v242h389v316h240v-316h389v-242h-389v-315h-240v315h-389z" />
<glyph unicode="&#xb2;" horiz-adv-x="475" d="M49 768q0 15 8 23l20 20l28 28t29.5 30.5t33 36.5t30 36t29 39t22 37t16.5 37t5 32q0 23 -16.5 36.5t-38.5 13.5q-25 0 -45.5 -12.5t-31.5 -27.5t-24 -27.5t-26 -12.5q-14 0 -24.5 10t-10.5 25q0 8 6 20q28 49 79 78t108 29q66 0 110.5 -37t44.5 -97q0 -35 -17 -71.5 t-49.5 -71t-58.5 -57.5t-65 -54h143q0 43 35 43q15 0 26 -9t11 -27q0 -45 -29 -101.5t-63 -56.5q-14 0 -24.5 11t-10.5 24q0 10 4 16h-219q-16 0 -25.5 11t-9.5 26z" />
<glyph unicode="&#xb3;" horiz-adv-x="475" d="M49 723q0 14 9.5 24.5t23.5 10.5q12 0 16 -2q48 -19 86 -19q49 0 83 25.5t34 75.5q0 39 -22 62.5t-60 23.5q-7 0 -21.5 -1t-21.5 -1q-20 0 -30.5 9t-10.5 23q0 34 37 37q38 2 64 28t26 66q0 24 -14.5 41t-44.5 17q-25 0 -62.5 -22.5t-46.5 -22.5q-15 0 -26 10.5t-11 24.5 q0 35 63 60.5t116 25.5q66 0 110.5 -34.5t44.5 -88.5q0 -64 -61 -115q64 -24 86 -78q10 -22 10 -55q0 -55 -37.5 -97.5t-89.5 -62.5t-106 -20q-52 0 -98 13.5t-46 41.5z" />
<glyph unicode="&#xb4;" horiz-adv-x="524" d="M49 1104q0 29 19 51q18 20 58.5 72.5t67 83t66.5 57.5t76 27q65 0 110 -54q29 -40 29 -84q0 -37 -19 -68.5t-56.5 -56.5t-69.5 -41.5t-83.5 -38.5t-72.5 -32q-16 -8 -35 -8q-36 0 -63 27t-27 65z" />
<glyph unicode="&#xb6;" horiz-adv-x="1042" d="M49 870q0 186 135 320.5t322 134.5h487v-160h-94v-1456h-162v1456h-102v-1456h-160v707q-178 12 -302 143.5t-124 310.5z" />
<glyph unicode="&#xb7;" horiz-adv-x="356" d="M49 633q0 54 37.5 91.5t91.5 37.5t91.5 -37.5t37.5 -91.5t-37.5 -91.5t-91.5 -37.5t-91.5 37.5t-37.5 91.5z" />
<glyph unicode="&#xb8;" horiz-adv-x="514" d="M49 -340q0 29 19 49.5t51 20.5q5 0 15 -1t18 -1q81 0 81 39q0 11 -13.5 19.5t-30.5 15.5t-30.5 23t-13.5 40q0 23 15 41l129 178h176l-111 -156q44 -20 74.5 -63.5t30.5 -95.5q-4 -49 -34.5 -86.5t-78 -57.5t-97 -29.5t-99.5 -9.5q-101 0 -101 74z" />
<glyph unicode="&#xb9;" horiz-adv-x="327" d="M49 791q0 14 10 24t25 10q6 0 22 -4v283q0 12 -12 12h-10q-16 0 -25.5 11t-9.5 26q0 24 23 33l108 37q2 0 5.5 1t4.5 1q14 0 25.5 -11t11.5 -24v-367q6 2 17 2q19 0 30 -18q5 -15 5 -16q0 -25 -34 -37.5t-81 -12.5t-81 12.5t-34 37.5z" />
<glyph unicode="&#xba;" horiz-adv-x="600" d="M49 971q0 105 73.5 180.5t178.5 75.5q104 0 177 -75.5t73 -180.5t-73 -181.5t-177 -76.5q-105 0 -178.5 76.5t-73.5 181.5zM203 1024q0 -73 37.5 -140t89.5 -67q33 0 50 28.5t17 72.5q0 73 -37 139.5t-90 66.5q-34 0 -50.5 -28t-16.5 -72z" />
<glyph unicode="&#xbb;" horiz-adv-x="913" d="M49 174q0 15 6 27l172 303l-172 303q-6 12 -6 24q0 29 25 52.5t55 23.5q20 0 39 -16l330 -338q18 -18 18 -49t-18 -49l-330 -338q-17 -17 -39 -17q-29 0 -54.5 23t-25.5 51zM397 174q0 15 6 27l172 303l-172 303q-6 12 -6 24q0 29 25 52.5t55 23.5q20 0 39 -16l330 -338 q18 -18 18 -49t-18 -49l-330 -338q-17 -17 -39 -17q-29 0 -54.5 23t-25.5 51z" />
<glyph unicode="&#xbc;" horiz-adv-x="1177" d="M49 530q0 23 15.5 39.5t39.5 16.5q11 0 37 -11v449q0 20 -20 20h-15q-28 0 -42.5 17t-14.5 41q0 16 9.5 30.5t27.5 18.5l170 59q6 2 16 2q24 0 41 -16t17 -39v-577q15 6 26 6q21 0 37.5 -15.5t16.5 -40.5q0 -40 -52.5 -58.5t-128.5 -18.5q-47 0 -86 7t-66.5 25t-27.5 45z M86 0l872 1221h170l-866 -1221h-176zM440 119q0 19 11 33l368 528q16 23 27.5 36.5t31.5 26.5t40 13q42 0 60.5 -30.5t18.5 -72.5v-458h41q25 0 41.5 -19.5t18.5 -46.5q0 -66 -56 -66h-45v-137q0 -22 -16.5 -38.5t-38.5 -16.5h-78q-22 0 -38.5 16.5t-16.5 38.5v137h-313 q-24 0 -40 17t-16 39zM618 195h191v272z" />
<glyph unicode="&#xbd;" horiz-adv-x="1353" d="M49 541q0 22 15.5 38.5t39.5 16.5q14 0 37 -10v448q0 21 -20 21h-15q-28 0 -42.5 16.5t-14.5 40.5q0 16 9.5 30.5t27.5 18.5l170 60q6 2 16 2q23 0 40.5 -16.5t17.5 -39.5v-577q15 6 26 6q22 0 38 -15t16 -40q0 -40 -52.5 -59t-128.5 -19q-47 0 -86 7.5t-66.5 25.5 t-27.5 45zM76 4l872 1221h170l-866 -1221h-176zM709 59q0 16 54.5 76t119.5 128t119.5 153t54.5 145q0 37 -25 58.5t-59 21.5q-33 0 -60 -13.5t-44.5 -32.5t-32.5 -37.5t-31 -32t-33 -13.5q-22 0 -38.5 15.5t-16.5 39.5q0 18 10 33q42 77 122 121.5t171 44.5q102 0 175 -56 t73 -151q0 -45 -20.5 -93t-48 -85.5t-74 -82.5t-78.5 -72t-82 -66h227q0 67 55 67q22 0 39.5 -15t18.5 -44q0 -43 -19.5 -100t-55 -102.5t-71.5 -45.5q-22 0 -38.5 16.5t-16.5 38.5q0 13 6 25h-344q-25 0 -41 17.5t-16 41.5z" />
<glyph unicode="&#xbe;" horiz-adv-x="1372" d="M49 463q0 22 15 38.5t40 16.5q14 0 71 -16.5t89 -16.5q77 0 131 39t54 117q0 61 -37 99t-97 38q-10 0 -31.5 -2t-33.5 -2q-29 0 -45.5 14.5t-16.5 36.5q0 23 15 41.5t43 18.5q58 0 99.5 42.5t41.5 104.5q0 37 -24 63.5t-70 26.5q-41 0 -100 -35.5t-72 -35.5 q-22 0 -38.5 17t-16.5 40q0 36 52 68t116 48.5t112 16.5q103 0 173.5 -54t70.5 -138q0 -48 -26.5 -97t-69.5 -84q66 -24 109.5 -81.5t43.5 -129.5q0 -85 -58 -151.5t-141 -98.5t-169 -32q-51 0 -99.5 7t-89.5 28t-41 53zM281 0l872 1221h170l-866 -1221h-176zM631 117 q0 13 10 30l371 529q35 50 55 63q19 13 41 13q43 0 62.5 -31t19.5 -72v-459h39q25 0 41 -19t18 -46q0 -66 -53 -66h-45v-137q0 -21 -17 -38t-38 -17h-80q-22 0 -39 16.5t-17 38.5v137h-311q-24 0 -40.5 17.5t-16.5 40.5zM809 190h190v273z" />
<glyph unicode="&#xbf;" horiz-adv-x="931" d="M49 -109q0 92 50.5 155t142.5 112q73 40 104 71q24 23 39.5 66t32.5 69.5t51 26.5q42 0 67 -43t25 -92q0 -58 -33 -137q-24 -56 -48 -99t-35.5 -59.5t-19 -38.5t-7.5 -53q0 -53 29.5 -100.5t80.5 -47.5q46 0 69 28.5t30.5 69.5t16 81.5t36.5 69t80 28.5q48 0 85.5 -32.5 t37.5 -80.5q0 -101 -65.5 -180.5t-160 -118.5t-192.5 -39q-73 0 -146.5 24t-134 66.5t-98 109t-37.5 144.5zM303 618q0 72 50.5 123.5t121.5 51.5q72 0 123 -51.5t51 -123.5q0 -71 -51 -121.5t-123 -50.5q-71 0 -121.5 51t-50.5 121z" />
<glyph unicode="&#xc0;" d="M49 96q0 37 23 63.5t71 26.5h43q25 0 48.5 21.5t33.5 46.5q9 24 41.5 108t44 114.5t38 102.5t40.5 113t35 102t37 115t31 109q0 25 -18 37t-43.5 15t-51.5 7t-44 21t-18 49q0 38 24 67t65 29q31 0 94 -5t94 -5q40 0 95.5 3t72.5 3q55 0 84.5 -8t40 -19.5t18.5 -35.5 q21 -62 130 -404.5t177 -517.5q10 -25 33.5 -44.5t48.5 -19.5h39q97 0 97 -90q0 -57 -91 -81.5t-264 -24.5q-228 0 -309.5 18t-81.5 84q0 92 102 92h35l-43 218h-291q-49 -169 -49 -213q0 -7 21 -7q6 0 19 1t20 1q36 -1 56.5 -27.5t20.5 -62.5q0 -23 -8.5 -39.5t-27.5 -27.5 t-41.5 -17.5t-59 -10t-71 -4.5t-86.5 -1q-72 0 -114.5 3t-83.5 12.5t-59 29.5t-18 53zM467 1509q0 59 42.5 98.5t96.5 39.5q36 0 76 -27t66.5 -57.5t67 -83t58.5 -72.5q17 -20 17 -51q0 -38 -26 -65t-62 -27q-22 0 -35 8q-21 10 -72.5 32t-83.5 38.5t-69.5 41.5t-56.5 56.5 t-19 68.5zM584 582h202l-77 399q-3 -11 -48.5 -153.5t-76.5 -245.5z" />
<glyph unicode="&#xc1;" d="M49 96q0 37 23 63.5t71 26.5h43q25 0 48.5 21.5t33.5 46.5q9 24 41.5 108t44 114.5t38 102.5t40.5 113t35 102t37 115t31 109q0 25 -18 37t-43.5 15t-51.5 7t-44 21t-18 49q0 38 24 67t65 29q31 0 94 -5t94 -5q40 0 95.5 3t72.5 3q55 0 84.5 -8t40 -19.5t18.5 -35.5 q21 -62 130 -404.5t177 -517.5q10 -25 33.5 -44.5t48.5 -19.5h39q97 0 97 -90q0 -57 -91 -81.5t-264 -24.5q-228 0 -309.5 18t-81.5 84q0 92 102 92h35l-43 218h-291q-49 -169 -49 -213q0 -7 21 -7q6 0 19 1t20 1q36 -1 56.5 -27.5t20.5 -62.5q0 -23 -8.5 -39.5t-27.5 -27.5 t-41.5 -17.5t-59 -10t-71 -4.5t-86.5 -1q-72 0 -114.5 3t-83.5 12.5t-59 29.5t-18 53zM584 582h202l-77 399q-3 -11 -48.5 -153.5t-76.5 -245.5zM600 1360q0 30 18 51q17 20 47 58t52.5 65.5t51.5 56.5t58.5 44.5t59.5 15.5q65 0 110 -54q29 -40 29 -84q0 -37 -19 -68.5 t-56.5 -56.5t-69.5 -41.5t-83.5 -38.5t-72.5 -32q-16 -8 -35 -8q-36 0 -63 27t-27 65z" />
<glyph unicode="&#xc2;" d="M49 96q0 37 23 63.5t71 26.5h43q25 0 48.5 21.5t33.5 46.5q9 24 41.5 108t44 114.5t38 102.5t40.5 113t35 102t37 115t31 109q0 25 -18 37t-43.5 15t-51.5 7t-44 21t-18 49q0 38 24 67t65 29q31 0 94 -5t94 -5q40 0 95.5 3t72.5 3q55 0 84.5 -8t40 -19.5t18.5 -35.5 q21 -62 130 -404.5t177 -517.5q10 -25 33.5 -44.5t48.5 -19.5h39q97 0 97 -90q0 -57 -91 -81.5t-264 -24.5q-228 0 -309.5 18t-81.5 84q0 92 102 92h35l-43 218h-291q-49 -169 -49 -213q0 -7 21 -7q6 0 19 1t20 1q36 -1 56.5 -27.5t20.5 -62.5q0 -23 -8.5 -39.5t-27.5 -27.5 t-41.5 -17.5t-59 -10t-71 -4.5t-86.5 -1q-72 0 -114.5 3t-83.5 12.5t-59 29.5t-18 53zM473 1341q0 29 25 54l217 196q18 15 47 15t47 -15l217 -196q23 -23 23 -54q0 -21 -13 -41q-25 -32 -61 -32q-18 0 -31 8l-182 96l-182 -96q-13 -8 -33 -8q-29 0 -51.5 22t-22.5 51z M584 582h202l-77 399q-3 -11 -48.5 -153.5t-76.5 -245.5z" />
<glyph unicode="&#xc3;" d="M49 96q0 37 23 63.5t71 26.5h43q25 0 48.5 21.5t33.5 46.5q9 24 41.5 108t44 114.5t38 102.5t40.5 113t35 102t37 115t31 109q0 25 -18 37t-43.5 15t-51.5 7t-44 21t-18 49q0 38 24 67t65 29q31 0 94 -5t94 -5q40 0 95.5 3t72.5 3q55 0 84.5 -8t40 -19.5t18.5 -35.5 q21 -62 130 -404.5t177 -517.5q10 -25 33.5 -44.5t48.5 -19.5h39q97 0 97 -90q0 -57 -91 -81.5t-264 -24.5q-228 0 -309.5 18t-81.5 84q0 92 102 92h35l-43 218h-291q-49 -169 -49 -213q0 -7 21 -7q6 0 19 1t20 1q36 -1 56.5 -27.5t20.5 -62.5q0 -23 -8.5 -39.5t-27.5 -27.5 t-41.5 -17.5t-59 -10t-71 -4.5t-86.5 -1q-72 0 -114.5 3t-83.5 12.5t-59 29.5t-18 53zM438 1329q0 74 54.5 138.5t130.5 64.5q29 0 43 -4l174 -41q19 76 73 76q28 0 49 -19t21 -51q0 -79 -52 -142t-134 -63q-27 0 -39 4l-176 41q-16 -76 -74 -76q-28 0 -49 20t-21 52z M584 582h202l-77 399q-3 -11 -48.5 -153.5t-76.5 -245.5z" />
<glyph unicode="&#xc4;" d="M49 96q0 37 23 63.5t71 26.5h43q25 0 48.5 21.5t33.5 46.5q9 24 41.5 108t44 114.5t38 102.5t40.5 113t35 102t37 115t31 109q0 25 -18 37t-43.5 15t-51.5 7t-44 21t-18 49q0 38 24 67t65 29q31 0 94 -5t94 -5q40 0 95.5 3t72.5 3q55 0 84.5 -8t40 -19.5t18.5 -35.5 q21 -62 130 -404.5t177 -517.5q10 -25 33.5 -44.5t48.5 -19.5h39q97 0 97 -90q0 -57 -91 -81.5t-264 -24.5q-228 0 -309.5 18t-81.5 84q0 92 102 92h35l-43 218h-291q-49 -169 -49 -213q0 -7 21 -7q6 0 19 1t20 1q36 -1 56.5 -27.5t20.5 -62.5q0 -23 -8.5 -39.5t-27.5 -27.5 t-41.5 -17.5t-59 -10t-71 -4.5t-86.5 -1q-72 0 -114.5 3t-83.5 12.5t-59 29.5t-18 53zM514 1362q0 35 25.5 60.5t60.5 25.5t60.5 -25.5t25.5 -60.5q0 -37 -25.5 -62.5t-60.5 -25.5t-60.5 25.5t-25.5 62.5zM584 582h202l-77 399q-3 -11 -48.5 -153.5t-76.5 -245.5zM715 1362 q0 35 25.5 60.5t60.5 25.5t60.5 -25.5t25.5 -60.5q0 -37 -25.5 -62.5t-60.5 -25.5t-60.5 25.5t-25.5 62.5z" />
<glyph unicode="&#xc5;" d="M49 96q0 37 23 63.5t71 26.5h43q25 0 48.5 21.5t33.5 46.5q9 24 41.5 108t44 114.5t38 102.5t40.5 113t35 102t37 115t31 109q0 25 -18 37t-43.5 15t-51.5 7t-44 21t-18 49q0 38 24 67t65 29q31 0 94 -5t94 -5q40 0 95.5 3t72.5 3q55 0 84.5 -8t40 -19.5t18.5 -35.5 q21 -62 130 -404.5t177 -517.5q10 -25 33.5 -44.5t48.5 -19.5h39q97 0 97 -90q0 -57 -91 -81.5t-264 -24.5q-228 0 -309.5 18t-81.5 84q0 92 102 92h35l-43 218h-291q-49 -169 -49 -213q0 -7 21 -7q6 0 19 1t20 1q36 -1 56.5 -27.5t20.5 -62.5q0 -23 -8.5 -39.5t-27.5 -27.5 t-41.5 -17.5t-59 -10t-71 -4.5t-86.5 -1q-72 0 -114.5 3t-83.5 12.5t-59 29.5t-18 53zM539 1380q0 72 51 123t123 51q71 0 122.5 -51t51.5 -123t-51 -123t-123 -51t-123 51t-51 123zM584 582h202l-77 399q-3 -11 -48.5 -153.5t-76.5 -245.5zM645 1380q0 -28 20 -47.5 t48 -19.5t47.5 19.5t19.5 47.5t-19.5 48t-47.5 20q-29 0 -48.5 -20t-19.5 -48z" />
<glyph unicode="&#xc6;" horiz-adv-x="1890" d="M49 92q0 36 24.5 62t67.5 26h45q25 0 48.5 21.5t33.5 46.5l432 741q13 23 13 35q0 35 -95 35q-38 0 -58.5 22.5t-20.5 57.5q0 40 23.5 69t66.5 29q85 0 274 -11.5t297 -11.5q81 0 237 12.5t226 12.5q27 0 46 -13.5t28.5 -31.5t14.5 -46.5t6 -46.5t1 -44q0 -33 -8 -123 q-2 -19 -4.5 -29t-10.5 -23t-25.5 -18.5t-45.5 -5.5q-53 0 -69.5 22t-16.5 66v45q0 30 -25.5 41.5t-74.5 11.5q-215 0 -215 -53v-301h114q-1 7 -4.5 36.5t-3.5 43.5q0 40 26 63t60 23q26 0 44 -15t28 -36.5t15 -59t6 -66.5t1 -75q0 -39 -1 -64.5t-3.5 -59.5t-9 -56t-17 -43 t-27.5 -31t-40 -10q-33 0 -58.5 22.5t-25.5 61.5q0 13 3.5 45.5t4.5 50.5h-112v-295q0 -49 174 -49h59q72 0 123 53.5t51 137.5q0 34 16 52.5t68 18.5t69 -21.5t17 -70.5q0 -375 -127 -375q-70 0 -206 15.5t-203 15.5q-77 0 -235 -4t-241 -4q-21 0 -32 1.5t-26 8.5 t-21.5 25.5t-6.5 48.5q0 54 23.5 70t71.5 16h34q20 0 33 35t18.5 92t7.5 108t3 104v17h-279l-174 -340h39q47 0 72.5 -24t25.5 -64q0 -32 -18.5 -53.5t-52 -31.5t-67.5 -13.5t-79 -3.5q-8 0 -57.5 1t-107.5 1q-40 0 -68 3t-58 12.5t-45.5 30.5t-15.5 54zM741 690h193 q-3 143 -19 301z" />
<glyph unicode="&#xc7;" horiz-adv-x="1271" d="M49 602q0 182 88 338.5t241.5 249t336.5 92.5q267 0 481 -168q8 -6 17.5 -26.5t9.5 -30.5q-2 -59 -28 -138t-69 -140.5t-84 -61.5q-28 0 -51.5 24t-23.5 52q0 13 17 44t17 60q0 76 -49.5 127t-130.5 51q-68 0 -125.5 -27.5t-97 -72.5t-67 -105t-40 -123.5t-12.5 -128.5 q0 -138 43 -254t134 -191t216 -75q92 0 191 62q21 12 41 12q30 0 50 -21.5t20 -50.5q0 -53 -77.5 -94.5t-179.5 -60.5t-200 -19q-183 0 -337 92t-242.5 247.5t-88.5 336.5zM336 -365q0 29 19 49.5t51 20.5q4 0 14 -1t18 -1q82 0 82 39q0 11 -14 19.5t-30 15.5t-30 23t-14 40 t14 41l129 178h177l-111 -155q43 -20 73.5 -64t30.5 -96q-4 -49 -34.5 -86.5t-78 -57t-97 -29t-99.5 -9.5q-100 0 -100 73z" />
<glyph unicode="&#xc8;" horiz-adv-x="1196" d="M49 59q0 52 22 68t66 16h41q64 0 64 428v25q0 180 -23 389q-3 28 -22 39t-43.5 11.5t-48 3t-40 22t-16.5 59.5q0 55 23 70.5t71 15.5q67 0 202 -5t204 -5q73 0 214 11.5t206 11.5q96 0 96 -170q0 -52 -10 -134q-4 -38 -28.5 -58.5t-55.5 -20.5q-35 0 -60.5 24.5 t-25.5 67.5v45q0 53 -76 53q-242 0 -242 -53v-303h115q0 14 -4 40t-4 40q0 38 25.5 62t58.5 24q48 0 76 -80.5t28 -186.5q0 -102 -26.5 -174.5t-75.5 -72.5q-35 0 -61.5 23t-26.5 63q0 14 4.5 45t5.5 47h-115v-295q0 -49 217 -49q84 0 137.5 50.5t53.5 127.5q0 40 24.5 63 t57.5 23q37 0 63.5 -24.5t26.5 -69.5q0 -373 -127 -373q-2 0 -5.5 1t-4.5 1q-168 29 -385 29q-80 0 -243.5 -5.5t-248.5 -5.5q-21 0 -31.5 1.5t-25 9t-21 26t-6.5 49.5zM385 1509q0 59 42.5 98.5t96.5 39.5q30 0 59.5 -15.5t58.5 -44.5t51.5 -56.5t52.5 -65.5t47 -58 q16 -19 16 -51q0 -38 -26 -65t-62 -27q-22 0 -35 8q-21 10 -72.5 32t-83.5 38.5t-69.5 41.5t-56.5 56.5t-19 68.5z" />
<glyph unicode="&#xc9;" horiz-adv-x="1196" d="M49 59q0 52 22 68t66 16h41q64 0 64 428v25q0 180 -23 389q-3 28 -22 39t-43.5 11.5t-48 3t-40 22t-16.5 59.5q0 55 23 70.5t71 15.5q67 0 202 -5t204 -5q73 0 214 11.5t206 11.5q96 0 96 -170q0 -52 -10 -134q-4 -38 -28.5 -58.5t-55.5 -20.5q-35 0 -60.5 24.5 t-25.5 67.5v45q0 53 -76 53q-242 0 -242 -53v-303h115q0 14 -4 40t-4 40q0 38 25.5 62t58.5 24q48 0 76 -80.5t28 -186.5q0 -102 -26.5 -174.5t-75.5 -72.5q-35 0 -61.5 23t-26.5 63q0 14 4.5 45t5.5 47h-115v-295q0 -49 217 -49q84 0 137.5 50.5t53.5 127.5q0 40 24.5 63 t57.5 23q37 0 63.5 -24.5t26.5 -69.5q0 -373 -127 -373q-2 0 -5.5 1t-4.5 1q-168 29 -385 29q-80 0 -243.5 -5.5t-248.5 -5.5q-21 0 -31.5 1.5t-25 9t-21 26t-6.5 49.5zM385 1360q0 30 18 51q17 20 47 58t52.5 65.5t51.5 56.5t58.5 44.5t59.5 15.5q65 0 110 -54 q29 -40 29 -84q0 -37 -19 -68.5t-56.5 -56.5t-69.5 -41.5t-83.5 -38.5t-72.5 -32q-16 -8 -35 -8q-36 0 -63 27t-27 65z" />
<glyph unicode="&#xca;" horiz-adv-x="1196" d="M49 59q0 52 22 68t66 16h41q64 0 64 428v25q0 180 -23 389q-3 28 -22 39t-43.5 11.5t-48 3t-40 22t-16.5 59.5q0 55 23 70.5t71 15.5q67 0 202 -5t204 -5q73 0 214 11.5t206 11.5q96 0 96 -170q0 -52 -10 -134q-4 -38 -28.5 -58.5t-55.5 -20.5q-35 0 -60.5 24.5 t-25.5 67.5v45q0 53 -76 53q-242 0 -242 -53v-303h115q0 14 -4 40t-4 40q0 38 25.5 62t58.5 24q48 0 76 -80.5t28 -186.5q0 -102 -26.5 -174.5t-75.5 -72.5q-35 0 -61.5 23t-26.5 63q0 14 4.5 45t5.5 47h-115v-295q0 -49 217 -49q84 0 137.5 50.5t53.5 127.5q0 40 24.5 63 t57.5 23q37 0 63.5 -24.5t26.5 -69.5q0 -373 -127 -373q-2 0 -5.5 1t-4.5 1q-168 29 -385 29q-80 0 -243.5 -5.5t-248.5 -5.5q-21 0 -31.5 1.5t-25 9t-21 26t-6.5 49.5zM309 1341q0 29 25 54l217 196q18 15 47 15t47 -15l217 -196q23 -23 23 -54q0 -21 -13 -41 q-25 -32 -61 -32q-18 0 -31 8l-182 96l-182 -96q-13 -8 -33 -8q-29 0 -51.5 22t-22.5 51z" />
<glyph unicode="&#xcb;" horiz-adv-x="1196" d="M49 59q0 52 22 68t66 16h41q64 0 64 428v25q0 180 -23 389q-3 28 -22 39t-43.5 11.5t-48 3t-40 22t-16.5 59.5q0 55 23 70.5t71 15.5q67 0 202 -5t204 -5q73 0 214 11.5t206 11.5q96 0 96 -170q0 -52 -10 -134q-4 -38 -28.5 -58.5t-55.5 -20.5q-35 0 -60.5 24.5 t-25.5 67.5v45q0 53 -76 53q-242 0 -242 -53v-303h115q0 14 -4 40t-4 40q0 38 25.5 62t58.5 24q48 0 76 -80.5t28 -186.5q0 -102 -26.5 -174.5t-75.5 -72.5q-35 0 -61.5 23t-26.5 63q0 14 4.5 45t5.5 47h-115v-295q0 -49 217 -49q84 0 137.5 50.5t53.5 127.5q0 40 24.5 63 t57.5 23q37 0 63.5 -24.5t26.5 -69.5q0 -373 -127 -373q-2 0 -5.5 1t-4.5 1q-168 29 -385 29q-80 0 -243.5 -5.5t-248.5 -5.5q-21 0 -31.5 1.5t-25 9t-21 26t-6.5 49.5zM412 1356q0 35 25.5 60.5t60.5 25.5t60.5 -25.5t25.5 -60.5q0 -37 -25.5 -62.5t-60.5 -25.5t-60.5 25.5 t-25.5 62.5zM612 1356q0 35 25.5 60.5t60.5 25.5t60.5 -25.5t25.5 -60.5q0 -37 -25.5 -62.5t-60.5 -25.5t-60.5 25.5t-25.5 62.5z" />
<glyph unicode="&#xcc;" horiz-adv-x="858" d="M49 80q0 36 23 63t63 27q24 0 42.5 8.5t32 29t23 40t15.5 57t9.5 63.5t4.5 75.5t1.5 78t0.5 84.5q0 213 -20 383q-3 24 -22 36.5t-37.5 14.5t-49.5 2q-36 0 -61 24.5t-25 57.5q0 37 20.5 64t67.5 31q117 10 283 10q151 0 301 -12q42 -3 65 -28.5t23 -60.5t-24 -61.5 t-66 -26.5q-20 0 -33 -1t-33 -5.5t-31.5 -17t-13.5 -31.5q-22 -200 -22 -379q0 -434 133 -434q39 0 63 -23.5t27 -56.5q0 -83 -88 -98q-120 -12 -301 -12q-165 0 -283 10q-43 3 -65.5 28t-22.5 60zM217 1509q0 59 42.5 98.5t96.5 39.5q30 0 59.5 -15.5t58.5 -44.5 t51.5 -56.5t52.5 -65.5t47 -58q16 -19 16 -51q0 -38 -26 -65t-62 -27q-22 0 -35 8q-21 10 -72.5 32t-83.5 38.5t-69.5 41.5t-56.5 56.5t-19 68.5z" />
<glyph unicode="&#xcd;" horiz-adv-x="858" d="M49 80q0 36 23 63t63 27q24 0 42.5 8.5t32 29t23 40t15.5 57t9.5 63.5t4.5 75.5t1.5 78t0.5 84.5q0 213 -20 383q-3 24 -22 36.5t-37.5 14.5t-49.5 2q-36 0 -61 24.5t-25 57.5q0 37 20.5 64t67.5 31q117 10 283 10q151 0 301 -12q42 -3 65 -28.5t23 -60.5t-24 -61.5 t-66 -26.5q-20 0 -33 -1t-33 -5.5t-31.5 -17t-13.5 -31.5q-22 -200 -22 -379q0 -434 133 -434q39 0 63 -23.5t27 -56.5q0 -83 -88 -98q-120 -12 -301 -12q-165 0 -283 10q-43 3 -65.5 28t-22.5 60zM215 1360q0 30 18 51q17 20 47 58t52.5 65.5t51.5 56.5t58.5 44.5 t59.5 15.5q65 0 110 -54q29 -40 29 -84q0 -37 -19 -68.5t-56.5 -56.5t-69.5 -41.5t-83.5 -38.5t-72.5 -32q-16 -8 -35 -8q-36 0 -63 27t-27 65z" />
<glyph unicode="&#xce;" horiz-adv-x="858" d="M49 80q0 36 23 63t63 27q24 0 42.5 8.5t32 29t23 40t15.5 57t9.5 63.5t4.5 75.5t1.5 78t0.5 84.5q0 213 -20 383q-3 24 -22 36.5t-37.5 14.5t-49.5 2q-36 0 -61 24.5t-25 57.5q0 37 20.5 64t67.5 31q117 10 283 10q151 0 301 -12q42 -3 65 -28.5t23 -60.5t-24 -61.5 t-66 -26.5q-20 0 -33 -1t-33 -5.5t-31.5 -17t-13.5 -31.5q-22 -200 -22 -379q0 -434 133 -434q39 0 63 -23.5t27 -56.5q0 -83 -88 -98q-120 -12 -301 -12q-165 0 -283 10q-43 3 -65.5 28t-22.5 60zM141 1341q0 29 25 54l217 196q18 15 47 15t47 -15l217 -196q23 -23 23 -54 q0 -23 -12 -41q-25 -32 -62 -32q-18 0 -31 8l-182 96l-182 -96q-13 -8 -33 -8q-29 0 -51.5 22t-22.5 51z" />
<glyph unicode="&#xcf;" horiz-adv-x="858" d="M49 80q0 36 23 63t63 27q24 0 42.5 8.5t32 29t23 40t15.5 57t9.5 63.5t4.5 75.5t1.5 78t0.5 84.5q0 213 -20 383q-3 24 -22 36.5t-37.5 14.5t-49.5 2q-36 0 -61 24.5t-25 57.5q0 37 20.5 64t67.5 31q117 10 283 10q151 0 301 -12q42 -3 65 -28.5t23 -60.5t-24 -61.5 t-66 -26.5q-20 0 -33 -1t-33 -5.5t-31.5 -17t-13.5 -31.5q-22 -200 -22 -379q0 -434 133 -434q39 0 63 -23.5t27 -56.5q0 -83 -88 -98q-120 -12 -301 -12q-165 0 -283 10q-43 3 -65.5 28t-22.5 60zM242 1356q0 35 25.5 60.5t60.5 25.5t60.5 -25.5t25.5 -60.5 q0 -37 -25.5 -62.5t-60.5 -25.5t-60.5 25.5t-25.5 62.5zM442 1356q0 35 25.5 60.5t60.5 25.5t60.5 -25.5t25.5 -60.5q0 -37 -25.5 -62.5t-60.5 -25.5t-60.5 25.5t-25.5 62.5z" />
<glyph unicode="&#xd0;" horiz-adv-x="1353" d="M49 1137q0 35 26.5 62.5t63.5 27.5q45 0 138 -9.5t139 -9.5q68 0 192 13.5t180 13.5q120 0 220 -55t163.5 -145.5t98.5 -203.5t35 -233q0 -86 -20.5 -175.5t-63.5 -173.5t-102.5 -149.5t-144 -105t-181.5 -39.5q-76 0 -224 20.5t-225 20.5q-106 0 -211 -6q-36 0 -58 25 t-22 61q0 84 97 84q26 0 38.5 1.5t26 13t16.5 34.5q16 142 23 317h-96q-35 0 -54.5 21.5t-19.5 50.5t19.5 50.5t54.5 21.5h96q-3 167 -23 323q-5 36 -27 46t-65 10q-34 0 -62 24.5t-28 63.5zM557 526q3 -158 21 -311q4 -40 36 -59t76 -19q80 0 139.5 69t87 168t27.5 206 q0 42 -6.5 95t-23.5 118t-42 118t-67 89t-94 36q-65 0 -133 -65q-16 -162 -19 -301h105q35 0 54 -21.5t19 -50.5t-19 -50.5t-54 -21.5h-107z" />
<glyph unicode="&#xd1;" horiz-adv-x="1538" d="M49 84q0 94 131 94q60 0 60 426q0 161 -23 389q-3 26 -18.5 36.5t-55.5 10.5q-44 0 -69 26.5t-25 63.5q0 101 215 101q133 0 262 -14q17 -2 32 -8.5t29 -18.5t22.5 -21t22 -25.5t17.5 -21.5l428 -506q0 185 -20 377q-3 26 -19.5 36.5t-54.5 10.5q-44 0 -69 26.5t-25 63.5 q0 52 86 77.5t211 25.5q81 0 147 -10.5t111 -36t45 -62.5q0 -39 -26.5 -59t-58.5 -23.5t-59.5 -14.5t-29.5 -34q-23 -292 -23 -389q0 -156 23 -399q3 -47 59 -47l8 1q8 1 13 1q41 0 66 -24t28 -58q0 -35 -19.5 -58t-56 -32.5t-65.5 -12t-70 -2.5q-110 0 -178.5 36.5 t-157.5 142.5l-485 585q-4 -86 -4 -133q0 -112 24 -366q3 -32 31 -48t59 -19.5t56.5 -23.5t25.5 -61q0 -53 -87.5 -78.5t-215.5 -25.5q-125 0 -211 25t-86 77zM496 1339q0 75 54 139t130 64q29 0 43 -4l174 -41q19 76 74 76q28 0 48.5 -19t20.5 -51q0 -79 -52 -142t-134 -63 q-24 0 -39 5l-176 40q-16 -75 -74 -75q-28 0 -48.5 19.5t-20.5 51.5z" />
<glyph unicode="&#xd2;" horiz-adv-x="1472" d="M49 596q0 128 53.5 248.5t146 211.5t225 146t280.5 55q127 0 248 -48t214 -130t150 -202t57 -254q0 -127 -52.5 -246.5t-143.5 -211t-223 -147t-281 -55.5q-134 0 -257.5 49t-215.5 132t-146.5 201.5t-54.5 250.5zM440 684q0 -41 10 -99t35.5 -128t61.5 -128.5 t94.5 -98.5t128.5 -40t122.5 35t81 93t41.5 121t13 130t-21 148t-59.5 159t-104 130.5t-143.5 52.5q-70 0 -123 -34.5t-81.5 -91.5t-42 -119.5t-13.5 -129.5zM524 1509q0 59 43 98.5t97 39.5q36 0 76 -27t66.5 -57.5t67 -83t58.5 -72.5q16 -19 16 -51q0 -38 -26 -65t-62 -27 q-22 0 -35 8q-21 10 -72.5 32t-83.5 38.5t-69.5 41.5t-56.5 56.5t-19 68.5z" />
<glyph unicode="&#xd3;" horiz-adv-x="1472" d="M49 596q0 128 53.5 248.5t146 211.5t225 146t280.5 55q127 0 248 -48t214 -130t150 -202t57 -254q0 -127 -52.5 -246.5t-143.5 -211t-223 -147t-281 -55.5q-134 0 -257.5 49t-215.5 132t-146.5 201.5t-54.5 250.5zM440 684q0 -41 10 -99t35.5 -128t61.5 -128.5 t94.5 -98.5t128.5 -40t122.5 35t81 93t41.5 121t13 130t-21 148t-59.5 159t-104 130.5t-143.5 52.5q-70 0 -123 -34.5t-81.5 -91.5t-42 -119.5t-13.5 -129.5zM522 1360q0 29 19 51q18 20 58.5 72.5t67 83t66.5 57.5t76 27q66 0 111 -54q28 -39 28 -84q0 -37 -19 -68.5 t-56.5 -56.5t-69.5 -41.5t-83.5 -38.5t-72.5 -32q-16 -8 -35 -8q-36 0 -63 27t-27 65z" />
<glyph unicode="&#xd4;" horiz-adv-x="1472" d="M49 596q0 128 53.5 248.5t146 211.5t225 146t280.5 55q127 0 248 -48t214 -130t150 -202t57 -254q0 -127 -52.5 -246.5t-143.5 -211t-223 -147t-281 -55.5q-134 0 -257.5 49t-215.5 132t-146.5 201.5t-54.5 250.5zM440 684q0 -41 10 -99t35.5 -128t61.5 -128.5 t94.5 -98.5t128.5 -40t122.5 35t81 93t41.5 121t13 130t-21 148t-59.5 159t-104 130.5t-143.5 52.5q-70 0 -123 -34.5t-81.5 -91.5t-42 -119.5t-13.5 -129.5zM449 1341q0 30 24 54l217 196q18 15 47 15t47 -15l217 -196q23 -23 23 -54q0 -23 -12 -41q-25 -32 -62 -32 q-17 0 -30 8l-183 96l-182 -96q-13 -8 -33 -8q-29 0 -51 22t-22 51z" />
<glyph unicode="&#xd5;" horiz-adv-x="1472" d="M49 596q0 128 53.5 248.5t146 211.5t225 146t280.5 55q127 0 248 -48t214 -130t150 -202t57 -254q0 -127 -52.5 -246.5t-143.5 -211t-223 -147t-281 -55.5q-134 0 -257.5 49t-215.5 132t-146.5 201.5t-54.5 250.5zM440 684q0 -41 10 -99t35.5 -128t61.5 -128.5 t94.5 -98.5t128.5 -40t122.5 35t81 93t41.5 121t13 130t-21 148t-59.5 159t-104 130.5t-143.5 52.5q-70 0 -123 -34.5t-81.5 -91.5t-42 -119.5t-13.5 -129.5zM463 1339q0 75 54 139t130 64q29 0 43 -4l174 -41q19 76 74 76q28 0 49 -19t21 -51q0 -79 -52.5 -142t-134.5 -63 q-24 0 -39 5l-176 40q-16 -75 -74 -75q-28 0 -48.5 19.5t-20.5 51.5z" />
<glyph unicode="&#xd6;" horiz-adv-x="1472" d="M49 596q0 128 53.5 248.5t146 211.5t225 146t280.5 55q127 0 248 -48t214 -130t150 -202t57 -254q0 -127 -52.5 -246.5t-143.5 -211t-223 -147t-281 -55.5q-134 0 -257.5 49t-215.5 132t-146.5 201.5t-54.5 250.5zM440 684q0 -41 10 -99t35.5 -128t61.5 -128.5 t94.5 -98.5t128.5 -40t122.5 35t81 93t41.5 121t13 130t-21 148t-59.5 159t-104 130.5t-143.5 52.5q-70 0 -123 -34.5t-81.5 -91.5t-42 -119.5t-13.5 -129.5zM528 1376q0 35 25.5 60.5t60.5 25.5t60.5 -25.5t25.5 -60.5q0 -37 -25.5 -62.5t-60.5 -25.5t-60.5 25.5 t-25.5 62.5zM729 1376q0 35 25.5 60.5t60.5 25.5t60.5 -25.5t25.5 -60.5q0 -37 -25.5 -62.5t-60.5 -25.5t-60.5 25.5t-25.5 62.5z" />
<glyph unicode="&#xd7;" horiz-adv-x="1103" d="M49 211l332 332l-330 331l170 170l332 -331l330 331l172 -170l-332 -331l332 -332l-172 -170l-330 332l-332 -332z" />
<glyph unicode="&#xd8;" horiz-adv-x="1472" d="M49 580q0 127 53.5 247.5t145 211.5t224 146.5t280.5 55.5q222 0 405 -127l86 86q25 25 53 25t50 -22t22 -50t-25 -53l-79 -80q159 -177 159 -414q0 -126 -52.5 -246t-143.5 -211.5t-223 -147.5t-281 -56q-221 0 -406 129l-86 -86q-25 -25 -53 -25t-50 22t-22 50t25 53 l80 80q-162 180 -162 412zM440 666q0 -112 43 -226l449 449q-101 153 -234 153q-70 0 -122 -34.5t-80.5 -92t-42 -120t-13.5 -129.5zM553 309q92 -135 219 -135q56 0 101 23.5t73.5 61.5t47.5 89t26.5 101.5t7.5 103.5q0 109 -33 199z" />
<glyph unicode="&#xd9;" horiz-adv-x="1478" d="M49 1145q0 31 19 51.5t55.5 29.5t69.5 12t79 3q198 0 396 -10q44 -3 69 -27.5t25 -58.5t-20 -60.5t-52 -29.5h-90v-668q0 -79 64 -135.5t153 -56.5t153 56.5t64 135.5v668q-6 0 -27 -1t-34 -1q-103 0 -103 90q0 49 81.5 73.5t197.5 24.5q112 0 191 -23.5t90 -74.5 q-2 -37 -25.5 -62.5t-67.5 -25.5h-37q-23 0 -37 -24.5t-14 -59.5v-611q0 -154 -149 -266t-359 -112q-138 0 -255.5 51.5t-186 138.5t-68.5 188v629q0 66 -79 66q-5 0 -8 -0.5t-4 -0.5t-1.5 -0.5t-1.5 -0.5q-41 0 -64.5 26.5t-23.5 65.5zM526 1509q0 59 43 98.5t97 39.5 q36 0 76 -27t66.5 -57.5t67 -83t58.5 -72.5q16 -19 16 -51q0 -38 -26 -65t-62 -27q-22 0 -35 8q-21 10 -72.5 32t-83.5 38.5t-69.5 41.5t-56.5 56.5t-19 68.5z" />
<glyph unicode="&#xda;" horiz-adv-x="1478" d="M49 1145q0 31 19 51.5t55.5 29.5t69.5 12t79 3q198 0 396 -10q44 -3 69 -27.5t25 -58.5t-20 -60.5t-52 -29.5h-90v-668q0 -79 64 -135.5t153 -56.5t153 56.5t64 135.5v668q-6 0 -27 -1t-34 -1q-103 0 -103 90q0 49 81.5 73.5t197.5 24.5q112 0 191 -23.5t90 -74.5 q-2 -37 -25.5 -62.5t-67.5 -25.5h-37q-23 0 -37 -24.5t-14 -59.5v-611q0 -154 -149 -266t-359 -112q-138 0 -255.5 51.5t-186 138.5t-68.5 188v629q0 66 -79 66q-5 0 -8 -0.5t-4 -0.5t-1.5 -0.5t-1.5 -0.5q-41 0 -64.5 26.5t-23.5 65.5zM526 1360q0 29 19 51 q18 20 58.5 72.5t67 83t66.5 57.5t76 27q66 0 111 -54q28 -39 28 -84q0 -37 -19 -68.5t-56.5 -56.5t-69.5 -41.5t-83.5 -38.5t-72.5 -32q-16 -8 -35 -8q-36 0 -63 27t-27 65z" />
<glyph unicode="&#xdb;" horiz-adv-x="1478" d="M49 1145q0 31 19 51.5t55.5 29.5t69.5 12t79 3q198 0 396 -10q44 -3 69 -27.5t25 -58.5t-20 -60.5t-52 -29.5h-90v-668q0 -79 64 -135.5t153 -56.5t153 56.5t64 135.5v668q-6 0 -27 -1t-34 -1q-103 0 -103 90q0 49 81.5 73.5t197.5 24.5q112 0 191 -23.5t90 -74.5 q-2 -37 -25.5 -62.5t-67.5 -25.5h-37q-23 0 -37 -24.5t-14 -59.5v-611q0 -154 -149 -266t-359 -112q-138 0 -255.5 51.5t-186 138.5t-68.5 188v629q0 66 -79 66q-5 0 -8 -0.5t-4 -0.5t-1.5 -0.5t-1.5 -0.5q-41 0 -64.5 26.5t-23.5 65.5zM479 1341q0 29 25 54l217 196 q18 15 47 15t47 -15l217 -196q23 -23 23 -54q0 -21 -13 -41q-25 -32 -61 -32q-18 0 -31 8l-182 96l-182 -96q-13 -8 -33 -8q-29 0 -51.5 22t-22.5 51z" />
<glyph unicode="&#xdc;" horiz-adv-x="1478" d="M49 1145q0 31 19 51.5t55.5 29.5t69.5 12t79 3q198 0 396 -10q44 -3 69 -27.5t25 -58.5t-20 -60.5t-52 -29.5h-90v-668q0 -79 64 -135.5t153 -56.5t153 56.5t64 135.5v668q-6 0 -27 -1t-34 -1q-103 0 -103 90q0 49 81.5 73.5t197.5 24.5q112 0 191 -23.5t90 -74.5 q-2 -37 -25.5 -62.5t-67.5 -25.5h-37q-23 0 -37 -24.5t-14 -59.5v-611q0 -154 -149 -266t-359 -112q-138 0 -255.5 51.5t-186 138.5t-68.5 188v629q0 66 -79 66q-5 0 -8 -0.5t-4 -0.5t-1.5 -0.5t-1.5 -0.5q-41 0 -64.5 26.5t-23.5 65.5zM553 1356q0 35 25.5 60.5t60.5 25.5 t60.5 -25.5t25.5 -60.5q0 -37 -25.5 -62.5t-60.5 -25.5t-60.5 25.5t-25.5 62.5zM754 1356q0 35 25.5 60.5t60.5 25.5t60.5 -25.5t25.5 -60.5q0 -37 -25.5 -62.5t-60.5 -25.5t-60.5 25.5t-25.5 62.5z" />
<glyph unicode="&#xdd;" d="M49 1145q0 31 18.5 51.5t53 29.5t67 12t78.5 3q100 0 239.5 -5t199.5 -5q44 0 68 -25.5t24 -60.5q0 -92 -105 -92q-16 0 -43.5 1t-32.5 1l199 -420l227 420q-7 0 -19.5 -1t-18.5 -1q-48 0 -73.5 24.5t-25.5 65.5q0 65 82.5 82.5t300.5 17.5q40 0 68 -3t58 -12.5 t45.5 -30.5t15.5 -54q-2 -37 -25.5 -62.5t-69.5 -25.5h-43q-26 0 -58.5 -22.5t-41.5 -45.5l-319 -616q2 -55 14 -152q3 -31 21 -40t57 -9q5 0 15 1t15 1q42 0 66 -26.5t24 -61.5t-22.5 -61t-63.5 -29q-146 -14 -311 -14q-194 0 -278 18.5t-84 81.5q0 36 23 63t63 27h71 q10 0 18 8t13 24t8.5 33t6 41.5t3.5 42.5t2.5 43.5t2.5 38.5l-314 586q-8 25 -32.5 46.5t-49.5 21.5q-6 0 -19.5 -1t-19.5 -1q-48 0 -73 24.5t-25 67.5zM629 1360q0 30 18 51q18 20 58.5 72.5t67 83t66.5 57.5t76 27q66 0 111 -54q29 -40 29 -84q0 -37 -19 -68.5 t-56.5 -56.5t-69.5 -41.5t-83.5 -38.5t-72.5 -32q-16 -8 -35 -8q-36 0 -63 27t-27 65z" />
<glyph unicode="&#xde;" horiz-adv-x="1286" d="M49 78q0 39 25.5 64.5t70.5 25.5h41q58 0 58 436q0 438 -58 438h-41q-43 0 -69.5 24.5t-26.5 59.5q0 37 24 63.5t72 29.5q30 1 85.5 4.5t101 5.5t86.5 2q14 0 47 1t53 1q50 0 88 -3.5t76 -13t59 -31t21 -52.5q0 -36 -23.5 -62.5t-66.5 -26.5q-6 0 -19.5 1.5t-19.5 1.5 q-14 0 -23.5 -9t-11.5 -22q132 4 197 4q113 0 213.5 -48.5t164.5 -141t64 -207.5q0 -118 -74.5 -218t-188.5 -154t-237 -54q-108 0 -108 73q0 56 43 76q72 32 105.5 101t33.5 155q0 25 -6.5 61.5t-19.5 76t-37 67t-54 27.5q-33 0 -56.5 -37t-34 -90.5t-15 -93.5t-4.5 -66 q0 -68 0.5 -106t3 -89.5t8 -79t14.5 -55.5t23.5 -39.5t34.5 -11.5q41 0 66 -24t28 -58q0 -34 -19.5 -57t-56.5 -33.5t-74.5 -14.5t-87.5 -4q-42 0 -379 15q-45 3 -70.5 28.5t-25.5 59.5z" />
<glyph unicode="&#xdf;" horiz-adv-x="1150" d="M49 92q0 37 24.5 62.5t61.5 25.5q16 0 41.5 -9t36.5 -11v837q0 75 36 138.5t93.5 104.5t128 64t141.5 23t141.5 -23t128.5 -64t94 -105.5t36 -139.5q0 -175 -176 -270q117 -52 191.5 -150.5t74.5 -220.5q0 -94 -43.5 -170t-114 -122.5t-155.5 -71.5t-173 -25 q-33 0 -54 20t-21 52q0 31 21.5 50t53.5 19q109 0 166.5 41.5t57.5 147.5q0 115 -74.5 206.5t-183.5 116.5q-27 6 -42.5 25.5t-15.5 46.5q0 24 15 42.5t30 26.5t46.5 20t39.5 16q49 22 74 77.5t25 114.5q0 72 -39 130.5t-107 58.5q-47 0 -78 -31.5t-42 -71.5t-11 -86v-903 q0 -39 -38.5 -64t-83 -32.5t-93.5 -7.5q-32 0 -64.5 4.5t-68 15.5t-58 35t-22.5 57z" />
<glyph unicode="&#xe0;" horiz-adv-x="1089" d="M49 184q0 69 25 130.5t68 107t99 82.5t121.5 62t130.5 40t130 21v69q0 156 -54 156q-19 0 -37 -19t-18 -53q0 -57 -34.5 -102t-88.5 -45q-60 0 -92.5 45.5t-32.5 105.5q0 71 50 123.5t123.5 76.5t156.5 24q322 0 322 -326v-496q0 -25 19 -37.5t42 -15t42 -15.5t19 -38 q0 -61 -65.5 -98t-149.5 -37q-74 0 -123.5 33t-68.5 96q-66 -53 -154 -88t-172 -35q-114 0 -186 69t-72 164zM319 1298q0 59 43 98.5t97 39.5q36 0 76 -27t66.5 -57.5t67 -83t58.5 -72.5q16 -19 16 -51q0 -38 -26 -65t-62 -27q-21 0 -34 8q-21 10 -72.5 32t-83.5 38.5 t-70 41.5t-57 56.5t-19 68.5zM397 250q0 -42 24 -71t56 -29q51 0 98.5 58t47.5 128v145q-74 -6 -150 -80t-76 -151z" />
<glyph unicode="&#xe1;" horiz-adv-x="1089" d="M49 184q0 69 25 130.5t68 107t99 82.5t121.5 62t130.5 40t130 21v69q0 156 -54 156q-19 0 -37 -19t-18 -53q0 -57 -34.5 -102t-88.5 -45q-60 0 -92.5 45.5t-32.5 105.5q0 71 50 123.5t123.5 76.5t156.5 24q322 0 322 -326v-496q0 -25 19 -37.5t42 -15t42 -15.5t19 -38 q0 -61 -65.5 -98t-149.5 -37q-74 0 -123.5 33t-68.5 96q-66 -53 -154 -88t-172 -35q-114 0 -186 69t-72 164zM397 250q0 -42 24 -71t56 -29q51 0 98.5 58t47.5 128v145q-74 -6 -150 -80t-76 -151zM401 1128q0 30 19 52q18 20 59 72t67 82.5t66 57.5t76 27q67 0 111 -53 q28 -39 28 -84q0 -37 -19 -68.5t-57 -57t-69.5 -42t-83 -38.5t-72.5 -32q-16 -8 -34 -8q-36 0 -63.5 27t-27.5 65z" />
<glyph unicode="&#xe2;" horiz-adv-x="1089" d="M49 184q0 69 25 130.5t68 107t99 82.5t121.5 62t130.5 40t130 21v69q0 156 -54 156q-19 0 -37 -19t-18 -53q0 -57 -34.5 -102t-88.5 -45q-60 0 -92.5 45.5t-32.5 105.5q0 71 50 123.5t123.5 76.5t156.5 24q322 0 322 -326v-496q0 -25 19 -37.5t42 -15t42 -15.5t19 -38 q0 -61 -65.5 -98t-149.5 -37q-74 0 -123.5 33t-68.5 96q-66 -53 -154 -88t-172 -35q-114 0 -186 69t-72 164zM303 1094q0 28 25 53l217 196q18 15 47 15t47 -15l217 -196q23 -23 23 -53q0 -22 -13 -41q-26 -33 -61 -33q-18 0 -31 8l-182 96l-182 -96q-13 -8 -33 -8 q-29 0 -51.5 22.5t-22.5 51.5zM397 250q0 -42 24 -71t56 -29q51 0 98.5 58t47.5 128v145q-74 -6 -150 -80t-76 -151z" />
<glyph unicode="&#xe3;" horiz-adv-x="1089" d="M49 184q0 69 25 130.5t68 107t99 82.5t121.5 62t130.5 40t130 21v69q0 156 -54 156q-19 0 -37 -19t-18 -53q0 -57 -34.5 -102t-88.5 -45q-60 0 -92.5 45.5t-32.5 105.5q0 71 50 123.5t123.5 76.5t156.5 24q322 0 322 -326v-496q0 -25 19 -37.5t42 -15t42 -15.5t19 -38 q0 -61 -65.5 -98t-149.5 -37q-74 0 -123.5 33t-68.5 96q-66 -53 -154 -88t-172 -35q-114 0 -186 69t-72 164zM297 1102q0 75 54 139t130 64q25 0 43 -5l174 -40q18 75 74 75q28 0 49 -18.5t21 -50.5q0 -79 -52.5 -142t-134.5 -63q-27 0 -39 4l-176 41q-16 -76 -73 -76 q-28 0 -49 20t-21 52zM397 250q0 -42 24 -71t56 -29q51 0 98.5 58t47.5 128v145q-74 -6 -150 -80t-76 -151z" />
<glyph unicode="&#xe4;" horiz-adv-x="1089" d="M49 184q0 69 25 130.5t68 107t99 82.5t121.5 62t130.5 40t130 21v69q0 156 -54 156q-19 0 -37 -19t-18 -53q0 -57 -34.5 -102t-88.5 -45q-60 0 -92.5 45.5t-32.5 105.5q0 71 50 123.5t123.5 76.5t156.5 24q322 0 322 -326v-496q0 -25 19 -37.5t42 -15t42 -15.5t19 -38 q0 -61 -65.5 -98t-149.5 -37q-74 0 -123.5 33t-68.5 96q-66 -53 -154 -88t-172 -35q-114 0 -186 69t-72 164zM395 1139q0 35 25.5 60.5t60.5 25.5t60.5 -25.5t25.5 -60.5q0 -37 -25.5 -62.5t-60.5 -25.5t-60.5 25.5t-25.5 62.5zM397 250q0 -42 24 -71t56 -29q51 0 98.5 58 t47.5 128v145q-74 -6 -150 -80t-76 -151zM596 1139q0 35 25.5 60.5t60.5 25.5t60.5 -25.5t25.5 -60.5q0 -37 -25.5 -62.5t-60.5 -25.5t-60.5 25.5t-25.5 62.5z" />
<glyph unicode="&#xe5;" horiz-adv-x="1089" d="M49 184q0 69 25 130.5t68 107t99 82.5t121.5 62t130.5 40t130 21v69q0 156 -54 156q-19 0 -37 -19t-18 -53q0 -57 -34.5 -102t-88.5 -45q-60 0 -92.5 45.5t-32.5 105.5q0 71 50 123.5t123.5 76.5t156.5 24q322 0 322 -326v-496q0 -25 19 -37.5t42 -15t42 -15.5t19 -38 q0 -61 -65.5 -98t-149.5 -37q-74 0 -123.5 33t-68.5 96q-66 -53 -154 -88t-172 -35q-114 0 -186 69t-72 164zM397 250q0 -42 24 -71t56 -29q51 0 98.5 58t47.5 128v145q-74 -6 -150 -80t-76 -151zM430 1149q0 72 51 123t123 51q71 0 122.5 -51t51.5 -123t-51 -123t-123 -51 t-123 51t-51 123zM537 1149q0 -28 19.5 -48t47.5 -20t48 20t20 48t-20 48t-48 20q-29 0 -48 -20t-19 -48z" />
<glyph unicode="&#xe6;" horiz-adv-x="1697" d="M49 184q0 69 25 130.5t68 107t99 82.5t121.5 62t130.5 40t130 21v69q0 156 -54 156q-19 0 -37 -19t-18 -53q0 -57 -34.5 -102t-88.5 -45q-60 0 -92.5 45.5t-32.5 105.5q0 71 50 123.5t123.5 76.5t156.5 24q242 0 301 -185q140 121 320 121q90 0 179 -45t149.5 -128 t60.5 -179q0 -24 -17 -45.5t-39 -26.5q-105 -22 -297 -60t-252 -50q39 -63 107 -99.5t143 -36.5q65 0 121 23t87 50t63 50t55 23q28 0 50 -20.5t22 -51.5q0 -101 -66 -191.5t-168.5 -143t-208.5 -52.5q-133 0 -246 67.5t-176 182.5q-98 -142 -206 -201t-271 -59 q-114 0 -186 69t-72 164zM397 250q0 -42 24 -71t56 -29q51 0 98.5 58t47.5 128v145q-74 -6 -150 -80t-76 -151zM956 573q0 -18 2 -28l396 80q-22 78 -77 119.5t-122 41.5q-81 0 -140 -57t-59 -156z" />
<glyph unicode="&#xe7;" horiz-adv-x="1021" d="M49 451q0 98 39.5 191t108 163.5t166.5 113t208 42.5q267 0 375 -187q27 -52 27 -100q0 -59 -40.5 -104.5t-109.5 -45.5q-67 0 -113.5 47t-64.5 121q-7 40 -39.5 61t-75.5 21q-85 0 -136.5 -75t-51.5 -191q0 -124 78.5 -229t189.5 -105q64 0 123 37q20 12 49 38.5t52 43 t45 16.5q34 0 64 -29t30 -65q0 -25 -23 -55q-76 -104 -183 -157.5t-224 -53.5q-94 0 -182.5 35t-158 97.5t-111.5 159t-42 210.5zM213 -352q0 29 19 49t51 20q5 0 15 -1t17 -1q82 0 82 39q0 11 -13.5 20t-30.5 15.5t-30.5 23t-13.5 40.5q0 23 15 41l129 178h176l-111 -156 q44 -20 74.5 -64t30.5 -96q-4 -49 -35 -86.5t-78.5 -57t-97 -29t-99.5 -9.5q-100 0 -100 74z" />
<glyph unicode="&#xe8;" horiz-adv-x="1024" d="M49 455q0 100 41 191t109 156t158.5 103.5t185.5 38.5q90 0 179 -45t149.5 -128t60.5 -179q0 -25 -16.5 -46t-38.5 -26q-105 -22 -297 -60t-252 -50q39 -63 107 -99.5t143 -36.5q65 0 120.5 23t86.5 50t63 50t55 23q28 0 50 -20.5t22 -51.5q0 -101 -66 -191.5 t-168.5 -143t-208.5 -52.5q-128 0 -239.5 65.5t-177.5 179.5t-66 249zM283 573q0 -18 2 -28l395 80q-22 78 -77 119.5t-122 41.5q-80 0 -139 -57t-59 -156zM299 1253q0 59 42.5 98.5t96.5 39.5q30 0 59.5 -15.5t58.5 -44.5t51.5 -56.5t52.5 -65.5t47 -58q16 -19 16 -51 q0 -38 -26 -65t-62 -27q-22 0 -35 8q-21 10 -72.5 32t-83.5 38.5t-69.5 41.5t-56.5 56.5t-19 68.5z" />
<glyph unicode="&#xe9;" horiz-adv-x="1024" d="M49 455q0 100 41 191t109 156t158.5 103.5t185.5 38.5q90 0 179 -45t149.5 -128t60.5 -179q0 -25 -16.5 -46t-38.5 -26q-105 -22 -297 -60t-252 -50q39 -63 107 -99.5t143 -36.5q65 0 120.5 23t86.5 50t63 50t55 23q28 0 50 -20.5t22 -51.5q0 -101 -66 -191.5 t-168.5 -143t-208.5 -52.5q-128 0 -239.5 65.5t-177.5 179.5t-66 249zM283 573q0 -18 2 -28l395 80q-22 78 -77 119.5t-122 41.5q-80 0 -139 -57t-59 -156zM299 1104q0 30 18 51q17 20 47 58t52.5 65.5t51.5 56.5t58.5 44.5t59.5 15.5q65 0 110 -54q29 -40 29 -84 q0 -37 -19 -68.5t-56.5 -56.5t-69.5 -41.5t-83.5 -38.5t-72.5 -32q-16 -8 -35 -8q-36 0 -63 27t-27 65z" />
<glyph unicode="&#xea;" horiz-adv-x="1024" d="M49 455q0 100 41 191t109 156t158.5 103.5t185.5 38.5q90 0 179 -45t149.5 -128t60.5 -179q0 -25 -16.5 -46t-38.5 -26q-105 -22 -297 -60t-252 -50q39 -63 107 -99.5t143 -36.5q65 0 120.5 23t86.5 50t63 50t55 23q28 0 50 -20.5t22 -51.5q0 -101 -66 -191.5 t-168.5 -143t-208.5 -52.5q-128 0 -239.5 65.5t-177.5 179.5t-66 249zM223 1085q0 29 25 54l217 196q18 15 47 15t47 -15l217 -196q23 -23 23 -54q0 -21 -13 -41q-25 -32 -61 -32q-18 0 -31 8l-182 96l-182 -96q-13 -8 -33 -8q-29 0 -51.5 22t-22.5 51zM283 573q0 -18 2 -28 l395 80q-22 78 -77 119.5t-122 41.5q-80 0 -139 -57t-59 -156z" />
<glyph unicode="&#xeb;" horiz-adv-x="1024" d="M49 455q0 100 41 191t109 156t158.5 103.5t185.5 38.5q90 0 179 -45t149.5 -128t60.5 -179q0 -25 -16.5 -46t-38.5 -26q-105 -22 -297 -60t-252 -50q39 -63 107 -99.5t143 -36.5q65 0 120.5 23t86.5 50t63 50t55 23q28 0 50 -20.5t22 -51.5q0 -101 -66 -191.5 t-168.5 -143t-208.5 -52.5q-128 0 -239.5 65.5t-177.5 179.5t-66 249zM283 573q0 -18 2 -28l395 80q-22 78 -77 119.5t-122 41.5q-80 0 -139 -57t-59 -156zM326 1100q0 35 25.5 60.5t60.5 25.5t60.5 -25.5t25.5 -60.5q0 -37 -25.5 -62.5t-60.5 -25.5t-60.5 25.5t-25.5 62.5z M526 1100q0 35 25.5 60.5t60.5 25.5t60.5 -25.5t25.5 -60.5q0 -37 -25.5 -62.5t-60.5 -25.5t-60.5 25.5t-25.5 62.5z" />
<glyph unicode="&#xec;" horiz-adv-x="661" d="M49 780q0 28 14.5 51.5t40.5 32.5l269 92q10 5 28 5q34 0 61 -26.5t27 -62.5v-675q18 6 35 6q34 0 61 -27t27 -63q0 -43 -46 -74.5t-107 -45t-123 -13.5q-63 0 -124.5 14t-108 46t-46.5 75q0 34 26.5 61t61.5 27q20 0 43 -10v456q0 43 -55 43q-36 0 -60 26t-24 62z M119 1253q0 59 42.5 98.5t96.5 39.5q36 0 76 -27t66.5 -57.5t67 -83t58.5 -72.5q17 -20 17 -51q0 -38 -26 -65t-62 -27q-22 0 -35 8q-21 10 -72.5 32t-83.5 38.5t-69.5 41.5t-56.5 56.5t-19 68.5z" />
<glyph unicode="&#xed;" horiz-adv-x="661" d="M49 780q0 28 14.5 51.5t40.5 32.5l269 92q10 5 28 5q34 0 61 -26.5t27 -62.5v-675q18 6 35 6q34 0 61 -27t27 -63q0 -43 -46 -74.5t-107 -45t-123 -13.5q-63 0 -124.5 14t-108 46t-46.5 75q0 34 26.5 61t61.5 27q20 0 43 -10v456q0 43 -55 43q-36 0 -60 26t-24 62z M117 1104q0 30 18 51q18 20 58.5 72.5t67 83t66.5 57.5t76 27q66 0 111 -54q29 -40 29 -84q0 -37 -19 -68.5t-56.5 -56.5t-69.5 -41.5t-83.5 -38.5t-72.5 -32q-16 -8 -35 -8q-36 0 -63 27t-27 65z" />
<glyph unicode="&#xee;" horiz-adv-x="661" d="M43 1085q0 29 25 54l217 196q18 15 47 15t47 -15l217 -196q22 -22 22 -54q0 -23 -12 -41q-25 -32 -61 -32q-18 0 -31 8l-182 96l-182 -96q-13 -8 -33 -8q-29 0 -51.5 22t-22.5 51zM49 780q0 28 14.5 51.5t40.5 32.5l269 92q10 5 28 5q34 0 61 -26.5t27 -62.5v-675 q18 6 35 6q34 0 61 -27t27 -63q0 -43 -46 -74.5t-107 -45t-123 -13.5q-63 0 -124.5 14t-108 46t-46.5 75q0 34 26.5 61t61.5 27q20 0 43 -10v456q0 43 -55 43q-36 0 -60 26t-24 62z" />
<glyph unicode="&#xef;" horiz-adv-x="661" d="M49 780q0 28 14.5 51.5t40.5 32.5l269 92q10 5 28 5q34 0 61 -26.5t27 -62.5v-675q18 6 35 6q34 0 61 -27t27 -63q0 -43 -46 -74.5t-107 -45t-123 -13.5q-63 0 -124.5 14t-108 46t-46.5 75q0 34 26.5 61t61.5 27q20 0 43 -10v456q0 43 -55 43q-36 0 -60 26t-24 62z M143 1100q0 35 25.5 60.5t60.5 25.5t60.5 -25.5t25.5 -60.5q0 -37 -25.5 -62.5t-60.5 -25.5t-60.5 25.5t-25.5 62.5zM344 1100q0 35 25.5 60.5t60.5 25.5t60.5 -25.5t25.5 -60.5q0 -37 -25.5 -62.5t-60.5 -25.5t-60.5 25.5t-25.5 62.5z" />
<glyph unicode="&#xf0;" horiz-adv-x="1054" d="M49 434q0 175 114.5 294.5t291.5 119.5q108 0 202 -51q-31 94 -96 196l-262 -47v160l156 29q-1 1 -41 47q-37 40 -37 78q0 36 25.5 59.5t60.5 23.5q62 0 227 -165l258 47v-160l-137 -25q195 -263 195 -553q0 -102 -32.5 -194.5t-90.5 -163.5t-147 -113.5t-195 -42.5 q-94 0 -183 35.5t-157.5 95.5t-110 147t-41.5 183zM356 369q0 -49 12.5 -92.5t44.5 -76t79 -32.5q58 0 102.5 46.5t64 104.5t19.5 111q0 49 -12 92.5t-44.5 76t-80.5 32.5q-46 0 -83.5 -31t-58.5 -75.5t-32 -86t-11 -69.5z" />
<glyph unicode="&#xf1;" horiz-adv-x="1234" d="M49 782q0 27 15.5 50t41.5 32l269 92q20 5 26 5q32 0 59.5 -21.5t31.5 -52.5q100 74 210 74q152 0 253.5 -105.5t101.5 -257.5v-403q19 8 41 8q34 0 61 -26t27 -62q0 -43 -46 -75t-107.5 -46t-125.5 -14q-62 0 -123 13.5t-107 45t-46 74.5q0 36 25.5 63t60.5 27 q20 0 39 -8v380q0 62 -31.5 101t-93.5 39q-48 0 -92.5 -37t-44.5 -82v-401q16 8 38 8q36 0 62.5 -27t26.5 -61q0 -43 -46 -75t-107.5 -46t-125.5 -14q-101 0 -188.5 36t-87.5 99q0 34 25.5 61t60.5 27q22 0 41 -8v467q0 12 -7.5 21t-23.5 9h-27q-37 0 -61.5 27.5t-24.5 62.5 zM344 1083q0 75 54 139t130 64q29 0 43 -4l174 -41q19 76 74 76q28 0 49 -19t21 -51q0 -79 -52.5 -142t-134.5 -63q-23 0 -38 5l-177 40q-16 -75 -73 -75q-28 0 -49 19.5t-21 51.5z" />
<glyph unicode="&#xf2;" horiz-adv-x="1101" d="M49 465q0 138 66 256t182 188t254 70t254 -70t182 -188t66 -256q0 -102 -39.5 -196t-106 -163.5t-160 -111t-196.5 -41.5t-196.5 41.5t-160 111t-106 163.5t-39.5 196zM338 1253q0 59 42.5 98.5t96.5 39.5q36 0 76 -27t66.5 -57.5t67 -83t58.5 -72.5q17 -20 17 -51 q0 -38 -26 -65t-62 -27q-22 0 -35 8q-21 10 -72.5 32t-83.5 38.5t-69.5 41.5t-56.5 56.5t-19 68.5zM365 571q0 -91 30 -185t87.5 -160t125.5 -66q64 0 96.5 55.5t32.5 144.5q0 91 -30 185t-88 160.5t-127 66.5q-64 0 -95.5 -56t-31.5 -145z" />
<glyph unicode="&#xf3;" horiz-adv-x="1101" d="M49 465q0 138 66 256t182 188t254 70t254 -70t182 -188t66 -256q0 -102 -39.5 -196t-106 -163.5t-160 -111t-196.5 -41.5t-196.5 41.5t-160 111t-106 163.5t-39.5 196zM338 1104q0 30 18 51q17 20 47 58t52.5 65.5t51.5 56.5t58.5 44.5t59.5 15.5q65 0 110 -54 q29 -40 29 -84q0 -37 -19 -68.5t-56.5 -56.5t-69.5 -41.5t-83.5 -38.5t-72.5 -32q-16 -8 -35 -8q-36 0 -63 27t-27 65zM365 571q0 -91 30 -185t87.5 -160t125.5 -66q64 0 96.5 55.5t32.5 144.5q0 91 -30 185t-88 160.5t-127 66.5q-64 0 -95.5 -56t-31.5 -145z" />
<glyph unicode="&#xf4;" horiz-adv-x="1101" d="M49 465q0 138 66 256t182 188t254 70t254 -70t182 -188t66 -256q0 -102 -39.5 -196t-106 -163.5t-160 -111t-196.5 -41.5t-196.5 41.5t-160 111t-106 163.5t-39.5 196zM262 1085q0 29 25 54l217 196q18 15 47 15t47 -15l217 -196q23 -23 23 -54q0 -21 -13 -41 q-25 -32 -61 -32q-18 0 -31 8l-182 96l-182 -96q-13 -8 -33 -8q-29 0 -51.5 22t-22.5 51zM365 571q0 -91 30 -185t87.5 -160t125.5 -66q64 0 96.5 55.5t32.5 144.5q0 91 -30 185t-88 160.5t-127 66.5q-64 0 -95.5 -56t-31.5 -145z" />
<glyph unicode="&#xf5;" horiz-adv-x="1101" d="M49 465q0 138 66 256t182 188t254 70t254 -70t182 -188t66 -256q0 -102 -39.5 -196t-106 -163.5t-160 -111t-196.5 -41.5t-196.5 41.5t-160 111t-106 163.5t-39.5 196zM279 1083q0 75 54 139t130 64q29 0 43 -4l174 -41q19 76 74 76q28 0 48.5 -19t20.5 -51 q0 -79 -52 -142t-134 -63q-24 0 -39 5l-176 40q-16 -75 -74 -75q-28 0 -48.5 19.5t-20.5 51.5zM365 571q0 -91 30 -185t87.5 -160t125.5 -66q64 0 96.5 55.5t32.5 144.5q0 91 -30 185t-88 160.5t-127 66.5q-64 0 -95.5 -56t-31.5 -145z" />
<glyph unicode="&#xf6;" horiz-adv-x="1101" d="M49 465q0 138 66 256t182 188t254 70t254 -70t182 -188t66 -256q0 -102 -39.5 -196t-106 -163.5t-160 -111t-196.5 -41.5t-196.5 41.5t-160 111t-106 163.5t-39.5 196zM365 571q0 -91 30 -185t87.5 -160t125.5 -66q64 0 96.5 55.5t32.5 144.5q0 91 -30 185t-88 160.5 t-127 66.5q-64 0 -95.5 -56t-31.5 -145zM365 1100q0 35 25.5 60.5t60.5 25.5t60.5 -25.5t25.5 -60.5q0 -37 -25.5 -62.5t-60.5 -25.5t-60.5 25.5t-25.5 62.5zM565 1100q0 35 25.5 60.5t60.5 25.5t60.5 -25.5t25.5 -60.5q0 -37 -25.5 -62.5t-60.5 -25.5t-60.5 25.5 t-25.5 62.5z" />
<glyph unicode="&#xf7;" horiz-adv-x="1069" d="M49 416v241h971v-241h-971zM383 178q0 71 51 121.5t123 50.5q71 0 121.5 -51t50.5 -121q0 -72 -50.5 -123t-121.5 -51q-72 0 -123 51t-51 123zM383 883q0 71 51 121.5t123 50.5q71 0 121.5 -50.5t50.5 -121.5q0 -72 -50.5 -123t-121.5 -51q-72 0 -123 51t-51 123z" />
<glyph unicode="&#xf8;" horiz-adv-x="1101" d="M41 0l121 141q-113 138 -113 324q0 138 66 256t182 188t254 70q147 0 266 -80l55 64h189l-135 -158q127 -147 127 -340q0 -102 -39.5 -196t-106 -163.5t-160 -111t-196.5 -41.5q-153 0 -287 90l-37 -43h-186zM365 571q0 -85 24 -168l246 283q-66 86 -143 86 q-64 0 -95.5 -56t-31.5 -145zM455 262q69 -102 153 -102q64 0 96.5 55.5t32.5 144.5q0 90 -32 191z" />
<glyph unicode="&#xf9;" horiz-adv-x="1234" d="M49 825q0 43 46 75.5t107.5 46.5t125.5 14q91 0 121 -25t30 -78v-493q0 -62 31.5 -101t93.5 -39q48 0 92.5 37t44.5 82v401q-16 -8 -39 -8q-36 0 -62 27t-26 61q0 43 46 75.5t107.5 46.5t125.5 14q53 0 83.5 -5.5t44.5 -21t17.5 -31.5t3.5 -49v-575q0 -12 7.5 -21.5 t23.5 -9.5h27q37 0 61.5 -27.5t24.5 -62.5q0 -27 -16 -50t-42 -32l-268 -92q-16 -4 -26 -4q-33 0 -60 21.5t-31 51.5q-99 -73 -211 -73q-152 0 -253 105t-101 257v403q-19 -8 -41 -8q-34 0 -61 26t-27 62zM406 1253q0 59 42.5 98.5t96.5 39.5q36 0 76 -27t66.5 -57.5t67 -83 t58.5 -72.5q16 -19 16 -51q0 -38 -26 -65t-62 -27q-21 0 -34 8q-21 10 -72.5 32t-83.5 38.5t-69.5 41.5t-56.5 56.5t-19 68.5z" />
<glyph unicode="&#xfa;" horiz-adv-x="1234" d="M49 825q0 43 46 75.5t107.5 46.5t125.5 14q91 0 121 -25t30 -78v-493q0 -62 31.5 -101t93.5 -39q48 0 92.5 37t44.5 82v401q-16 -8 -39 -8q-36 0 -62 27t-26 61q0 43 46 75.5t107.5 46.5t125.5 14q53 0 83.5 -5.5t44.5 -21t17.5 -31.5t3.5 -49v-575q0 -12 7.5 -21.5 t23.5 -9.5h27q37 0 61.5 -27.5t24.5 -62.5q0 -27 -16 -50t-42 -32l-268 -92q-16 -4 -26 -4q-33 0 -60 21.5t-31 51.5q-99 -73 -211 -73q-152 0 -253 105t-101 257v403q-19 -8 -41 -8q-34 0 -61 26t-27 62zM403 1104q0 29 19 51q18 20 58.5 72.5t67 83t66.5 57.5t76 27 q66 0 111 -54q28 -39 28 -84q0 -37 -19 -68.5t-56.5 -56.5t-69.5 -41.5t-83.5 -38.5t-72.5 -32q-16 -8 -34 -8q-36 0 -63.5 27t-27.5 65z" />
<glyph unicode="&#xfb;" horiz-adv-x="1234" d="M49 825q0 43 46 75.5t107.5 46.5t125.5 14q91 0 121 -25t30 -78v-493q0 -62 31.5 -101t93.5 -39q48 0 92.5 37t44.5 82v401q-16 -8 -39 -8q-36 0 -62 27t-26 61q0 43 46 75.5t107.5 46.5t125.5 14q53 0 83.5 -5.5t44.5 -21t17.5 -31.5t3.5 -49v-575q0 -12 7.5 -21.5 t23.5 -9.5h27q37 0 61.5 -27.5t24.5 -62.5q0 -27 -16 -50t-42 -32l-268 -92q-16 -4 -26 -4q-33 0 -60 21.5t-31 51.5q-99 -73 -211 -73q-152 0 -253 105t-101 257v403q-19 -8 -41 -8q-34 0 -61 26t-27 62zM330 1085q0 30 24 54l217 196q18 15 47 15q30 0 48 -15l217 -196 q22 -22 22 -54q0 -23 -12 -41q-25 -32 -62 -32q-17 0 -30 8l-183 96l-182 -96q-13 -8 -33 -8q-29 0 -51 22t-22 51z" />
<glyph unicode="&#xfc;" horiz-adv-x="1234" d="M49 825q0 43 46 75.5t107.5 46.5t125.5 14q91 0 121 -25t30 -78v-493q0 -62 31.5 -101t93.5 -39q48 0 92.5 37t44.5 82v401q-16 -8 -39 -8q-36 0 -62 27t-26 61q0 43 46 75.5t107.5 46.5t125.5 14q53 0 83.5 -5.5t44.5 -21t17.5 -31.5t3.5 -49v-575q0 -12 7.5 -21.5 t23.5 -9.5h27q37 0 61.5 -27.5t24.5 -62.5q0 -27 -16 -50t-42 -32l-268 -92q-16 -4 -26 -4q-33 0 -60 21.5t-31 51.5q-99 -73 -211 -73q-152 0 -253 105t-101 257v403q-19 -8 -41 -8q-34 0 -61 26t-27 62zM430 1100q0 35 25.5 60.5t60.5 25.5t60.5 -25.5t25.5 -60.5 q0 -37 -25.5 -62.5t-60.5 -25.5t-60.5 25.5t-25.5 62.5zM631 1100q0 35 25.5 60.5t60.5 25.5t60.5 -25.5t25.5 -60.5q0 -37 -25.5 -62.5t-60.5 -25.5t-60.5 25.5t-25.5 62.5z" />
<glyph unicode="&#xfd;" horiz-adv-x="1204" d="M49 831q0 34 25 60.5t66.5 41.5t87.5 22.5t94 7.5q66 0 125 -12t103 -42.5t44 -74.5q0 -38 -24 -68.5t-60 -36.5l166 -334l141 353q-13 -13 -53 -13q-42 0 -72 30.5t-30 70.5q0 63 72 95t175 32q102 0 174 -31.5t72 -91.5q0 -41 -29 -71t-71 -30q-8 0 -28 5.5t-28 5.5 l-311 -777q-60 -146 -153.5 -240.5t-219.5 -94.5q-53 0 -103.5 21.5t-87 70t-36.5 114.5q0 68 46.5 119t113.5 51q64 0 109.5 -48t48.5 -113q3 -3 6 -3q30 0 62 60t32 106q0 61 -23 109l-295 610q-19 -8 -41 -8q-41 0 -69.5 32t-28.5 72zM389 1104q0 29 19 51 q18 20 58.5 72.5t67 83t66.5 57.5t76 27q65 0 110 -54q29 -40 29 -84q0 -37 -19 -68.5t-56.5 -56.5t-69.5 -41.5t-83.5 -38.5t-72.5 -32q-16 -8 -35 -8q-36 0 -63 27t-27 65z" />
<glyph unicode="&#xfe;" horiz-adv-x="1155" d="M49 -262q0 34 24.5 61t63.5 27q17 0 25 -2v1263q0 22 -7.5 28.5t-39.5 6.5q-30 0 -45 23t-15 53q0 57 45 66q248 45 256 45q28 0 49 -21t21 -49v-387q105 57 221 57q130 0 236 -67.5t164.5 -178.5t58.5 -239q-3 -206 -134 -344.5t-335 -138.5q-119 0 -211 47v-164 q8 2 25 2q38 0 62 -27t24 -61q0 -32 -21.5 -55t-58.5 -35t-78 -17.5t-88 -5.5q-63 0 -114.5 9.5t-89.5 36t-38 67.5zM426 303q32 -86 87 -144.5t128 -58.5q79 0 132.5 77.5t53.5 195.5q0 49 -15.5 107t-44 113.5t-77 92.5t-106.5 37q-105 0 -158 -131v-289z" />
<glyph unicode="&#xff;" horiz-adv-x="1204" d="M49 831q0 34 25 60.5t66.5 41.5t87.5 22.5t94 7.5q66 0 125 -12t103 -42.5t44 -74.5q0 -38 -24 -68.5t-60 -36.5l166 -334l141 353q-13 -13 -53 -13q-42 0 -72 30.5t-30 70.5q0 63 72 95t175 32q102 0 174 -31.5t72 -91.5q0 -41 -29 -71t-71 -30q-8 0 -28 5.5t-28 5.5 l-311 -777q-60 -146 -153.5 -240.5t-219.5 -94.5q-53 0 -103.5 21.5t-87 70t-36.5 114.5q0 68 46.5 119t113.5 51q64 0 109.5 -48t48.5 -113q3 -3 6 -3q30 0 62 60t32 106q0 61 -23 109l-295 610q-19 -8 -41 -8q-41 0 -69.5 32t-28.5 72zM453 1067q0 35 25.5 60.5t60.5 25.5 t60.5 -25.5t25.5 -60.5q0 -37 -25.5 -62.5t-60.5 -25.5t-60.5 25.5t-25.5 62.5zM653 1067q0 35 25.5 60.5t60.5 25.5t60.5 -25.5t25.5 -60.5q0 -37 -25.5 -62.5t-60.5 -25.5t-60.5 25.5t-25.5 62.5z" />
<glyph unicode="&#x152;" horiz-adv-x="1986" d="M49 578q0 128 53 248.5t144 212t223.5 147t282.5 55.5q62 0 174 -16q68 0 206.5 -5.5t208.5 -5.5q73 0 213.5 12.5t204.5 12.5q27 0 46 -13.5t28.5 -31.5t14.5 -46.5t6 -46.5t1 -44q0 -33 -8 -123q-2 -20 -4 -29t-10 -22.5t-25.5 -19t-46.5 -5.5q-53 0 -69.5 22t-16.5 66 v45q0 30 -25.5 41.5t-74.5 11.5q-215 0 -215 -53v-301h115q-1 9 -5 37.5t-4 42.5q0 40 26 63t60 23q32 0 52.5 -20t29 -61t11 -77t2.5 -94q0 -46 -1 -77t-6.5 -70t-15.5 -62t-28.5 -39t-45.5 -16q-36 0 -61 23.5t-25 64.5q0 10 4 41.5t5 50.5h-113v-295q0 -49 174 -49h59 q72 0 123 53.5t51 137.5q0 34 16 52.5t68 18.5t69 -21.5t17 -70.5q0 -375 -127 -375q-68 0 -201 15.5t-198 15.5q-71 0 -215.5 -4t-218.5 -4q-118 -47 -256 -47q-133 0 -256.5 49t-215 132t-146 201t-54.5 249zM438 670q0 -41 10 -98.5t35 -128t61 -130t95 -99.5t129 -40 t122.5 35t81 93t41.5 121t13 130q0 52 -13 115t-40.5 129.5t-65.5 121t-93 89t-118 34.5q-70 0 -122.5 -34t-81 -90.5t-41.5 -118.5t-13 -129z" />
<glyph unicode="&#x153;" horiz-adv-x="1669" d="M49 485q0 138 67 256t183 188t254 70q185 0 326 -125q142 107 319 107q111 0 206.5 -50.5t155.5 -149t60 -224.5q0 -39 -24 -70.5t-64 -31.5h-553q16 -106 88.5 -183t171.5 -77q42 0 85 21t72 46.5t60.5 46.5t52.5 21q37 0 66 -28.5t29 -65.5q0 -33 -23 -56 q-68 -98 -176 -156.5t-227 -58.5q-180 0 -318 119q-133 -111 -307 -111q-103 0 -197 41.5t-161 111t-106.5 163.5t-39.5 196zM356 573q0 -51 17.5 -116.5t48 -128t80 -105.5t106.5 -43q81 0 117 84q-45 102 -45 211q0 74 20 135q-40 77 -92.5 130t-111.5 53q-51 0 -84 -35 t-44.5 -81.5t-11.5 -103.5zM985 633h356q-14 68 -62 114t-114 46q-68 0 -114.5 -45.5t-65.5 -114.5z" />
<glyph unicode="&#x178;" d="M49 1145q0 31 18.5 51.5t53 29.5t67 12t78.5 3q100 0 239.5 -5t199.5 -5q44 0 68 -25.5t24 -60.5q0 -92 -105 -92q-16 0 -43.5 1t-32.5 1l199 -420l227 420q-7 0 -19.5 -1t-18.5 -1q-48 0 -73.5 24.5t-25.5 65.5q0 65 82.5 82.5t300.5 17.5q40 0 68 -3t58 -12.5 t45.5 -30.5t15.5 -54q-2 -37 -25.5 -62.5t-69.5 -25.5h-43q-26 0 -58.5 -22.5t-41.5 -45.5l-319 -616q2 -55 14 -152q3 -31 21 -40t57 -9q5 0 15 1t15 1q42 0 66 -26.5t24 -61.5t-22.5 -61t-63.5 -29q-146 -14 -311 -14q-194 0 -278 18.5t-84 81.5q0 36 23 63t63 27h71 q10 0 18 8t13 24t8.5 33t6 41.5t3.5 42.5t2.5 43.5t2.5 38.5l-314 586q-8 25 -32.5 46.5t-49.5 21.5q-6 0 -19.5 -1t-19.5 -1q-48 0 -73 24.5t-25 67.5zM637 1350q0 35 25.5 60.5t60.5 25.5t60.5 -25.5t25.5 -60.5q0 -37 -25.5 -62.5t-60.5 -25.5t-60.5 25.5t-25.5 62.5z M838 1350q0 35 25.5 60.5t60.5 25.5t60.5 -25.5t25.5 -60.5q0 -37 -25.5 -62.5t-60.5 -25.5t-60.5 25.5t-25.5 62.5z" />
<glyph unicode="&#x2c6;" horiz-adv-x="673" d="M49 1085q0 29 25 54l217 196q18 15 47 15t47 -15l217 -196q23 -23 23 -54q0 -21 -13 -41q-25 -32 -61 -32q-18 0 -31 8l-182 96l-182 -96q-13 -8 -33 -8q-29 0 -51.5 22t-22.5 51z" />
<glyph unicode="&#x2dc;" horiz-adv-x="643" d="M49 1083q0 75 54 139t130 64q29 0 43 -4l175 -41q19 76 73 76q28 0 49 -19t21 -51q0 -79 -52 -142t-134 -63q-24 0 -39 5l-176 40q-16 -75 -74 -75q-28 0 -49 19.5t-21 51.5z" />
<glyph unicode="&#x2000;" horiz-adv-x="825" />
<glyph unicode="&#x2001;" horiz-adv-x="1651" />
<glyph unicode="&#x2002;" horiz-adv-x="825" />
<glyph unicode="&#x2003;" horiz-adv-x="1651" />
<glyph unicode="&#x2004;" horiz-adv-x="550" />
<glyph unicode="&#x2005;" horiz-adv-x="412" />
<glyph unicode="&#x2006;" horiz-adv-x="275" />
<glyph unicode="&#x2007;" horiz-adv-x="275" />
<glyph unicode="&#x2008;" horiz-adv-x="206" />
<glyph unicode="&#x2009;" horiz-adv-x="330" />
<glyph unicode="&#x200a;" horiz-adv-x="91" />
<glyph unicode="&#x2010;" horiz-adv-x="669" d="M49 430q0 7 4 23l51 188q5 21 25 37t43 16h303l6 19q17 55 68 55q29 0 50.5 -20t21.5 -50q0 -8 -3 -20l-51 -189q-6 -20 -26.5 -36.5t-40.5 -16.5h-303l-7 -18q-20 -56 -69 -56q-27 0 -49.5 20t-22.5 48z" />
<glyph unicode="&#x2011;" horiz-adv-x="669" d="M49 430q0 7 4 23l51 188q5 21 25 37t43 16h303l6 19q17 55 68 55q29 0 50.5 -20t21.5 -50q0 -8 -3 -20l-51 -189q-6 -20 -26.5 -36.5t-40.5 -16.5h-303l-7 -18q-20 -56 -69 -56q-27 0 -49.5 20t-22.5 48z" />
<glyph unicode="&#x2012;" horiz-adv-x="669" d="M49 430q0 7 4 23l51 188q5 21 25 37t43 16h303l6 19q17 55 68 55q29 0 50.5 -20t21.5 -50q0 -8 -3 -20l-51 -189q-6 -20 -26.5 -36.5t-40.5 -16.5h-303l-7 -18q-20 -56 -69 -56q-27 0 -49.5 20t-22.5 48z" />
<glyph unicode="&#x2013;" horiz-adv-x="1079" d="M49 430q0 7 4 23l51 188q5 20 25.5 36.5t42.5 16.5h713q23 74 73 74q29 0 50.5 -20t21.5 -50q0 -12 -2 -20l-51 -189q-6 -20 -27 -36.5t-41 -16.5h-712q-26 -74 -76 -74q-27 0 -49.5 20t-22.5 48z" />
<glyph unicode="&#x2014;" horiz-adv-x="2082" d="M49 430q0 7 4 23l51 188q5 20 25.5 36.5t42.5 16.5h1716q23 74 74 74q29 0 50.5 -20t21.5 -50q0 -12 -2 -20l-52 -189q-6 -20 -26.5 -36.5t-40.5 -16.5h-1716q-26 -74 -76 -74q-27 0 -49.5 20t-22.5 48z" />
<glyph unicode="&#x2018;" horiz-adv-x="440" d="M49 897q0 116 41.5 205t122.5 166q20 20 45 20q26 0 46 -19.5t20 -45.5q0 -23 -45.5 -69t-45.5 -69q0 -9 6.5 -17t16.5 -9q61 -13 98 -60.5t37 -109.5q0 -69 -48.5 -120.5t-121.5 -51.5q-71 0 -121.5 52t-50.5 128z" />
<glyph unicode="&#x2019;" horiz-adv-x="442" d="M49 1112q0 73 49.5 123.5t122.5 50.5q71 0 121.5 -52t50.5 -128q0 -116 -41.5 -205t-122.5 -166q-23 -20 -47 -20q-25 0 -44 18.5t-19 44.5q0 24 44 71t44 69q0 23 -21 26q-61 12 -99 59.5t-38 108.5z" />
<glyph unicode="&#x201a;" horiz-adv-x="442" d="M49 150q0 73 49.5 123.5t122.5 50.5q71 0 121.5 -52.5t50.5 -128.5q0 -116 -41 -204.5t-123 -165.5q-24 -21 -47 -21q-25 0 -44 19t-19 45q0 24 44 70.5t44 68.5q0 24 -21 27q-61 12 -99 59.5t-38 108.5z" />
<glyph unicode="&#x201c;" horiz-adv-x="808" d="M49 877q0 116 41 204.5t123 165.5q21 21 45 21q26 0 46 -20t20 -46q0 -22 -45.5 -68t-45.5 -69q0 -9 6.5 -17.5t16.5 -9.5q61 -13 98 -60.5t37 -109.5q0 -69 -48.5 -120.5t-121.5 -51.5q-71 0 -121.5 52.5t-50.5 128.5zM418 877q0 116 41 204.5t123 165.5q21 21 45 21 q26 0 45.5 -20t19.5 -46q0 -22 -45 -68t-45 -69q0 -9 6.5 -17.5t16.5 -9.5q61 -13 98 -60.5t37 -109.5q0 -69 -48.5 -120.5t-121.5 -51.5q-71 0 -121.5 52.5t-50.5 128.5z" />
<glyph unicode="&#x201d;" horiz-adv-x="811" d="M49 1092q0 73 49.5 123.5t122.5 50.5q71 0 121.5 -52.5t50.5 -128.5q0 -116 -41 -204.5t-123 -165.5q-24 -21 -47 -21q-25 0 -44 19t-19 45q0 24 44 70.5t44 68.5q0 24 -21 27q-61 12 -99 59.5t-38 108.5zM418 1092q0 73 49.5 123.5t122.5 50.5q71 0 121.5 -52.5 t50.5 -128.5q0 -116 -41 -204.5t-123 -165.5q-24 -21 -47 -21q-25 0 -44.5 19t-19.5 45q0 24 44 70.5t44 68.5q0 24 -20 27q-61 12 -99 59.5t-38 108.5z" />
<glyph unicode="&#x201e;" horiz-adv-x="811" d="M49 150q0 73 49.5 123.5t122.5 50.5q71 0 121.5 -52.5t50.5 -128.5q0 -116 -41 -204.5t-123 -165.5q-24 -21 -47 -21q-25 0 -44 19t-19 45q0 24 44 70.5t44 68.5q0 24 -21 27q-61 12 -99 59.5t-38 108.5zM418 150q0 73 49.5 123.5t122.5 50.5q71 0 121.5 -52.5 t50.5 -128.5q0 -116 -41 -204.5t-123 -165.5q-24 -21 -47 -21q-25 0 -44.5 19t-19.5 45q0 24 44 70.5t44 68.5q0 24 -20 27q-61 12 -99 59.5t-38 108.5z" />
<glyph unicode="&#x2022;" horiz-adv-x="790" d="M49 590q0 141 102 242.5t246 101.5q141 0 242.5 -101.5t101.5 -242.5q0 -144 -101.5 -246t-242.5 -102q-145 0 -246.5 101.5t-101.5 246.5z" />
<glyph unicode="&#x2026;" horiz-adv-x="1263" d="M49 152q0 71 51 121.5t123 50.5q71 0 121.5 -51t50.5 -121q0 -72 -50.5 -123.5t-121.5 -51.5q-72 0 -123 51.5t-51 123.5zM459 152q0 71 51 121.5t123 50.5q71 0 121.5 -51t50.5 -121q0 -72 -50.5 -123.5t-121.5 -51.5q-72 0 -123 51.5t-51 123.5zM868 152q0 71 51 121.5 t123 50.5q70 0 121 -51t51 -121q0 -72 -50.5 -123.5t-121.5 -51.5q-72 0 -123 51.5t-51 123.5z" />
<glyph unicode="&#x202f;" horiz-adv-x="330" />
<glyph unicode="&#x2039;" horiz-adv-x="565" d="M49 504q0 30 19 49l329 338q16 16 39 16q30 0 55 -23.5t25 -52.5q0 -12 -6 -24l-172 -303l172 -303q6 -12 6 -27q0 -28 -25.5 -51t-54.5 -23q-25 0 -39 17l-329 338q-19 19 -19 49z" />
<glyph unicode="&#x203a;" horiz-adv-x="565" d="M49 174q0 15 6 27l172 303l-172 303q-6 12 -6 24q0 29 25 52.5t55 23.5q20 0 39 -16l330 -338q18 -18 18 -49t-18 -49l-330 -338q-17 -17 -39 -17q-29 0 -54.5 23t-25.5 51z" />
<glyph unicode="&#x205f;" horiz-adv-x="412" />
<glyph unicode="&#x20ac;" horiz-adv-x="1431" d="M49 479q0 30 20.5 52t57.5 22h113q-4 54 -4 90h-109q-37 0 -57.5 22t-20.5 52t20.5 52t57.5 22h127q52 220 229.5 370t407.5 150q169 0 313 -56v9q0 45 27 70.5t63 25.5q35 0 61.5 -25.5t26.5 -70.5v-303q0 -45 -26.5 -70t-61.5 -25q-36 0 -63 25t-27 70v141 q-79 39 -155 39q-127 0 -223.5 -97.5t-139.5 -252.5h399q38 0 59 -22t21 -52t-21 -52t-59 -22h-417q0 -32 4 -90h315q38 0 59 -22t21 -52t-21.5 -53t-58.5 -23h-276q44 -117 138 -191.5t208 -74.5q78 0 147 35v158q0 45 27 70.5t63 25.5q35 0 61.5 -25.5t26.5 -70.5v-303 q0 -45 -26.5 -70t-61.5 -25t-61 22.5t-29 63.5q-132 -53 -297 -53q-216 0 -387 121.5t-244 316.5h-149q-37 0 -57.5 22.5t-20.5 53.5z" />
<glyph unicode="&#x2122;" horiz-adv-x="884" d="M49 1155q0 98 37 98q19 0 58.5 -5t60.5 -5q18 0 57.5 5t59.5 5q36 0 36 -110q-1 -10 -9 -16.5t-17 -6.5q-15 2 -20.5 21t-14 36t-31.5 17q-18 0 -18 -100q0 -142 16 -142q37 0 37 -20q0 -14 -13.5 -22t-29 -9.5t-41.5 -1.5h-31q-86 0 -86 29q0 9 6.5 16.5t16.5 7.5 q20 0 25.5 27t5.5 96q0 119 -13 119q-23 0 -31.5 -17t-14 -36t-19.5 -21q-27 0 -27 35zM328 936q0 10 6.5 17.5t19.5 7.5h13q9 0 19 16t20.5 44.5t18.5 53.5t17.5 58t12.5 43q0 14 -10.5 18t-22.5 3t-22.5 4.5t-10.5 21.5q0 24 78 24q43 0 51 -12l68 -154l53 142q9 24 35 24 h24q72 0 72 -24q0 -16 -10 -21.5t-21.5 -4t-21.5 -1.5t-10 -14q8 -23 20 -65t23 -75.5t24 -62.5q5 -14 16 -18.5t21 -3t17.5 -3t7.5 -18.5q0 -31 -78 -31h-27q-102 0 -102 31q0 16 8.5 20.5t28.5 4.5l-25 104l-59 -139q-7 -17 -25 -17q-11 0 -18 13l-66 137q-27 -84 -27 -98 q39 0 39 -25q0 -31 -73 -31h-21q-63 0 -63 31z" />
<glyph unicode="&#x25fc;" horiz-adv-x="962" d="M0 0v963h963v-963h-963z" />
</font>
</defs>
</svg>
